<svg width="1260" height="304" viewBox="0 0 1260 304" fill="none" xmlns="http://www.w3.org/2000/svg">
<rect width="1260" height="304" rx="8" fill="#E6F3EE"/>
<path d="M40 56C40 51.5817 43.5817 48 48 48H312C316.418 48 320 51.5817 320 56V88C320 92.4183 316.418 96 312 96H48C43.5817 96 40 92.4183 40 88V56Z" fill="white"/>
<path d="M63.962 76.654C63.0567 76.654 62.282 76.4253 61.638 75.968C60.994 75.5013 60.5273 74.8433 60.238 73.994L61.582 73.462C61.8153 74.0873 62.128 74.554 62.52 74.862C62.9213 75.1607 63.402 75.31 63.962 75.31C64.69 75.31 65.2687 75.0767 65.698 74.61C66.1367 74.1433 66.356 73.518 66.356 72.734V66.7H67.826V72.762C67.826 73.546 67.6673 74.232 67.35 74.82C67.0327 75.3987 66.5847 75.8513 66.006 76.178C65.4273 76.4953 64.746 76.654 63.962 76.654ZM72.8546 76.64C72.164 76.64 71.534 76.4767 70.9646 76.15C70.4046 75.8233 69.9613 75.38 69.6346 74.82C69.308 74.26 69.1446 73.6347 69.1446 72.944C69.1446 72.2533 69.308 71.628 69.6346 71.068C69.9613 70.508 70.4046 70.0647 70.9646 69.738C71.534 69.402 72.164 69.234 72.8546 69.234C73.5546 69.234 74.1846 69.402 74.7446 69.738C75.3046 70.0647 75.748 70.508 76.0746 71.068C76.4013 71.628 76.5646 72.2533 76.5646 72.944C76.5646 73.6347 76.4013 74.26 76.0746 74.82C75.748 75.38 75.3046 75.8233 74.7446 76.15C74.1846 76.4767 73.5546 76.64 72.8546 76.64ZM72.8546 75.408C73.2933 75.408 73.69 75.3007 74.0446 75.086C74.3993 74.862 74.6793 74.5633 74.8846 74.19C75.09 73.8167 75.1926 73.3967 75.1926 72.93C75.1926 72.4727 75.0853 72.062 74.8706 71.698C74.6653 71.3247 74.3853 71.026 74.0306 70.802C73.6853 70.578 73.2933 70.466 72.8546 70.466C72.416 70.466 72.0193 70.578 71.6646 70.802C71.3193 71.026 71.0393 71.3247 70.8246 71.698C70.6193 72.062 70.5166 72.4727 70.5166 72.93C70.5166 73.3967 70.6193 73.8167 70.8246 74.19C71.03 74.5633 71.31 74.862 71.6646 75.086C72.0193 75.3007 72.416 75.408 72.8546 75.408ZM77.8885 76.5V66.7L79.2885 66.434V70.046C79.8858 69.5233 80.6092 69.262 81.4585 69.262C82.1305 69.262 82.7372 69.4253 83.2785 69.752C83.8292 70.0787 84.2632 70.5173 84.5805 71.068C84.8978 71.6187 85.0565 72.2393 85.0565 72.93C85.0565 73.6207 84.8932 74.246 84.5665 74.806C84.2492 75.3567 83.8152 75.7953 83.2645 76.122C82.7232 76.4487 82.1118 76.612 81.4305 76.612C81.0385 76.612 80.6558 76.5513 80.2825 76.43C79.9185 76.2993 79.5825 76.1173 79.2745 75.884V76.5H77.8885ZM81.2765 75.394C81.7338 75.394 82.1398 75.2867 82.4945 75.072C82.8585 74.8573 83.1478 74.568 83.3625 74.204C83.5772 73.8307 83.6845 73.4107 83.6845 72.944C83.6845 72.4773 83.5772 72.0573 83.3625 71.684C83.1478 71.3107 82.8585 71.0167 82.4945 70.802C82.1398 70.5873 81.7338 70.48 81.2765 70.48C80.8752 70.48 80.5018 70.5547 80.1565 70.704C79.8112 70.8533 79.5218 71.0633 79.2885 71.334V74.554C79.5218 74.8153 79.8112 75.0207 80.1565 75.17C80.5112 75.3193 80.8845 75.394 81.2765 75.394ZM92.1742 76.5V68.002H88.7302V66.7H97.0882V68.002H93.6442V76.5H92.1742ZM98.1502 76.5V69.374H99.5502V76.5H98.1502ZM98.8502 68.226C98.6169 68.226 98.4162 68.142 98.2482 67.974C98.0802 67.7967 97.9962 67.5913 97.9962 67.358C97.9962 67.1153 98.0802 66.9147 98.2482 66.756C98.4162 66.588 98.6169 66.504 98.8502 66.504C99.0929 66.504 99.2982 66.588 99.4662 66.756C99.6342 66.9147 99.7182 67.1153 99.7182 67.358C99.7182 67.5913 99.6342 67.7967 99.4662 67.974C99.2982 68.142 99.0929 68.226 98.8502 68.226ZM104.251 76.626C103.56 76.626 103.033 76.4673 102.669 76.15C102.305 75.8233 102.123 75.352 102.123 74.736V70.55H100.611V69.374H102.123V67.554L103.509 67.218V69.374H105.609V70.55H103.509V74.414C103.509 74.778 103.588 75.0393 103.747 75.198C103.915 75.3473 104.186 75.422 104.559 75.422C104.755 75.422 104.928 75.408 105.077 75.38C105.236 75.352 105.404 75.31 105.581 75.254V76.43C105.394 76.4953 105.175 76.542 104.923 76.57C104.68 76.6073 104.456 76.626 104.251 76.626ZM106.64 76.5V66.7L108.04 66.434V76.5H106.64ZM113.105 76.626C112.405 76.626 111.771 76.4627 111.201 76.136C110.641 75.8093 110.193 75.366 109.857 74.806C109.531 74.246 109.367 73.6207 109.367 72.93C109.367 72.2487 109.526 71.6327 109.843 71.082C110.161 70.522 110.59 70.0787 111.131 69.752C111.673 69.416 112.275 69.248 112.937 69.248C113.6 69.248 114.188 69.416 114.701 69.752C115.215 70.0787 115.621 70.5267 115.919 71.096C116.227 71.656 116.381 72.2907 116.381 73V73.392H110.767C110.842 73.784 110.987 74.134 111.201 74.442C111.425 74.75 111.705 74.9927 112.041 75.17C112.387 75.3473 112.76 75.436 113.161 75.436C113.507 75.436 113.838 75.3847 114.155 75.282C114.482 75.17 114.753 75.0113 114.967 74.806L115.863 75.688C115.443 76.0053 115.009 76.2433 114.561 76.402C114.123 76.5513 113.637 76.626 113.105 76.626ZM110.781 72.342H114.995C114.939 71.9687 114.809 71.642 114.603 71.362C114.407 71.0727 114.16 70.8487 113.861 70.69C113.572 70.522 113.255 70.438 112.909 70.438C112.555 70.438 112.228 70.5173 111.929 70.676C111.631 70.8347 111.379 71.0587 111.173 71.348C110.977 71.628 110.847 71.9593 110.781 72.342Z" fill="#57615E"/>
<path d="M295.947 69.4534H291.793H288.053C287.413 69.4534 287.093 70.2267 287.547 70.68L291 74.1334C291.553 74.6867 292.453 74.6867 293.007 74.1334L294.32 72.82L296.46 70.68C296.907 70.2267 296.587 69.4534 295.947 69.4534Z" fill="#57615E"/>
<rect x="340" y="48" width="280" height="48" rx="8" fill="white"/>
<path d="M360.994 76.5V66.7H365.432C366.085 66.7 366.655 66.8213 367.14 67.064C367.635 67.3067 368.017 67.6473 368.288 68.086C368.568 68.5153 368.708 69.0193 368.708 69.598C368.708 70.242 368.526 70.7973 368.162 71.264C367.798 71.7307 367.308 72.0667 366.692 72.272L368.876 76.5H367.252L365.222 72.482H362.464V76.5H360.994ZM362.464 71.25H365.32C365.899 71.25 366.361 71.1053 366.706 70.816C367.061 70.5173 367.238 70.116 367.238 69.612C367.238 69.1267 367.061 68.7347 366.706 68.436C366.361 68.1373 365.899 67.988 365.32 67.988H362.464V71.25ZM373.047 76.626C372.347 76.626 371.712 76.4627 371.143 76.136C370.583 75.8093 370.135 75.366 369.799 74.806C369.472 74.246 369.309 73.6207 369.309 72.93C369.309 72.2487 369.467 71.6327 369.785 71.082C370.102 70.522 370.531 70.0787 371.073 69.752C371.614 69.416 372.216 69.248 372.879 69.248C373.541 69.248 374.129 69.416 374.643 69.752C375.156 70.0787 375.562 70.5267 375.861 71.096C376.169 71.656 376.323 72.2907 376.323 73V73.392H370.709C370.783 73.784 370.928 74.134 371.143 74.442C371.367 74.75 371.647 74.9927 371.983 75.17C372.328 75.3473 372.701 75.436 373.103 75.436C373.448 75.436 373.779 75.3847 374.097 75.282C374.423 75.17 374.694 75.0113 374.909 74.806L375.805 75.688C375.385 76.0053 374.951 76.2433 374.503 76.402C374.064 76.5513 373.579 76.626 373.047 76.626ZM370.723 72.342H374.937C374.881 71.9687 374.75 71.642 374.545 71.362C374.349 71.0727 374.101 70.8487 373.803 70.69C373.513 70.522 373.196 70.438 372.851 70.438C372.496 70.438 372.169 70.5173 371.871 70.676C371.572 70.8347 371.32 71.0587 371.115 71.348C370.919 71.628 370.788 71.9593 370.723 72.342ZM377.656 76.5V69.374H379.056V70.06C379.588 69.5093 380.255 69.234 381.058 69.234C381.543 69.234 381.973 69.3413 382.346 69.556C382.729 69.7707 383.032 70.06 383.256 70.424C383.555 70.032 383.905 69.738 384.306 69.542C384.707 69.3367 385.16 69.234 385.664 69.234C386.196 69.234 386.658 69.3507 387.05 69.584C387.451 69.8173 387.764 70.144 387.988 70.564C388.221 70.984 388.338 71.4693 388.338 72.02V76.5H386.938V72.258C386.938 71.698 386.789 71.2593 386.49 70.942C386.201 70.6153 385.804 70.452 385.3 70.452C384.955 70.452 384.642 70.5313 384.362 70.69C384.082 70.8487 383.839 71.0913 383.634 71.418C383.653 71.5113 383.667 71.6093 383.676 71.712C383.685 71.8147 383.69 71.9173 383.69 72.02V76.5H382.304V72.258C382.304 71.698 382.155 71.2593 381.856 70.942C381.567 70.6153 381.17 70.452 380.666 70.452C380.33 70.452 380.027 70.5267 379.756 70.676C379.485 70.816 379.252 71.0307 379.056 71.32V76.5H377.656ZM393.335 76.64C392.644 76.64 392.014 76.4767 391.445 76.15C390.885 75.8233 390.442 75.38 390.115 74.82C389.788 74.26 389.625 73.6347 389.625 72.944C389.625 72.2533 389.788 71.628 390.115 71.068C390.442 70.508 390.885 70.0647 391.445 69.738C392.014 69.402 392.644 69.234 393.335 69.234C394.035 69.234 394.665 69.402 395.225 69.738C395.785 70.0647 396.228 70.508 396.555 71.068C396.882 71.628 397.045 72.2533 397.045 72.944C397.045 73.6347 396.882 74.26 396.555 74.82C396.228 75.38 395.785 75.8233 395.225 76.15C394.665 76.4767 394.035 76.64 393.335 76.64ZM393.335 75.408C393.774 75.408 394.17 75.3007 394.525 75.086C394.88 74.862 395.16 74.5633 395.365 74.19C395.57 73.8167 395.673 73.3967 395.673 72.93C395.673 72.4727 395.566 72.062 395.351 71.698C395.146 71.3247 394.866 71.026 394.511 70.802C394.166 70.578 393.774 70.466 393.335 70.466C392.896 70.466 392.5 70.578 392.145 70.802C391.8 71.026 391.52 71.3247 391.305 71.698C391.1 72.062 390.997 72.4727 390.997 72.93C390.997 73.3967 391.1 73.8167 391.305 74.19C391.51 74.5633 391.79 74.862 392.145 75.086C392.5 75.3007 392.896 75.408 393.335 75.408ZM401.011 76.626C400.32 76.626 399.793 76.4673 399.429 76.15C399.065 75.8233 398.883 75.352 398.883 74.736V70.55H397.371V69.374H398.883V67.554L400.269 67.218V69.374H402.369V70.55H400.269V74.414C400.269 74.778 400.348 75.0393 400.507 75.198C400.675 75.3473 400.945 75.422 401.319 75.422C401.515 75.422 401.687 75.408 401.837 75.38C401.995 75.352 402.163 75.31 402.341 75.254V76.43C402.154 76.4953 401.935 76.542 401.683 76.57C401.44 76.6073 401.216 76.626 401.011 76.626ZM406.707 76.626C406.007 76.626 405.372 76.4627 404.803 76.136C404.243 75.8093 403.795 75.366 403.459 74.806C403.132 74.246 402.969 73.6207 402.969 72.93C402.969 72.2487 403.128 71.6327 403.445 71.082C403.762 70.522 404.192 70.0787 404.733 69.752C405.274 69.416 405.876 69.248 406.539 69.248C407.202 69.248 407.79 69.416 408.303 69.752C408.816 70.0787 409.222 70.5267 409.521 71.096C409.829 71.656 409.983 72.2907 409.983 73V73.392H404.369C404.444 73.784 404.588 74.134 404.803 74.442C405.027 74.75 405.307 74.9927 405.643 75.17C405.988 75.3473 406.362 75.436 406.763 75.436C407.108 75.436 407.44 75.3847 407.757 75.282C408.084 75.17 408.354 75.0113 408.569 74.806L409.465 75.688C409.045 76.0053 408.611 76.2433 408.163 76.402C407.724 76.5513 407.239 76.626 406.707 76.626ZM404.383 72.342H408.597C408.541 71.9687 408.41 71.642 408.205 71.362C408.009 71.0727 407.762 70.8487 407.463 70.69C407.174 70.522 406.856 70.438 406.511 70.438C406.156 70.438 405.83 70.5173 405.531 70.676C405.232 70.8347 404.98 71.0587 404.775 71.348C404.579 71.628 404.448 71.9593 404.383 72.342Z" fill="#57615E"/>
<path d="M595.947 69.4534H591.793H588.053C587.413 69.4534 587.093 70.2267 587.547 70.68L591 74.1334C591.553 74.6867 592.453 74.6867 593.007 74.1334L594.32 72.82L596.46 70.68C596.907 70.2267 596.587 69.4534 595.947 69.4534Z" fill="#57615E"/>
<path d="M640 56C640 51.5817 643.582 48 648 48H912C916.418 48 920 51.5817 920 56V88C920 92.4183 916.418 96 912 96H648C643.582 96 640 92.4183 640 88V56Z" fill="white"/>
<path d="M663.962 76.654C663.057 76.654 662.282 76.4253 661.638 75.968C660.994 75.5013 660.527 74.8433 660.238 73.994L661.582 73.462C661.815 74.0873 662.128 74.554 662.52 74.862C662.921 75.1607 663.402 75.31 663.962 75.31C664.69 75.31 665.269 75.0767 665.698 74.61C666.137 74.1433 666.356 73.518 666.356 72.734V66.7H667.826V72.762C667.826 73.546 667.667 74.232 667.35 74.82C667.033 75.3987 666.585 75.8513 666.006 76.178C665.427 76.4953 664.746 76.654 663.962 76.654ZM672.855 76.64C672.164 76.64 671.534 76.4767 670.965 76.15C670.405 75.8233 669.961 75.38 669.635 74.82C669.308 74.26 669.145 73.6347 669.145 72.944C669.145 72.2533 669.308 71.628 669.635 71.068C669.961 70.508 670.405 70.0647 670.965 69.738C671.534 69.402 672.164 69.234 672.855 69.234C673.555 69.234 674.185 69.402 674.745 69.738C675.305 70.0647 675.748 70.508 676.075 71.068C676.401 71.628 676.565 72.2533 676.565 72.944C676.565 73.6347 676.401 74.26 676.075 74.82C675.748 75.38 675.305 75.8233 674.745 76.15C674.185 76.4767 673.555 76.64 672.855 76.64ZM672.855 75.408C673.293 75.408 673.69 75.3007 674.045 75.086C674.399 74.862 674.679 74.5633 674.885 74.19C675.09 73.8167 675.193 73.3967 675.193 72.93C675.193 72.4727 675.085 72.062 674.871 71.698C674.665 71.3247 674.385 71.026 674.031 70.802C673.685 70.578 673.293 70.466 672.855 70.466C672.416 70.466 672.019 70.578 671.665 70.802C671.319 71.026 671.039 71.3247 670.825 71.698C670.619 72.062 670.517 72.4727 670.517 72.93C670.517 73.3967 670.619 73.8167 670.825 74.19C671.03 74.5633 671.31 74.862 671.665 75.086C672.019 75.3007 672.416 75.408 672.855 75.408ZM677.889 76.5V66.7L679.289 66.434V70.046C679.886 69.5233 680.609 69.262 681.459 69.262C682.131 69.262 682.737 69.4253 683.279 69.752C683.829 70.0787 684.263 70.5173 684.581 71.068C684.898 71.6187 685.057 72.2393 685.057 72.93C685.057 73.6207 684.893 74.246 684.567 74.806C684.249 75.3567 683.815 75.7953 683.265 76.122C682.723 76.4487 682.112 76.612 681.431 76.612C681.039 76.612 680.656 76.5513 680.283 76.43C679.919 76.2993 679.583 76.1173 679.275 75.884V76.5H677.889ZM681.277 75.394C681.734 75.394 682.14 75.2867 682.495 75.072C682.859 74.8573 683.148 74.568 683.363 74.204C683.577 73.8307 683.685 73.4107 683.685 72.944C683.685 72.4773 683.577 72.0573 683.363 71.684C683.148 71.3107 682.859 71.0167 682.495 70.802C682.14 70.5873 681.734 70.48 681.277 70.48C680.875 70.48 680.502 70.5547 680.157 70.704C679.811 70.8533 679.522 71.0633 679.289 71.334V74.554C679.522 74.8153 679.811 75.0207 680.157 75.17C680.511 75.3193 680.885 75.394 681.277 75.394ZM692.174 76.5V68.002H688.73V66.7H697.088V68.002H693.644V76.5H692.174ZM697.874 79.51C697.725 79.51 697.585 79.5007 697.454 79.482C697.324 79.4727 697.216 79.454 697.132 79.426V78.194C697.3 78.2313 697.506 78.25 697.748 78.25C698.402 78.25 698.873 77.9 699.162 77.2L699.47 76.514L696.614 69.374H698.168L700.24 74.806L702.536 69.374H704.048L700.604 77.382C700.38 77.886 700.142 78.292 699.89 78.6C699.638 78.9173 699.349 79.146 699.022 79.286C698.696 79.4353 698.313 79.51 697.874 79.51ZM708.101 76.64C707.41 76.64 706.78 76.4767 706.211 76.15C705.651 75.8233 705.207 75.38 704.881 74.82C704.554 74.26 704.391 73.6347 704.391 72.944C704.391 72.2533 704.554 71.628 704.881 71.068C705.207 70.508 705.651 70.0647 706.211 69.738C706.78 69.402 707.41 69.234 708.101 69.234C708.801 69.234 709.431 69.402 709.991 69.738C710.551 70.0647 710.994 70.508 711.321 71.068C711.647 71.628 711.811 72.2533 711.811 72.944C711.811 73.6347 711.647 74.26 711.321 74.82C710.994 75.38 710.551 75.8233 709.991 76.15C709.431 76.4767 708.801 76.64 708.101 76.64ZM708.101 75.408C708.539 75.408 708.936 75.3007 709.291 75.086C709.645 74.862 709.925 74.5633 710.131 74.19C710.336 73.8167 710.439 73.3967 710.439 72.93C710.439 72.4727 710.331 72.062 710.117 71.698C709.911 71.3247 709.631 71.026 709.277 70.802C708.931 70.578 708.539 70.466 708.101 70.466C707.662 70.466 707.265 70.578 706.911 70.802C706.565 71.026 706.285 71.3247 706.071 71.698C705.865 72.062 705.763 72.4727 705.763 72.93C705.763 73.3967 705.865 73.8167 706.071 74.19C706.276 74.5633 706.556 74.862 706.911 75.086C707.265 75.3007 707.662 75.408 708.101 75.408ZM716.551 76.626C715.851 76.626 715.216 76.4627 714.647 76.136C714.087 75.8093 713.639 75.366 713.303 74.806C712.976 74.246 712.813 73.6207 712.813 72.93C712.813 72.2487 712.971 71.6327 713.289 71.082C713.606 70.522 714.035 70.0787 714.577 69.752C715.118 69.416 715.72 69.248 716.383 69.248C717.045 69.248 717.633 69.416 718.147 69.752C718.66 70.0787 719.066 70.5267 719.365 71.096C719.673 71.656 719.827 72.2907 719.827 73V73.392H714.213C714.287 73.784 714.432 74.134 714.647 74.442C714.871 74.75 715.151 74.9927 715.487 75.17C715.832 75.3473 716.205 75.436 716.607 75.436C716.952 75.436 717.283 75.3847 717.601 75.282C717.927 75.17 718.198 75.0113 718.413 74.806L719.309 75.688C718.889 76.0053 718.455 76.2433 718.007 76.402C717.568 76.5513 717.083 76.626 716.551 76.626ZM714.227 72.342H718.441C718.385 71.9687 718.254 71.642 718.049 71.362C717.853 71.0727 717.605 70.8487 717.307 70.69C717.017 70.522 716.7 70.438 716.355 70.438C716 70.438 715.673 70.5173 715.375 70.676C715.076 70.8347 714.824 71.0587 714.619 71.348C714.423 71.628 714.292 71.9593 714.227 72.342Z" fill="#57615E"/>
<path d="M895.947 69.4534H891.793H888.053C887.413 69.4534 887.093 70.2267 887.547 70.68L891 74.1334C891.553 74.6867 892.453 74.6867 893.007 74.1334L894.32 72.82L896.46 70.68C896.907 70.2267 896.587 69.4534 895.947 69.4534Z" fill="#57615E"/>
<rect x="940" y="48" width="280" height="48" rx="8" fill="white"/>
<path d="M960.994 76.5V66.7H962.464V76.5H960.994ZM964.299 76.5V69.374H965.699V70.102C966.249 69.5233 966.963 69.234 967.841 69.234C968.391 69.234 968.872 69.3507 969.283 69.584C969.703 69.8173 970.029 70.144 970.263 70.564C970.505 70.984 970.627 71.4693 970.627 72.02V76.5H969.227V72.258C969.227 71.698 969.068 71.2593 968.751 70.942C968.443 70.6153 968.009 70.452 967.449 70.452C967.075 70.452 966.739 70.5313 966.441 70.69C966.142 70.8487 965.895 71.0773 965.699 71.376V76.5H964.299ZM975.518 76.612C974.855 76.612 974.249 76.4487 973.698 76.122C973.147 75.7953 972.713 75.3567 972.396 74.806C972.079 74.246 971.92 73.6207 971.92 72.93C971.92 72.2393 972.079 71.6187 972.396 71.068C972.723 70.5173 973.161 70.0787 973.712 69.752C974.263 69.4253 974.874 69.262 975.546 69.262C975.938 69.262 976.316 69.3227 976.68 69.444C977.044 69.5653 977.38 69.7427 977.688 69.976V66.7L979.088 66.434V76.5H977.702V75.814C977.095 76.346 976.367 76.612 975.518 76.612ZM975.7 75.394C976.111 75.394 976.484 75.3193 976.82 75.17C977.165 75.0207 977.455 74.806 977.688 74.526V71.32C977.455 71.0587 977.165 70.8533 976.82 70.704C976.484 70.5453 976.111 70.466 975.7 70.466C975.252 70.466 974.846 70.5733 974.482 70.788C974.118 71.0027 973.829 71.2967 973.614 71.67C973.399 72.034 973.292 72.4493 973.292 72.916C973.292 73.3827 973.399 73.8027 973.614 74.176C973.829 74.5493 974.118 74.848 974.482 75.072C974.846 75.2867 975.252 75.394 975.7 75.394ZM983.504 76.64C982.953 76.64 982.468 76.5233 982.048 76.29C981.628 76.0567 981.301 75.73 981.068 75.31C980.835 74.8807 980.718 74.3907 980.718 73.84V69.374H982.104V73.602C982.104 74.162 982.263 74.6053 982.58 74.932C982.907 75.2587 983.341 75.422 983.882 75.422C984.265 75.422 984.605 75.3427 984.904 75.184C985.203 75.016 985.445 74.7827 985.632 74.484V69.374H987.032V76.5H985.632V75.772C985.081 76.3507 984.372 76.64 983.504 76.64ZM991.139 76.64C990.523 76.64 989.945 76.5513 989.403 76.374C988.871 76.1873 988.409 75.926 988.017 75.59L988.787 74.666C989.151 74.9553 989.525 75.1793 989.907 75.338C990.299 75.4873 990.696 75.562 991.097 75.562C991.601 75.562 992.012 75.464 992.329 75.268C992.647 75.072 992.805 74.8153 992.805 74.498C992.805 74.2367 992.712 74.0313 992.525 73.882C992.339 73.7327 992.049 73.63 991.657 73.574L990.369 73.392C989.66 73.2893 989.128 73.07 988.773 72.734C988.419 72.398 988.241 71.95 988.241 71.39C988.241 70.9607 988.358 70.5873 988.591 70.27C988.825 69.9433 989.151 69.6913 989.571 69.514C989.991 69.3273 990.481 69.234 991.041 69.234C991.555 69.234 992.049 69.3087 992.525 69.458C993.001 69.6073 993.459 69.8407 993.897 70.158L993.183 71.082C992.791 70.8207 992.409 70.6293 992.035 70.508C991.671 70.3867 991.303 70.326 990.929 70.326C990.5 70.326 990.155 70.4193 989.893 70.606C989.632 70.7833 989.501 71.0167 989.501 71.306C989.501 71.5673 989.59 71.7727 989.767 71.922C989.954 72.062 990.257 72.16 990.677 72.216L991.965 72.398C992.675 72.5007 993.211 72.72 993.575 73.056C993.939 73.3827 994.121 73.826 994.121 74.386C994.121 74.8153 993.991 75.2027 993.729 75.548C993.468 75.884 993.113 76.15 992.665 76.346C992.217 76.542 991.709 76.64 991.139 76.64ZM998.112 76.626C997.422 76.626 996.894 76.4673 996.53 76.15C996.166 75.8233 995.984 75.352 995.984 74.736V70.55H994.472V69.374H995.984V67.554L997.37 67.218V69.374H999.47V70.55H997.37V74.414C997.37 74.778 997.45 75.0393 997.608 75.198C997.776 75.3473 998.047 75.422 998.42 75.422C998.616 75.422 998.789 75.408 998.938 75.38C999.097 75.352 999.265 75.31 999.442 75.254V76.43C999.256 76.4953 999.036 76.542 998.784 76.57C998.542 76.6073 998.318 76.626 998.112 76.626ZM1000.5 76.5V69.374H1001.9V70.284C1002.13 69.948 1002.4 69.6867 1002.73 69.5C1003.06 69.304 1003.44 69.206 1003.86 69.206C1004.15 69.2153 1004.39 69.2573 1004.58 69.332V70.592C1004.45 70.536 1004.31 70.4987 1004.17 70.48C1004.03 70.452 1003.89 70.438 1003.75 70.438C1003.34 70.438 1002.98 70.55 1002.66 70.774C1002.34 70.9887 1002.09 71.306 1001.9 71.726V76.5H1000.5ZM1006.31 79.51C1006.16 79.51 1006.02 79.5007 1005.89 79.482C1005.76 79.4727 1005.65 79.454 1005.57 79.426V78.194C1005.74 78.2313 1005.94 78.25 1006.18 78.25C1006.84 78.25 1007.31 77.9 1007.6 77.2L1007.91 76.514L1005.05 69.374H1006.6L1008.68 74.806L1010.97 69.374H1012.48L1009.04 77.382C1008.82 77.886 1008.58 78.292 1008.33 78.6C1008.07 78.9173 1007.78 79.146 1007.46 79.286C1007.13 79.4353 1006.75 79.51 1006.31 79.51Z" fill="#57615E"/>
<path d="M1195.95 69.4534H1191.79H1188.05C1187.41 69.4534 1187.09 70.2267 1187.55 70.68L1191 74.1334C1191.55 74.6867 1192.45 74.6867 1193.01 74.1334L1194.32 72.82L1196.46 70.68C1196.91 70.2267 1196.59 69.4534 1195.95 69.4534Z" fill="#57615E"/>
<path d="M40 136C40 131.582 43.5817 128 48 128H312C316.418 128 320 131.582 320 136V168C320 172.418 316.418 176 312 176H48C43.5817 176 40 172.418 40 168V136Z" fill="white"/>
<path d="M60.994 156.5V146.7H68.218V147.988H62.464V150.928H66.244V152.174H62.464V155.212H68.274V156.5H60.994ZM68.778 156.5L71.55 152.846L68.89 149.374H70.528L72.362 151.81L74.196 149.374H75.778L73.146 152.832L75.946 156.5H74.308L72.334 153.868L70.36 156.5H68.778ZM76.8084 159.356V149.374H78.1944V150.06C78.7918 149.528 79.5198 149.262 80.3784 149.262C81.0504 149.262 81.6571 149.425 82.1984 149.752C82.7491 150.079 83.1831 150.517 83.5004 151.068C83.8178 151.619 83.9764 152.239 83.9764 152.93C83.9764 153.621 83.8131 154.246 83.4864 154.806C83.1691 155.357 82.7351 155.795 82.1844 156.122C81.6431 156.449 81.0318 156.612 80.3504 156.612C79.9584 156.612 79.5804 156.551 79.2164 156.43C78.8524 156.299 78.5164 156.117 78.2084 155.884V159.356H76.8084ZM80.1964 155.394C80.6538 155.394 81.0598 155.287 81.4144 155.072C81.7784 154.857 82.0678 154.568 82.2824 154.204C82.4971 153.831 82.6044 153.411 82.6044 152.944C82.6044 152.477 82.4971 152.057 82.2824 151.684C82.0678 151.311 81.7784 151.017 81.4144 150.802C81.0598 150.587 80.6538 150.48 80.1964 150.48C79.7951 150.48 79.4218 150.555 79.0764 150.704C78.7311 150.853 78.4418 151.063 78.2084 151.334V154.554C78.4418 154.815 78.7311 155.021 79.0764 155.17C79.4311 155.319 79.8044 155.394 80.1964 155.394ZM88.7283 156.626C88.0283 156.626 87.3937 156.463 86.8243 156.136C86.2643 155.809 85.8163 155.366 85.4803 154.806C85.1537 154.246 84.9903 153.621 84.9903 152.93C84.9903 152.249 85.149 151.633 85.4663 151.082C85.7837 150.522 86.213 150.079 86.7543 149.752C87.2957 149.416 87.8977 149.248 88.5603 149.248C89.223 149.248 89.811 149.416 90.3243 149.752C90.8377 150.079 91.2437 150.527 91.5423 151.096C91.8503 151.656 92.0043 152.291 92.0043 153V153.392H86.3903C86.465 153.784 86.6097 154.134 86.8243 154.442C87.0483 154.75 87.3283 154.993 87.6643 155.17C88.0097 155.347 88.383 155.436 88.7843 155.436C89.1297 155.436 89.461 155.385 89.7783 155.282C90.105 155.17 90.3757 155.011 90.5903 154.806L91.4863 155.688C91.0663 156.005 90.6323 156.243 90.1843 156.402C89.7457 156.551 89.2603 156.626 88.7283 156.626ZM86.4043 152.342H90.6183C90.5623 151.969 90.4317 151.642 90.2263 151.362C90.0303 151.073 89.783 150.849 89.4843 150.69C89.195 150.522 88.8777 150.438 88.5323 150.438C88.1777 150.438 87.851 150.517 87.5523 150.676C87.2537 150.835 87.0017 151.059 86.7963 151.348C86.6003 151.628 86.4697 151.959 86.4043 152.342ZM93.3377 156.5V149.374H94.7377V150.284C94.9617 149.948 95.2371 149.687 95.5637 149.5C95.8997 149.304 96.2777 149.206 96.6977 149.206C96.9871 149.215 97.2251 149.257 97.4117 149.332V150.592C97.2811 150.536 97.1457 150.499 97.0057 150.48C96.8657 150.452 96.7257 150.438 96.5857 150.438C96.1751 150.438 95.8111 150.55 95.4937 150.774C95.1764 150.989 94.9244 151.306 94.7377 151.726V156.5H93.3377ZM98.533 156.5V149.374H99.933V156.5H98.533ZM99.233 148.226C98.9997 148.226 98.799 148.142 98.631 147.974C98.463 147.797 98.379 147.591 98.379 147.358C98.379 147.115 98.463 146.915 98.631 146.756C98.799 146.588 98.9997 146.504 99.233 146.504C99.4757 146.504 99.681 146.588 99.849 146.756C100.017 146.915 100.101 147.115 100.101 147.358C100.101 147.591 100.017 147.797 99.849 147.974C99.681 148.142 99.4757 148.226 99.233 148.226ZM104.998 156.626C104.298 156.626 103.663 156.463 103.094 156.136C102.534 155.809 102.086 155.366 101.75 154.806C101.423 154.246 101.26 153.621 101.26 152.93C101.26 152.249 101.419 151.633 101.736 151.082C102.053 150.522 102.483 150.079 103.024 149.752C103.565 149.416 104.167 149.248 104.83 149.248C105.493 149.248 106.081 149.416 106.594 149.752C107.107 150.079 107.513 150.527 107.812 151.096C108.12 151.656 108.274 152.291 108.274 153V153.392H102.66C102.735 153.784 102.879 154.134 103.094 154.442C103.318 154.75 103.598 154.993 103.934 155.17C104.279 155.347 104.653 155.436 105.054 155.436C105.399 155.436 105.731 155.385 106.048 155.282C106.375 155.17 106.645 155.011 106.86 154.806L107.756 155.688C107.336 156.005 106.902 156.243 106.454 156.402C106.015 156.551 105.53 156.626 104.998 156.626ZM102.674 152.342H106.888C106.832 151.969 106.701 151.642 106.496 151.362C106.3 151.073 106.053 150.849 105.754 150.69C105.465 150.522 105.147 150.438 104.802 150.438C104.447 150.438 104.121 150.517 103.822 150.676C103.523 150.835 103.271 151.059 103.066 151.348C102.87 151.628 102.739 151.959 102.674 152.342ZM109.607 156.5V149.374H111.007V150.102C111.558 149.523 112.272 149.234 113.149 149.234C113.7 149.234 114.181 149.351 114.591 149.584C115.011 149.817 115.338 150.144 115.571 150.564C115.814 150.984 115.935 151.469 115.935 152.02V156.5H114.535V152.258C114.535 151.698 114.377 151.259 114.059 150.942C113.751 150.615 113.317 150.452 112.757 150.452C112.384 150.452 112.048 150.531 111.749 150.69C111.451 150.849 111.203 151.077 111.007 151.376V156.5H109.607ZM120.897 156.626C120.215 156.626 119.595 156.463 119.035 156.136C118.475 155.809 118.031 155.366 117.705 154.806C117.387 154.246 117.229 153.621 117.229 152.93C117.229 152.239 117.392 151.619 117.719 151.068C118.045 150.508 118.484 150.065 119.035 149.738C119.595 149.402 120.215 149.234 120.897 149.234C121.438 149.234 121.956 149.337 122.451 149.542C122.955 149.747 123.389 150.037 123.753 150.41L122.885 151.376C122.614 151.077 122.311 150.853 121.975 150.704C121.639 150.555 121.289 150.48 120.925 150.48C120.495 150.48 120.103 150.587 119.749 150.802C119.403 151.017 119.128 151.311 118.923 151.684C118.717 152.057 118.615 152.473 118.615 152.93C118.615 153.387 118.717 153.803 118.923 154.176C119.128 154.549 119.408 154.848 119.763 155.072C120.117 155.287 120.514 155.394 120.953 155.394C121.317 155.394 121.657 155.324 121.975 155.184C122.292 155.035 122.591 154.82 122.871 154.54L123.725 155.436C123.351 155.819 122.917 156.113 122.423 156.318C121.937 156.523 121.429 156.626 120.897 156.626ZM128.062 156.626C127.362 156.626 126.728 156.463 126.158 156.136C125.598 155.809 125.15 155.366 124.814 154.806C124.488 154.246 124.324 153.621 124.324 152.93C124.324 152.249 124.483 151.633 124.8 151.082C125.118 150.522 125.547 150.079 126.088 149.752C126.63 149.416 127.232 149.248 127.894 149.248C128.557 149.248 129.145 149.416 129.658 149.752C130.172 150.079 130.578 150.527 130.876 151.096C131.184 151.656 131.338 152.291 131.338 153V153.392H125.724C125.799 153.784 125.944 154.134 126.158 154.442C126.382 154.75 126.662 154.993 126.998 155.17C127.344 155.347 127.717 155.436 128.118 155.436C128.464 155.436 128.795 155.385 129.112 155.282C129.439 155.17 129.71 155.011 129.924 154.806L130.82 155.688C130.4 156.005 129.966 156.243 129.518 156.402C129.08 156.551 128.594 156.626 128.062 156.626ZM125.738 152.342H129.952C129.896 151.969 129.766 151.642 129.56 151.362C129.364 151.073 129.117 150.849 128.818 150.69C128.529 150.522 128.212 150.438 127.866 150.438C127.512 150.438 127.185 150.517 126.886 150.676C126.588 150.835 126.336 151.059 126.13 151.348C125.934 151.628 125.804 151.959 125.738 152.342ZM135.597 156.5V146.7L136.997 146.434V156.5H135.597ZM142.062 156.626C141.362 156.626 140.728 156.463 140.158 156.136C139.598 155.809 139.15 155.366 138.814 154.806C138.488 154.246 138.324 153.621 138.324 152.93C138.324 152.249 138.483 151.633 138.8 151.082C139.118 150.522 139.547 150.079 140.088 149.752C140.63 149.416 141.232 149.248 141.894 149.248C142.557 149.248 143.145 149.416 143.658 149.752C144.172 150.079 144.578 150.527 144.876 151.096C145.184 151.656 145.338 152.291 145.338 153V153.392H139.724C139.799 153.784 139.944 154.134 140.158 154.442C140.382 154.75 140.662 154.993 140.998 155.17C141.344 155.347 141.717 155.436 142.118 155.436C142.464 155.436 142.795 155.385 143.112 155.282C143.439 155.17 143.71 155.011 143.924 154.806L144.82 155.688C144.4 156.005 143.966 156.243 143.518 156.402C143.08 156.551 142.594 156.626 142.062 156.626ZM139.738 152.342H143.952C143.896 151.969 143.766 151.642 143.56 151.362C143.364 151.073 143.117 150.849 142.818 150.69C142.529 150.522 142.212 150.438 141.866 150.438C141.512 150.438 141.185 150.517 140.886 150.676C140.588 150.835 140.336 151.059 140.13 151.348C139.934 151.628 139.804 151.959 139.738 152.342ZM148.763 156.5L145.683 149.374H147.223L149.449 154.708L151.675 149.374H153.159L150.107 156.5H148.763ZM157.238 156.626C156.538 156.626 155.903 156.463 155.334 156.136C154.774 155.809 154.326 155.366 153.99 154.806C153.663 154.246 153.5 153.621 153.5 152.93C153.5 152.249 153.659 151.633 153.976 151.082C154.293 150.522 154.723 150.079 155.264 149.752C155.805 149.416 156.407 149.248 157.07 149.248C157.733 149.248 158.321 149.416 158.834 149.752C159.347 150.079 159.753 150.527 160.052 151.096C160.36 151.656 160.514 152.291 160.514 153V153.392H154.9C154.975 153.784 155.119 154.134 155.334 154.442C155.558 154.75 155.838 154.993 156.174 155.17C156.519 155.347 156.893 155.436 157.294 155.436C157.639 155.436 157.971 155.385 158.288 155.282C158.615 155.17 158.885 155.011 159.1 154.806L159.996 155.688C159.576 156.005 159.142 156.243 158.694 156.402C158.255 156.551 157.77 156.626 157.238 156.626ZM154.914 152.342H159.128C159.072 151.969 158.941 151.642 158.736 151.362C158.54 151.073 158.293 150.849 157.994 150.69C157.705 150.522 157.387 150.438 157.042 150.438C156.687 150.438 156.361 150.517 156.062 150.676C155.763 150.835 155.511 151.059 155.306 151.348C155.11 151.628 154.979 151.959 154.914 152.342ZM161.847 156.5V146.7L163.247 146.434V156.5H161.847Z" fill="#57615E"/>
<path d="M295.947 149.453H291.793H288.053C287.413 149.453 287.093 150.227 287.547 150.68L291 154.133C291.553 154.687 292.453 154.687 293.007 154.133L294.32 152.82L296.46 150.68C296.907 150.227 296.587 149.453 295.947 149.453Z" fill="#57615E"/>
<rect x="340" y="128" width="280" height="48" rx="8" fill="white"/>
<path d="M360.994 156.5V146.7H362.464V155.198H368.106V156.5H360.994ZM372.458 156.64C371.767 156.64 371.137 156.477 370.568 156.15C370.008 155.823 369.565 155.38 369.238 154.82C368.911 154.26 368.748 153.635 368.748 152.944C368.748 152.253 368.911 151.628 369.238 151.068C369.565 150.508 370.008 150.065 370.568 149.738C371.137 149.402 371.767 149.234 372.458 149.234C373.158 149.234 373.788 149.402 374.348 149.738C374.908 150.065 375.351 150.508 375.678 151.068C376.005 151.628 376.168 152.253 376.168 152.944C376.168 153.635 376.005 154.26 375.678 154.82C375.351 155.38 374.908 155.823 374.348 156.15C373.788 156.477 373.158 156.64 372.458 156.64ZM372.458 155.408C372.897 155.408 373.293 155.301 373.648 155.086C374.003 154.862 374.283 154.563 374.488 154.19C374.693 153.817 374.796 153.397 374.796 152.93C374.796 152.473 374.689 152.062 374.474 151.698C374.269 151.325 373.989 151.026 373.634 150.802C373.289 150.578 372.897 150.466 372.458 150.466C372.019 150.466 371.623 150.578 371.268 150.802C370.923 151.026 370.643 151.325 370.428 151.698C370.223 152.062 370.12 152.473 370.12 152.93C370.12 153.397 370.223 153.817 370.428 154.19C370.633 154.563 370.913 154.862 371.268 155.086C371.623 155.301 372.019 155.408 372.458 155.408ZM380.838 156.626C380.157 156.626 379.536 156.463 378.976 156.136C378.416 155.809 377.973 155.366 377.646 154.806C377.329 154.246 377.17 153.621 377.17 152.93C377.17 152.239 377.333 151.619 377.66 151.068C377.987 150.508 378.425 150.065 378.976 149.738C379.536 149.402 380.157 149.234 380.838 149.234C381.379 149.234 381.897 149.337 382.392 149.542C382.896 149.747 383.33 150.037 383.694 150.41L382.826 151.376C382.555 151.077 382.252 150.853 381.916 150.704C381.58 150.555 381.23 150.48 380.866 150.48C380.437 150.48 380.045 150.587 379.69 150.802C379.345 151.017 379.069 151.311 378.864 151.684C378.659 152.057 378.556 152.473 378.556 152.93C378.556 153.387 378.659 153.803 378.864 154.176C379.069 154.549 379.349 154.848 379.704 155.072C380.059 155.287 380.455 155.394 380.894 155.394C381.258 155.394 381.599 155.324 381.916 155.184C382.233 155.035 382.532 154.82 382.812 154.54L383.666 155.436C383.293 155.819 382.859 156.113 382.364 156.318C381.879 156.523 381.37 156.626 380.838 156.626ZM387.047 156.626C386.533 156.626 386.081 156.537 385.689 156.36C385.297 156.173 384.989 155.917 384.765 155.59C384.541 155.263 384.429 154.885 384.429 154.456C384.429 153.784 384.685 153.257 385.199 152.874C385.712 152.482 386.417 152.286 387.313 152.286C388.013 152.286 388.661 152.421 389.259 152.692V151.936C389.259 151.423 389.109 151.04 388.811 150.788C388.521 150.536 388.092 150.41 387.523 150.41C387.196 150.41 386.855 150.461 386.501 150.564C386.146 150.657 385.749 150.807 385.311 151.012L384.793 149.962C385.334 149.71 385.838 149.528 386.305 149.416C386.771 149.295 387.243 149.234 387.719 149.234C388.643 149.234 389.357 149.453 389.861 149.892C390.374 150.331 390.631 150.956 390.631 151.768V156.5H389.259V155.884C388.941 156.136 388.601 156.323 388.237 156.444C387.873 156.565 387.476 156.626 387.047 156.626ZM385.773 154.428C385.773 154.773 385.917 155.053 386.207 155.268C386.505 155.483 386.893 155.59 387.369 155.59C387.742 155.59 388.083 155.534 388.391 155.422C388.708 155.31 388.997 155.137 389.259 154.904V153.7C388.988 153.541 388.703 153.429 388.405 153.364C388.115 153.289 387.789 153.252 387.425 153.252C386.911 153.252 386.505 153.359 386.207 153.574C385.917 153.779 385.773 154.064 385.773 154.428ZM395.091 156.626C394.4 156.626 393.873 156.467 393.509 156.15C393.145 155.823 392.963 155.352 392.963 154.736V150.55H391.451V149.374H392.963V147.554L394.349 147.218V149.374H396.449V150.55H394.349V154.414C394.349 154.778 394.428 155.039 394.587 155.198C394.755 155.347 395.026 155.422 395.399 155.422C395.595 155.422 395.768 155.408 395.917 155.38C396.076 155.352 396.244 155.31 396.421 155.254V156.43C396.234 156.495 396.015 156.542 395.763 156.57C395.52 156.607 395.296 156.626 395.091 156.626ZM397.48 156.5V149.374H398.88V156.5H397.48ZM398.18 148.226C397.947 148.226 397.746 148.142 397.578 147.974C397.41 147.797 397.326 147.591 397.326 147.358C397.326 147.115 397.41 146.915 397.578 146.756C397.746 146.588 397.947 146.504 398.18 146.504C398.423 146.504 398.628 146.588 398.796 146.756C398.964 146.915 399.048 147.115 399.048 147.358C399.048 147.591 398.964 147.797 398.796 147.974C398.628 148.142 398.423 148.226 398.18 148.226ZM403.917 156.64C403.226 156.64 402.596 156.477 402.027 156.15C401.467 155.823 401.024 155.38 400.697 154.82C400.37 154.26 400.207 153.635 400.207 152.944C400.207 152.253 400.37 151.628 400.697 151.068C401.024 150.508 401.467 150.065 402.027 149.738C402.596 149.402 403.226 149.234 403.917 149.234C404.617 149.234 405.247 149.402 405.807 149.738C406.367 150.065 406.81 150.508 407.137 151.068C407.464 151.628 407.627 152.253 407.627 152.944C407.627 153.635 407.464 154.26 407.137 154.82C406.81 155.38 406.367 155.823 405.807 156.15C405.247 156.477 404.617 156.64 403.917 156.64ZM403.917 155.408C404.356 155.408 404.752 155.301 405.107 155.086C405.462 154.862 405.742 154.563 405.947 154.19C406.152 153.817 406.255 153.397 406.255 152.93C406.255 152.473 406.148 152.062 405.933 151.698C405.728 151.325 405.448 151.026 405.093 150.802C404.748 150.578 404.356 150.466 403.917 150.466C403.478 150.466 403.082 150.578 402.727 150.802C402.382 151.026 402.102 151.325 401.887 151.698C401.682 152.062 401.579 152.473 401.579 152.93C401.579 153.397 401.682 153.817 401.887 154.19C402.092 154.563 402.372 154.862 402.727 155.086C403.082 155.301 403.478 155.408 403.917 155.408ZM408.951 156.5V149.374H410.351V150.102C410.902 149.523 411.616 149.234 412.493 149.234C413.044 149.234 413.524 149.351 413.935 149.584C414.355 149.817 414.682 150.144 414.915 150.564C415.158 150.984 415.279 151.469 415.279 152.02V156.5H413.879V152.258C413.879 151.698 413.72 151.259 413.403 150.942C413.095 150.615 412.661 150.452 412.101 150.452C411.728 150.452 411.392 150.531 411.093 150.69C410.794 150.849 410.547 151.077 410.351 151.376V156.5H408.951Z" fill="#57615E"/>
<path d="M595.947 149.453H591.793H588.053C587.413 149.453 587.093 150.227 587.547 150.68L591 154.133C591.553 154.687 592.453 154.687 593.007 154.133L594.32 152.82L596.46 150.68C596.907 150.227 596.587 149.453 595.947 149.453Z" fill="#57615E"/>
<path d="M640 136C640 131.582 643.582 128 648 128H912C916.418 128 920 131.582 920 136V168C920 172.418 916.418 176 912 176H648C643.582 176 640 172.418 640 168V136Z" fill="white"/>
<path d="M664.312 156.64C663.528 156.64 662.772 156.486 662.044 156.178C661.316 155.87 660.672 155.436 660.112 154.876L661.008 153.84C661.54 154.363 662.081 154.75 662.632 155.002C663.192 155.254 663.775 155.38 664.382 155.38C664.858 155.38 665.273 155.315 665.628 155.184C665.992 155.044 666.272 154.848 666.468 154.596C666.664 154.344 666.762 154.059 666.762 153.742C666.762 153.303 666.608 152.967 666.3 152.734C665.992 152.501 665.483 152.323 664.774 152.202L663.136 151.936C662.24 151.777 661.568 151.488 661.12 151.068C660.681 150.648 660.462 150.088 660.462 149.388C660.462 148.828 660.611 148.338 660.91 147.918C661.209 147.489 661.629 147.157 662.17 146.924C662.721 146.691 663.355 146.574 664.074 146.574C664.783 146.574 665.479 146.691 666.16 146.924C666.851 147.148 667.471 147.475 668.022 147.904L667.21 149.024C666.155 148.221 665.087 147.82 664.004 147.82C663.575 147.82 663.201 147.881 662.884 148.002C662.567 148.123 662.319 148.296 662.142 148.52C661.965 148.735 661.876 148.987 661.876 149.276C661.876 149.677 662.011 149.985 662.282 150.2C662.553 150.405 663.001 150.555 663.626 150.648L665.208 150.914C666.244 151.082 667.005 151.385 667.49 151.824C667.975 152.263 668.218 152.865 668.218 153.63C668.218 154.227 668.055 154.755 667.728 155.212C667.401 155.66 666.944 156.01 666.356 156.262C665.768 156.514 665.087 156.64 664.312 156.64ZM671.871 156.626C671.358 156.626 670.905 156.537 670.513 156.36C670.121 156.173 669.813 155.917 669.589 155.59C669.365 155.263 669.253 154.885 669.253 154.456C669.253 153.784 669.51 153.257 670.023 152.874C670.536 152.482 671.241 152.286 672.137 152.286C672.837 152.286 673.486 152.421 674.083 152.692V151.936C674.083 151.423 673.934 151.04 673.635 150.788C673.346 150.536 672.916 150.41 672.347 150.41C672.02 150.41 671.68 150.461 671.325 150.564C670.97 150.657 670.574 150.807 670.135 151.012L669.617 149.962C670.158 149.71 670.662 149.528 671.129 149.416C671.596 149.295 672.067 149.234 672.543 149.234C673.467 149.234 674.181 149.453 674.685 149.892C675.198 150.331 675.455 150.956 675.455 151.768V156.5H674.083V155.884C673.766 156.136 673.425 156.323 673.061 156.444C672.697 156.565 672.3 156.626 671.871 156.626ZM670.597 154.428C670.597 154.773 670.742 155.053 671.031 155.268C671.33 155.483 671.717 155.59 672.193 155.59C672.566 155.59 672.907 155.534 673.215 155.422C673.532 155.31 673.822 155.137 674.083 154.904V153.7C673.812 153.541 673.528 153.429 673.229 153.364C672.94 153.289 672.613 153.252 672.249 153.252C671.736 153.252 671.33 153.359 671.031 153.574C670.742 153.779 670.597 154.064 670.597 154.428ZM677.068 156.5V146.7L678.468 146.434V156.5H677.068ZM682.371 156.626C681.858 156.626 681.405 156.537 681.013 156.36C680.621 156.173 680.313 155.917 680.089 155.59C679.865 155.263 679.753 154.885 679.753 154.456C679.753 153.784 680.01 153.257 680.523 152.874C681.036 152.482 681.741 152.286 682.637 152.286C683.337 152.286 683.986 152.421 684.583 152.692V151.936C684.583 151.423 684.434 151.04 684.135 150.788C683.846 150.536 683.416 150.41 682.847 150.41C682.52 150.41 682.18 150.461 681.825 150.564C681.47 150.657 681.074 150.807 680.635 151.012L680.117 149.962C680.658 149.71 681.162 149.528 681.629 149.416C682.096 149.295 682.567 149.234 683.043 149.234C683.967 149.234 684.681 149.453 685.185 149.892C685.698 150.331 685.955 150.956 685.955 151.768V156.5H684.583V155.884C684.266 156.136 683.925 156.323 683.561 156.444C683.197 156.565 682.8 156.626 682.371 156.626ZM681.097 154.428C681.097 154.773 681.242 155.053 681.531 155.268C681.83 155.483 682.217 155.59 682.693 155.59C683.066 155.59 683.407 155.534 683.715 155.422C684.032 155.31 684.322 155.137 684.583 154.904V153.7C684.312 153.541 684.028 153.429 683.729 153.364C683.44 153.289 683.113 153.252 682.749 153.252C682.236 153.252 681.83 153.359 681.531 153.574C681.242 153.779 681.097 154.064 681.097 154.428ZM687.568 156.5V149.374H688.968V150.284C689.192 149.948 689.468 149.687 689.794 149.5C690.13 149.304 690.508 149.206 690.928 149.206C691.218 149.215 691.456 149.257 691.642 149.332V150.592C691.512 150.536 691.376 150.499 691.236 150.48C691.096 150.452 690.956 150.438 690.816 150.438C690.406 150.438 690.042 150.55 689.724 150.774C689.407 150.989 689.155 151.306 688.968 151.726V156.5H687.568ZM693.376 159.51C693.227 159.51 693.087 159.501 692.956 159.482C692.826 159.473 692.718 159.454 692.634 159.426V158.194C692.802 158.231 693.008 158.25 693.25 158.25C693.904 158.25 694.375 157.9 694.664 157.2L694.972 156.514L692.116 149.374H693.67L695.742 154.806L698.038 149.374H699.55L696.106 157.382C695.882 157.886 695.644 158.292 695.392 158.6C695.14 158.917 694.851 159.146 694.524 159.286C694.198 159.435 693.815 159.51 693.376 159.51ZM703.346 156.5V149.374H704.746V150.284C704.97 149.948 705.245 149.687 705.572 149.5C705.908 149.304 706.286 149.206 706.706 149.206C706.995 149.215 707.233 149.257 707.42 149.332V150.592C707.289 150.536 707.154 150.499 707.014 150.48C706.874 150.452 706.734 150.438 706.594 150.438C706.183 150.438 705.819 150.55 705.502 150.774C705.184 150.989 704.932 151.306 704.746 151.726V156.5H703.346ZM710.508 156.626C709.994 156.626 709.542 156.537 709.15 156.36C708.758 156.173 708.45 155.917 708.226 155.59C708.002 155.263 707.89 154.885 707.89 154.456C707.89 153.784 708.146 153.257 708.66 152.874C709.173 152.482 709.878 152.286 710.774 152.286C711.474 152.286 712.122 152.421 712.72 152.692V151.936C712.72 151.423 712.57 151.04 712.272 150.788C711.982 150.536 711.553 150.41 710.984 150.41C710.657 150.41 710.316 150.461 709.962 150.564C709.607 150.657 709.21 150.807 708.772 151.012L708.254 149.962C708.795 149.71 709.299 149.528 709.766 149.416C710.232 149.295 710.704 149.234 711.18 149.234C712.104 149.234 712.818 149.453 713.322 149.892C713.835 150.331 714.092 150.956 714.092 151.768V156.5H712.72V155.884C712.402 156.136 712.062 156.323 711.698 156.444C711.334 156.565 710.937 156.626 710.508 156.626ZM709.234 154.428C709.234 154.773 709.378 155.053 709.668 155.268C709.966 155.483 710.354 155.59 710.83 155.59C711.203 155.59 711.544 155.534 711.852 155.422C712.169 155.31 712.458 155.137 712.72 154.904V153.7C712.449 153.541 712.164 153.429 711.866 153.364C711.576 153.289 711.25 153.252 710.886 153.252C710.372 153.252 709.966 153.359 709.668 153.574C709.378 153.779 709.234 154.064 709.234 154.428ZM715.705 156.5V149.374H717.105V150.102C717.656 149.523 718.37 149.234 719.247 149.234C719.798 149.234 720.278 149.351 720.689 149.584C721.109 149.817 721.436 150.144 721.669 150.564C721.912 150.984 722.033 151.469 722.033 152.02V156.5H720.633V152.258C720.633 151.698 720.474 151.259 720.157 150.942C719.849 150.615 719.415 150.452 718.855 150.452C718.482 150.452 718.146 150.531 717.847 150.69C717.548 150.849 717.301 151.077 717.105 151.376V156.5H715.705ZM727.176 159.496C726.654 159.496 726.145 159.435 725.65 159.314C725.156 159.193 724.708 159.02 724.306 158.796L724.838 157.704C725.258 157.919 725.65 158.073 726.014 158.166C726.388 158.269 726.761 158.32 727.134 158.32C727.76 158.32 728.231 158.175 728.548 157.886C728.875 157.597 729.038 157.172 729.038 156.612V155.8C728.413 156.295 727.699 156.542 726.896 156.542C726.243 156.542 725.641 156.383 725.09 156.066C724.549 155.739 724.12 155.301 723.802 154.75C723.485 154.19 723.326 153.574 723.326 152.902C723.326 152.221 723.485 151.605 723.802 151.054C724.129 150.494 724.563 150.055 725.104 149.738C725.655 149.411 726.271 149.248 726.952 149.248C727.335 149.248 727.704 149.313 728.058 149.444C728.422 149.565 728.754 149.743 729.052 149.976V149.374H730.438V156.612C730.438 157.536 730.154 158.245 729.584 158.74C729.024 159.244 728.222 159.496 727.176 159.496ZM727.078 155.338C727.489 155.338 727.862 155.268 728.198 155.128C728.534 154.979 728.814 154.769 729.038 154.498V151.306C728.814 151.045 728.53 150.839 728.184 150.69C727.848 150.541 727.48 150.466 727.078 150.466C726.63 150.466 726.224 150.573 725.86 150.788C725.506 151.003 725.221 151.297 725.006 151.67C724.801 152.034 724.698 152.445 724.698 152.902C724.698 153.359 724.801 153.775 725.006 154.148C725.221 154.512 725.506 154.801 725.86 155.016C726.224 155.231 726.63 155.338 727.078 155.338ZM735.5 156.626C734.8 156.626 734.165 156.463 733.596 156.136C733.036 155.809 732.588 155.366 732.252 154.806C731.925 154.246 731.762 153.621 731.762 152.93C731.762 152.249 731.92 151.633 732.238 151.082C732.555 150.522 732.984 150.079 733.526 149.752C734.067 149.416 734.669 149.248 735.332 149.248C735.994 149.248 736.582 149.416 737.096 149.752C737.609 150.079 738.015 150.527 738.314 151.096C738.622 151.656 738.776 152.291 738.776 153V153.392H733.162C733.236 153.784 733.381 154.134 733.596 154.442C733.82 154.75 734.1 154.993 734.436 155.17C734.781 155.347 735.154 155.436 735.556 155.436C735.901 155.436 736.232 155.385 736.55 155.282C736.876 155.17 737.147 155.011 737.362 154.806L738.258 155.688C737.838 156.005 737.404 156.243 736.956 156.402C736.517 156.551 736.032 156.626 735.5 156.626ZM733.176 152.342H737.39C737.334 151.969 737.203 151.642 736.998 151.362C736.802 151.073 736.554 150.849 736.256 150.69C735.966 150.522 735.649 150.438 735.304 150.438C734.949 150.438 734.622 150.517 734.324 150.676C734.025 150.835 733.773 151.059 733.568 151.348C733.372 151.628 733.241 151.959 733.176 152.342Z" fill="#57615E"/>
<path d="M895.947 149.453H891.793H888.053C887.413 149.453 887.093 150.227 887.547 150.68L891 154.133C891.553 154.687 892.453 154.687 893.007 154.133L894.32 152.82L896.46 150.68C896.907 150.227 896.587 149.453 895.947 149.453Z" fill="#57615E"/>
<rect x="940" y="128" width="280" height="48" rx="8" fill="white"/>
<path d="M965.712 156.654C964.984 156.654 964.307 156.528 963.682 156.276C963.066 156.015 962.52 155.655 962.044 155.198C961.577 154.731 961.213 154.195 960.952 153.588C960.7 152.972 960.574 152.309 960.574 151.6C960.574 150.891 960.7 150.233 960.952 149.626C961.213 149.01 961.577 148.473 962.044 148.016C962.52 147.549 963.071 147.19 963.696 146.938C964.321 146.677 964.993 146.546 965.712 146.546C966.225 146.546 966.725 146.616 967.21 146.756C967.705 146.887 968.157 147.078 968.568 147.33C968.988 147.582 969.352 147.885 969.66 148.24L968.68 149.248C968.316 148.809 967.873 148.478 967.35 148.254C966.827 148.021 966.281 147.904 965.712 147.904C965.189 147.904 964.704 147.997 964.256 148.184C963.817 148.371 963.435 148.632 963.108 148.968C962.781 149.295 962.525 149.682 962.338 150.13C962.161 150.578 962.072 151.068 962.072 151.6C962.072 152.123 962.161 152.608 962.338 153.056C962.525 153.504 962.786 153.896 963.122 154.232C963.458 154.568 963.85 154.829 964.298 155.016C964.746 155.203 965.231 155.296 965.754 155.296C966.323 155.296 966.86 155.184 967.364 154.96C967.877 154.727 968.311 154.4 968.666 153.98L969.632 154.96C969.305 155.305 968.932 155.609 968.512 155.87C968.101 156.122 967.653 156.318 967.168 156.458C966.692 156.589 966.207 156.654 965.712 156.654ZM974.085 156.64C973.394 156.64 972.764 156.477 972.195 156.15C971.635 155.823 971.192 155.38 970.865 154.82C970.538 154.26 970.375 153.635 970.375 152.944C970.375 152.253 970.538 151.628 970.865 151.068C971.192 150.508 971.635 150.065 972.195 149.738C972.764 149.402 973.394 149.234 974.085 149.234C974.785 149.234 975.415 149.402 975.975 149.738C976.535 150.065 976.978 150.508 977.305 151.068C977.632 151.628 977.795 152.253 977.795 152.944C977.795 153.635 977.632 154.26 977.305 154.82C976.978 155.38 976.535 155.823 975.975 156.15C975.415 156.477 974.785 156.64 974.085 156.64ZM974.085 155.408C974.524 155.408 974.92 155.301 975.275 155.086C975.63 154.862 975.91 154.563 976.115 154.19C976.32 153.817 976.423 153.397 976.423 152.93C976.423 152.473 976.316 152.062 976.101 151.698C975.896 151.325 975.616 151.026 975.261 150.802C974.916 150.578 974.524 150.466 974.085 150.466C973.646 150.466 973.25 150.578 972.895 150.802C972.55 151.026 972.27 151.325 972.055 151.698C971.85 152.062 971.747 152.473 971.747 152.93C971.747 153.397 971.85 153.817 972.055 154.19C972.26 154.563 972.54 154.862 972.895 155.086C973.25 155.301 973.646 155.408 974.085 155.408ZM979.119 156.5V149.374H980.519V150.06C981.051 149.509 981.718 149.234 982.521 149.234C983.006 149.234 983.436 149.341 983.809 149.556C984.192 149.771 984.495 150.06 984.719 150.424C985.018 150.032 985.368 149.738 985.769 149.542C986.17 149.337 986.623 149.234 987.127 149.234C987.659 149.234 988.121 149.351 988.513 149.584C988.914 149.817 989.227 150.144 989.451 150.564C989.684 150.984 989.801 151.469 989.801 152.02V156.5H988.401V152.258C988.401 151.698 988.252 151.259 987.953 150.942C987.664 150.615 987.267 150.452 986.763 150.452C986.418 150.452 986.105 150.531 985.825 150.69C985.545 150.849 985.302 151.091 985.097 151.418C985.116 151.511 985.13 151.609 985.139 151.712C985.148 151.815 985.153 151.917 985.153 152.02V156.5H983.767V152.258C983.767 151.698 983.618 151.259 983.319 150.942C983.03 150.615 982.633 150.452 982.129 150.452C981.793 150.452 981.49 150.527 981.219 150.676C980.948 150.816 980.715 151.031 980.519 151.32V156.5H979.119ZM991.41 159.356V149.374H992.796V150.06C993.393 149.528 994.121 149.262 994.98 149.262C995.652 149.262 996.259 149.425 996.8 149.752C997.351 150.079 997.785 150.517 998.102 151.068C998.419 151.619 998.578 152.239 998.578 152.93C998.578 153.621 998.415 154.246 998.088 154.806C997.771 155.357 997.337 155.795 996.786 156.122C996.245 156.449 995.633 156.612 994.952 156.612C994.56 156.612 994.182 156.551 993.818 156.43C993.454 156.299 993.118 156.117 992.81 155.884V159.356H991.41ZM994.798 155.394C995.255 155.394 995.661 155.287 996.016 155.072C996.38 154.857 996.669 154.568 996.884 154.204C997.099 153.831 997.206 153.411 997.206 152.944C997.206 152.477 997.099 152.057 996.884 151.684C996.669 151.311 996.38 151.017 996.016 150.802C995.661 150.587 995.255 150.48 994.798 150.48C994.397 150.48 994.023 150.555 993.678 150.704C993.333 150.853 993.043 151.063 992.81 151.334V154.554C993.043 154.815 993.333 155.021 993.678 155.17C994.033 155.319 994.406 155.394 994.798 155.394ZM1002.24 156.626C1001.72 156.626 1001.27 156.537 1000.88 156.36C1000.49 156.173 1000.18 155.917 999.954 155.59C999.73 155.263 999.618 154.885 999.618 154.456C999.618 153.784 999.875 153.257 1000.39 152.874C1000.9 152.482 1001.61 152.286 1002.5 152.286C1003.2 152.286 1003.85 152.421 1004.45 152.692V151.936C1004.45 151.423 1004.3 151.04 1004 150.788C1003.71 150.536 1003.28 150.41 1002.71 150.41C1002.39 150.41 1002.04 150.461 1001.69 150.564C1001.34 150.657 1000.94 150.807 1000.5 151.012L999.982 149.962C1000.52 149.71 1001.03 149.528 1001.49 149.416C1001.96 149.295 1002.43 149.234 1002.91 149.234C1003.83 149.234 1004.55 149.453 1005.05 149.892C1005.56 150.331 1005.82 150.956 1005.82 151.768V156.5H1004.45V155.884C1004.13 156.136 1003.79 156.323 1003.43 156.444C1003.06 156.565 1002.67 156.626 1002.24 156.626ZM1000.96 154.428C1000.96 154.773 1001.11 155.053 1001.4 155.268C1001.69 155.483 1002.08 155.59 1002.56 155.59C1002.93 155.59 1003.27 155.534 1003.58 155.422C1003.9 155.31 1004.19 155.137 1004.45 154.904V153.7C1004.18 153.541 1003.89 153.429 1003.59 153.364C1003.3 153.289 1002.98 153.252 1002.61 153.252C1002.1 153.252 1001.69 153.359 1001.4 153.574C1001.11 153.779 1000.96 154.064 1000.96 154.428ZM1007.43 156.5V149.374H1008.83V150.102C1009.38 149.523 1010.1 149.234 1010.98 149.234C1011.53 149.234 1012.01 149.351 1012.42 149.584C1012.84 149.817 1013.16 150.144 1013.4 150.564C1013.64 150.984 1013.76 151.469 1013.76 152.02V156.5H1012.36V152.258C1012.36 151.698 1012.2 151.259 1011.89 150.942C1011.58 150.615 1011.14 150.452 1010.58 150.452C1010.21 150.452 1009.87 150.531 1009.58 150.69C1009.28 150.849 1009.03 151.077 1008.83 151.376V156.5H1007.43ZM1015.72 159.51C1015.57 159.51 1015.43 159.501 1015.3 159.482C1015.17 159.473 1015.06 159.454 1014.97 159.426V158.194C1015.14 158.231 1015.35 158.25 1015.59 158.25C1016.24 158.25 1016.71 157.9 1017 157.2L1017.31 156.514L1014.46 149.374H1016.01L1018.08 154.806L1020.38 149.374H1021.89L1018.45 157.382C1018.22 157.886 1017.98 158.292 1017.73 158.6C1017.48 158.917 1017.19 159.146 1016.86 159.286C1016.54 159.435 1016.15 159.51 1015.72 159.51ZM1028.14 156.64C1027.52 156.64 1026.94 156.551 1026.4 156.374C1025.87 156.187 1025.41 155.926 1025.01 155.59L1025.78 154.666C1026.15 154.955 1026.52 155.179 1026.9 155.338C1027.3 155.487 1027.69 155.562 1028.09 155.562C1028.6 155.562 1029.01 155.464 1029.33 155.268C1029.64 155.072 1029.8 154.815 1029.8 154.498C1029.8 154.237 1029.71 154.031 1029.52 153.882C1029.33 153.733 1029.05 153.63 1028.65 153.574L1027.37 153.392C1026.66 153.289 1026.12 153.07 1025.77 152.734C1025.41 152.398 1025.24 151.95 1025.24 151.39C1025.24 150.961 1025.35 150.587 1025.59 150.27C1025.82 149.943 1026.15 149.691 1026.57 149.514C1026.99 149.327 1027.48 149.234 1028.04 149.234C1028.55 149.234 1029.05 149.309 1029.52 149.458C1030 149.607 1030.45 149.841 1030.89 150.158L1030.18 151.082C1029.79 150.821 1029.4 150.629 1029.03 150.508C1028.67 150.387 1028.3 150.326 1027.93 150.326C1027.5 150.326 1027.15 150.419 1026.89 150.606C1026.63 150.783 1026.5 151.017 1026.5 151.306C1026.5 151.567 1026.59 151.773 1026.76 151.922C1026.95 152.062 1027.25 152.16 1027.67 152.216L1028.96 152.398C1029.67 152.501 1030.21 152.72 1030.57 153.056C1030.94 153.383 1031.12 153.826 1031.12 154.386C1031.12 154.815 1030.99 155.203 1030.73 155.548C1030.46 155.884 1030.11 156.15 1029.66 156.346C1029.21 156.542 1028.7 156.64 1028.14 156.64ZM1032.19 156.5V149.374H1033.59V156.5H1032.19ZM1032.89 148.226C1032.66 148.226 1032.46 148.142 1032.29 147.974C1032.12 147.797 1032.04 147.591 1032.04 147.358C1032.04 147.115 1032.12 146.915 1032.29 146.756C1032.46 146.588 1032.66 146.504 1032.89 146.504C1033.14 146.504 1033.34 146.588 1033.51 146.756C1033.68 146.915 1033.76 147.115 1033.76 147.358C1033.76 147.591 1033.68 147.797 1033.51 147.974C1033.34 148.142 1033.14 148.226 1032.89 148.226ZM1034.82 156.5V155.464L1038.83 150.578H1034.86V149.374H1040.58V150.396L1036.57 155.296H1040.65V156.5H1034.82ZM1045.12 156.626C1044.42 156.626 1043.79 156.463 1043.22 156.136C1042.66 155.809 1042.21 155.366 1041.88 154.806C1041.55 154.246 1041.39 153.621 1041.39 152.93C1041.39 152.249 1041.55 151.633 1041.86 151.082C1042.18 150.522 1042.61 150.079 1043.15 149.752C1043.69 149.416 1044.29 149.248 1044.96 149.248C1045.62 149.248 1046.21 149.416 1046.72 149.752C1047.23 150.079 1047.64 150.527 1047.94 151.096C1048.25 151.656 1048.4 152.291 1048.4 153V153.392H1042.79C1042.86 153.784 1043.01 154.134 1043.22 154.442C1043.44 154.75 1043.72 154.993 1044.06 155.17C1044.41 155.347 1044.78 155.436 1045.18 155.436C1045.53 155.436 1045.86 155.385 1046.17 155.282C1046.5 155.17 1046.77 155.011 1046.99 154.806L1047.88 155.688C1047.46 156.005 1047.03 156.243 1046.58 156.402C1046.14 156.551 1045.66 156.626 1045.12 156.626ZM1042.8 152.342H1047.01C1046.96 151.969 1046.83 151.642 1046.62 151.362C1046.43 151.073 1046.18 150.849 1045.88 150.69C1045.59 150.522 1045.27 150.438 1044.93 150.438C1044.57 150.438 1044.25 150.517 1043.95 150.676C1043.65 150.835 1043.4 151.059 1043.19 151.348C1043 151.628 1042.87 151.959 1042.8 152.342Z" fill="#57615E"/>
<path d="M1195.95 149.453H1191.79H1188.05C1187.41 149.453 1187.09 150.227 1187.55 150.68L1191 154.133C1191.55 154.687 1192.45 154.687 1193.01 154.133L1194.32 152.82L1196.46 150.68C1196.91 150.227 1196.59 149.453 1195.95 149.453Z" fill="#57615E"/>
<rect x="482.5" y="208" width="295" height="48" rx="8" fill="#008552"/>
<path d="M596.382 236.64C595.589 236.64 594.814 236.495 594.058 236.206C593.302 235.907 592.63 235.487 592.042 234.946L593.204 233.49C593.773 233.994 594.319 234.358 594.842 234.582C595.374 234.806 595.934 234.918 596.522 234.918C596.933 234.918 597.287 234.871 597.586 234.778C597.885 234.675 598.113 234.531 598.272 234.344C598.44 234.157 598.524 233.938 598.524 233.686C598.524 233.35 598.403 233.093 598.16 232.916C597.917 232.729 597.502 232.585 596.914 232.482L594.968 232.146C594.137 232.006 593.503 231.712 593.064 231.264C592.635 230.816 592.42 230.237 592.42 229.528C592.42 228.921 592.574 228.394 592.882 227.946C593.199 227.498 593.643 227.157 594.212 226.924C594.791 226.681 595.477 226.56 596.27 226.56C596.989 226.56 597.703 226.681 598.412 226.924C599.131 227.167 599.765 227.503 600.316 227.932L599.224 229.444C598.197 228.66 597.166 228.268 596.13 228.268C595.766 228.268 595.449 228.315 595.178 228.408C594.907 228.501 594.697 228.632 594.548 228.8C594.408 228.959 594.338 229.15 594.338 229.374C594.338 229.673 594.445 229.906 594.66 230.074C594.875 230.233 595.234 230.354 595.738 230.438L597.586 230.746C598.566 230.905 599.299 231.217 599.784 231.684C600.269 232.141 600.512 232.748 600.512 233.504C600.512 234.139 600.344 234.694 600.008 235.17C599.672 235.637 599.191 236.001 598.566 236.262C597.95 236.514 597.222 236.64 596.382 236.64ZM605.295 236.64C604.567 236.64 603.904 236.472 603.307 236.136C602.719 235.8 602.252 235.347 601.907 234.778C601.561 234.209 601.389 233.569 601.389 232.86C601.389 232.151 601.552 231.511 601.879 230.942C602.215 230.373 602.667 229.92 603.237 229.584C603.806 229.248 604.441 229.08 605.141 229.08C605.841 229.08 606.461 229.253 607.003 229.598C607.544 229.943 607.969 230.41 608.277 230.998C608.594 231.586 608.753 232.253 608.753 233V233.504H603.349C603.433 233.793 603.568 234.055 603.755 234.288C603.951 234.521 604.189 234.703 604.469 234.834C604.758 234.965 605.066 235.03 605.393 235.03C605.719 235.03 606.018 234.979 606.289 234.876C606.569 234.773 606.807 234.629 607.003 234.442L608.263 235.59C607.815 235.954 607.353 236.22 606.877 236.388C606.41 236.556 605.883 236.64 605.295 236.64ZM603.321 232.132H606.863C606.797 231.843 606.676 231.591 606.499 231.376C606.331 231.152 606.125 230.979 605.883 230.858C605.649 230.727 605.388 230.662 605.099 230.662C604.8 230.662 604.529 230.723 604.287 230.844C604.044 230.965 603.839 231.138 603.671 231.362C603.512 231.577 603.395 231.833 603.321 232.132ZM612.211 236.626C611.688 236.626 611.226 236.533 610.825 236.346C610.424 236.15 610.111 235.884 609.887 235.548C609.663 235.212 609.551 234.825 609.551 234.386C609.551 233.686 609.812 233.145 610.335 232.762C610.867 232.37 611.595 232.174 612.519 232.174C613.154 232.174 613.751 232.272 614.311 232.468V231.936C614.311 231.516 614.18 231.199 613.919 230.984C613.658 230.769 613.275 230.662 612.771 230.662C612.463 230.662 612.132 230.713 611.777 230.816C611.422 230.909 611.012 231.059 610.545 231.264L609.845 229.85C610.424 229.589 610.974 229.393 611.497 229.262C612.029 229.131 612.561 229.066 613.093 229.066C614.073 229.066 614.834 229.304 615.375 229.78C615.926 230.247 616.201 230.909 616.201 231.768V236.5H614.311V235.982C614.012 236.206 613.69 236.369 613.345 236.472C613 236.575 612.622 236.626 612.211 236.626ZM611.371 234.344C611.371 234.624 611.492 234.848 611.735 235.016C611.978 235.175 612.3 235.254 612.701 235.254C613.018 235.254 613.312 235.217 613.583 235.142C613.854 235.058 614.096 234.937 614.311 234.778V233.714C614.078 233.621 613.835 233.551 613.583 233.504C613.331 233.457 613.06 233.434 612.771 233.434C612.332 233.434 611.987 233.518 611.735 233.686C611.492 233.845 611.371 234.064 611.371 234.344ZM617.652 236.5V229.206H619.57V230.018C619.804 229.701 620.084 229.458 620.41 229.29C620.737 229.122 621.106 229.038 621.516 229.038C621.871 229.047 622.137 229.103 622.314 229.206V230.886C622.174 230.821 622.02 230.774 621.852 230.746C621.684 230.709 621.512 230.69 621.334 230.69C620.961 230.69 620.62 230.783 620.312 230.97C620.004 231.157 619.757 231.423 619.57 231.768V236.5H617.652ZM626.566 236.64C625.848 236.64 625.199 236.477 624.62 236.15C624.042 235.814 623.584 235.361 623.248 234.792C622.912 234.213 622.744 233.569 622.744 232.86C622.744 232.141 622.912 231.497 623.248 230.928C623.584 230.359 624.042 229.906 624.62 229.57C625.199 229.234 625.848 229.066 626.566 229.066C627.145 229.066 627.696 229.178 628.218 229.402C628.75 229.626 629.208 229.948 629.59 230.368L628.414 231.614C628.144 231.315 627.859 231.096 627.56 230.956C627.271 230.807 626.954 230.732 626.608 230.732C626.235 230.732 625.899 230.825 625.6 231.012C625.311 231.199 625.078 231.451 624.9 231.768C624.732 232.085 624.648 232.449 624.648 232.86C624.648 233.252 624.732 233.611 624.9 233.938C625.078 234.255 625.32 234.507 625.628 234.694C625.936 234.871 626.277 234.96 626.65 234.96C626.977 234.96 627.28 234.895 627.56 234.764C627.85 234.624 628.125 234.419 628.386 234.148L629.534 235.352C629.161 235.753 628.713 236.071 628.19 236.304C627.668 236.528 627.126 236.64 626.566 236.64ZM630.531 236.5V226.7L632.449 226.28V229.808C633 229.313 633.681 229.066 634.493 229.066C635.063 229.066 635.562 229.192 635.991 229.444C636.43 229.687 636.771 230.027 637.013 230.466C637.256 230.895 637.377 231.399 637.377 231.978V236.5H635.459V232.258C635.459 231.782 635.324 231.409 635.053 231.138C634.783 230.858 634.414 230.718 633.947 230.718C633.621 230.718 633.331 230.783 633.079 230.914C632.827 231.035 632.617 231.213 632.449 231.446V236.5H630.531ZM645.091 236.64C644.111 236.64 643.28 236.393 642.599 235.898C641.917 235.403 641.427 234.694 641.129 233.77L643.005 233.056C643.21 233.653 643.481 234.092 643.817 234.372C644.162 234.652 644.587 234.792 645.091 234.792C645.697 234.792 646.183 234.596 646.547 234.204C646.92 233.812 647.107 233.289 647.107 232.636V226.7H649.137V232.692C649.137 233.485 648.969 234.181 648.633 234.778C648.297 235.366 647.825 235.823 647.219 236.15C646.612 236.477 645.903 236.64 645.091 236.64ZM654.171 236.64C653.443 236.64 652.785 236.472 652.197 236.136C651.609 235.8 651.143 235.347 650.797 234.778C650.452 234.209 650.279 233.569 650.279 232.86C650.279 232.151 650.447 231.511 650.783 230.942C651.129 230.363 651.595 229.906 652.183 229.57C652.781 229.234 653.443 229.066 654.171 229.066C654.899 229.066 655.557 229.234 656.145 229.57C656.743 229.906 657.209 230.363 657.545 230.942C657.891 231.511 658.063 232.151 658.063 232.86C658.063 233.569 657.891 234.209 657.545 234.778C657.209 235.347 656.747 235.8 656.159 236.136C655.571 236.472 654.909 236.64 654.171 236.64ZM654.171 234.974C654.554 234.974 654.895 234.881 655.193 234.694C655.501 234.507 655.744 234.255 655.921 233.938C656.108 233.611 656.201 233.252 656.201 232.86C656.201 232.459 656.108 232.099 655.921 231.782C655.744 231.465 655.501 231.213 655.193 231.026C654.895 230.83 654.554 230.732 654.171 230.732C653.798 230.732 653.457 230.83 653.149 231.026C652.841 231.213 652.599 231.465 652.421 231.782C652.244 232.099 652.155 232.459 652.155 232.86C652.155 233.252 652.244 233.611 652.421 233.938C652.599 234.255 652.841 234.507 653.149 234.694C653.457 234.881 653.798 234.974 654.171 234.974ZM659.242 236.5V226.7L661.16 226.378V229.794C661.739 229.337 662.42 229.108 663.204 229.108C663.895 229.108 664.52 229.276 665.08 229.612C665.64 229.948 666.084 230.401 666.41 230.97C666.746 231.53 666.914 232.16 666.914 232.86C666.914 233.56 666.746 234.195 666.41 234.764C666.074 235.324 665.622 235.772 665.052 236.108C664.483 236.435 663.848 236.598 663.148 236.598C662.784 236.598 662.43 236.547 662.084 236.444C661.739 236.341 661.422 236.192 661.132 235.996V236.5H659.242ZM662.896 234.974C663.298 234.974 663.657 234.881 663.974 234.694C664.301 234.507 664.558 234.255 664.744 233.938C664.931 233.621 665.024 233.261 665.024 232.86C665.024 232.459 664.931 232.099 664.744 231.782C664.558 231.455 664.301 231.203 663.974 231.026C663.657 230.839 663.298 230.746 662.896 230.746C662.542 230.746 662.215 230.807 661.916 230.928C661.627 231.04 661.375 231.213 661.16 231.446V234.288C661.366 234.503 661.618 234.671 661.916 234.792C662.224 234.913 662.551 234.974 662.896 234.974Z" fill="white"/>
</svg>
