<svg width="335" height="352" viewBox="0 0 335 352" fill="none" xmlns="http://www.w3.org/2000/svg">
<rect width="335" height="352" fill="#E6F3EE"/>
<path d="M16 28C16 23.5817 19.5817 20 24 20H154.5C158.918 20 162.5 23.5817 162.5 28V60C162.5 64.4183 158.918 68 154.5 68H24C19.5817 68 16 64.4183 16 60V28Z" fill="white"/>
<path d="M31.396 47.132C30.62 47.132 29.956 46.936 29.404 46.544C28.852 46.144 28.452 45.58 28.204 44.852L29.356 44.396C29.556 44.932 29.824 45.332 30.16 45.596C30.504 45.852 30.916 45.98 31.396 45.98C32.02 45.98 32.516 45.78 32.884 45.38C33.26 44.98 33.448 44.444 33.448 43.772V38.6H34.708V43.796C34.708 44.468 34.572 45.056 34.3 45.56C34.028 46.056 33.644 46.444 33.148 46.724C32.652 46.996 32.068 47.132 31.396 47.132ZM39.0183 47.12C38.4263 47.12 37.8863 46.98 37.3983 46.7C36.9183 46.42 36.5383 46.04 36.2583 45.56C35.9783 45.08 35.8383 44.544 35.8383 43.952C35.8383 43.36 35.9783 42.824 36.2583 42.344C36.5383 41.864 36.9183 41.484 37.3983 41.204C37.8863 40.916 38.4263 40.772 39.0183 40.772C39.6183 40.772 40.1583 40.916 40.6383 41.204C41.1183 41.484 41.4983 41.864 41.7783 42.344C42.0583 42.824 42.1983 43.36 42.1983 43.952C42.1983 44.544 42.0583 45.08 41.7783 45.56C41.4983 46.04 41.1183 46.42 40.6383 46.7C40.1583 46.98 39.6183 47.12 39.0183 47.12ZM39.0183 46.064C39.3943 46.064 39.7343 45.972 40.0383 45.788C40.3423 45.596 40.5823 45.34 40.7583 45.02C40.9343 44.7 41.0223 44.34 41.0223 43.94C41.0223 43.548 40.9303 43.196 40.7463 42.884C40.5703 42.564 40.3303 42.308 40.0263 42.116C39.7303 41.924 39.3943 41.828 39.0183 41.828C38.6423 41.828 38.3023 41.924 37.9983 42.116C37.7023 42.308 37.4623 42.564 37.2783 42.884C37.1023 43.196 37.0143 43.548 37.0143 43.94C37.0143 44.34 37.1023 44.7 37.2783 45.02C37.4543 45.34 37.6943 45.596 37.9983 45.788C38.3023 45.972 38.6423 46.064 39.0183 46.064ZM43.333 47V38.6L44.533 38.372V41.468C45.045 41.02 45.665 40.796 46.393 40.796C46.969 40.796 47.489 40.936 47.953 41.216C48.425 41.496 48.797 41.872 49.069 42.344C49.341 42.816 49.477 43.348 49.477 43.94C49.477 44.532 49.337 45.068 49.057 45.548C48.785 46.02 48.413 46.396 47.941 46.676C47.477 46.956 46.953 47.096 46.369 47.096C46.033 47.096 45.705 47.044 45.385 46.94C45.073 46.828 44.785 46.672 44.521 46.472V47H43.333ZM46.237 46.052C46.629 46.052 46.977 45.96 47.281 45.776C47.593 45.592 47.841 45.344 48.025 45.032C48.209 44.712 48.301 44.352 48.301 43.952C48.301 43.552 48.209 43.192 48.025 42.872C47.841 42.552 47.593 42.3 47.281 42.116C46.977 41.932 46.629 41.84 46.237 41.84C45.893 41.84 45.573 41.904 45.277 42.032C44.981 42.16 44.733 42.34 44.533 42.572V45.332C44.733 45.556 44.981 45.732 45.277 45.86C45.581 45.988 45.901 46.052 46.237 46.052ZM55.5779 47V39.716H52.6259V38.6H59.7899V39.716H56.8379V47H55.5779ZM60.7002 47V40.892H61.9002V47H60.7002ZM61.3002 39.908C61.1002 39.908 60.9282 39.836 60.7842 39.692C60.6402 39.54 60.5682 39.364 60.5682 39.164C60.5682 38.956 60.6402 38.784 60.7842 38.648C60.9282 38.504 61.1002 38.432 61.3002 38.432C61.5082 38.432 61.6842 38.504 61.8282 38.648C61.9722 38.784 62.0442 38.956 62.0442 39.164C62.0442 39.364 61.9722 39.54 61.8282 39.692C61.6842 39.836 61.5082 39.908 61.3002 39.908ZM65.9295 47.108C65.3375 47.108 64.8855 46.972 64.5735 46.7C64.2615 46.42 64.1055 46.016 64.1055 45.488V41.9H62.8095V40.892H64.1055V39.332L65.2935 39.044V40.892H67.0935V41.9H65.2935V45.212C65.2935 45.524 65.3615 45.748 65.4975 45.884C65.6415 46.012 65.8735 46.076 66.1935 46.076C66.3615 46.076 66.5095 46.064 66.6375 46.04C66.7735 46.016 66.9175 45.98 67.0695 45.932V46.94C66.9095 46.996 66.7215 47.036 66.5055 47.06C66.2975 47.092 66.1055 47.108 65.9295 47.108ZM67.9775 47V38.6L69.1775 38.372V47H67.9775ZM73.5188 47.108C72.9188 47.108 72.3748 46.968 71.8868 46.688C71.4068 46.408 71.0228 46.028 70.7348 45.548C70.4548 45.068 70.3148 44.532 70.3148 43.94C70.3148 43.356 70.4508 42.828 70.7228 42.356C70.9948 41.876 71.3628 41.496 71.8268 41.216C72.2908 40.928 72.8068 40.784 73.3748 40.784C73.9428 40.784 74.4468 40.928 74.8868 41.216C75.3268 41.496 75.6748 41.88 75.9308 42.368C76.1948 42.848 76.3268 43.392 76.3268 44V44.336H71.5148C71.5788 44.672 71.7028 44.972 71.8868 45.236C72.0788 45.5 72.3188 45.708 72.6068 45.86C72.9028 46.012 73.2228 46.088 73.5668 46.088C73.8628 46.088 74.1468 46.044 74.4188 45.956C74.6988 45.86 74.9308 45.724 75.1148 45.548L75.8828 46.304C75.5228 46.576 75.1508 46.78 74.7668 46.916C74.3908 47.044 73.9748 47.108 73.5188 47.108ZM71.5268 43.436H75.1388C75.0908 43.116 74.9788 42.836 74.8028 42.596C74.6348 42.348 74.4228 42.156 74.1668 42.02C73.9188 41.876 73.6468 41.804 73.3508 41.804C73.0468 41.804 72.7668 41.872 72.5108 42.008C72.2548 42.144 72.0388 42.336 71.8628 42.584C71.6948 42.824 71.5828 43.108 71.5268 43.436Z" fill="#57615E"/>
<path d="M146.447 40.4534H142.293H138.553C137.913 40.4534 137.593 41.2267 138.047 41.68L141.5 45.1334C142.053 45.6867 142.953 45.6867 143.507 45.1334L144.82 43.82L146.96 41.68C147.407 41.2267 147.087 40.4534 146.447 40.4534Z" fill="#57615E"/>
<rect x="172.5" y="20" width="146.5" height="48" rx="8" fill="white"/>
<path d="M185.352 48V39.6H189.156C189.716 39.6 190.204 39.704 190.62 39.912C191.044 40.12 191.372 40.412 191.604 40.788C191.844 41.156 191.964 41.588 191.964 42.084C191.964 42.636 191.808 43.112 191.496 43.512C191.184 43.912 190.764 44.2 190.236 44.376L192.108 48H190.716L188.976 44.556H186.612V48H185.352ZM186.612 43.5H189.06C189.556 43.5 189.952 43.376 190.248 43.128C190.552 42.872 190.704 42.528 190.704 42.096C190.704 41.68 190.552 41.344 190.248 41.088C189.952 40.832 189.556 40.704 189.06 40.704H186.612V43.5ZM195.683 48.108C195.083 48.108 194.539 47.968 194.051 47.688C193.571 47.408 193.187 47.028 192.899 46.548C192.619 46.068 192.479 45.532 192.479 44.94C192.479 44.356 192.615 43.828 192.887 43.356C193.159 42.876 193.527 42.496 193.991 42.216C194.455 41.928 194.971 41.784 195.539 41.784C196.107 41.784 196.611 41.928 197.051 42.216C197.491 42.496 197.839 42.88 198.095 43.368C198.359 43.848 198.491 44.392 198.491 45V45.336H193.679C193.743 45.672 193.867 45.972 194.051 46.236C194.243 46.5 194.483 46.708 194.771 46.86C195.067 47.012 195.387 47.088 195.731 47.088C196.027 47.088 196.311 47.044 196.583 46.956C196.863 46.86 197.095 46.724 197.279 46.548L198.047 47.304C197.687 47.576 197.315 47.78 196.931 47.916C196.555 48.044 196.139 48.108 195.683 48.108ZM193.691 44.436H197.303C197.255 44.116 197.143 43.836 196.967 43.596C196.799 43.348 196.587 43.156 196.331 43.02C196.083 42.876 195.811 42.804 195.515 42.804C195.211 42.804 194.931 42.872 194.675 43.008C194.419 43.144 194.203 43.336 194.027 43.584C193.859 43.824 193.747 44.108 193.691 44.436ZM199.634 48V41.892H200.834V42.48C201.29 42.008 201.862 41.772 202.55 41.772C202.966 41.772 203.334 41.864 203.654 42.048C203.982 42.232 204.242 42.48 204.434 42.792C204.69 42.456 204.99 42.204 205.334 42.036C205.678 41.86 206.066 41.772 206.498 41.772C206.954 41.772 207.35 41.872 207.686 42.072C208.03 42.272 208.298 42.552 208.49 42.912C208.69 43.272 208.79 43.688 208.79 44.16V48H207.59V44.364C207.59 43.884 207.462 43.508 207.206 43.236C206.958 42.956 206.618 42.816 206.186 42.816C205.89 42.816 205.622 42.884 205.382 43.02C205.142 43.156 204.934 43.364 204.758 43.644C204.774 43.724 204.786 43.808 204.794 43.896C204.802 43.984 204.806 44.072 204.806 44.16V48H203.618V44.364C203.618 43.884 203.49 43.508 203.234 43.236C202.986 42.956 202.646 42.816 202.214 42.816C201.926 42.816 201.666 42.88 201.434 43.008C201.202 43.128 201.002 43.312 200.834 43.56V48H199.634ZM213.073 48.12C212.481 48.12 211.941 47.98 211.453 47.7C210.973 47.42 210.593 47.04 210.313 46.56C210.033 46.08 209.893 45.544 209.893 44.952C209.893 44.36 210.033 43.824 210.313 43.344C210.593 42.864 210.973 42.484 211.453 42.204C211.941 41.916 212.481 41.772 213.073 41.772C213.673 41.772 214.213 41.916 214.693 42.204C215.173 42.484 215.553 42.864 215.833 43.344C216.113 43.824 216.253 44.36 216.253 44.952C216.253 45.544 216.113 46.08 215.833 46.56C215.553 47.04 215.173 47.42 214.693 47.7C214.213 47.98 213.673 48.12 213.073 48.12ZM213.073 47.064C213.449 47.064 213.789 46.972 214.093 46.788C214.397 46.596 214.637 46.34 214.813 46.02C214.989 45.7 215.077 45.34 215.077 44.94C215.077 44.548 214.985 44.196 214.801 43.884C214.625 43.564 214.385 43.308 214.081 43.116C213.785 42.924 213.449 42.828 213.073 42.828C212.697 42.828 212.357 42.924 212.053 43.116C211.757 43.308 211.517 43.564 211.333 43.884C211.157 44.196 211.069 44.548 211.069 44.94C211.069 45.34 211.157 45.7 211.333 46.02C211.509 46.34 211.749 46.596 212.053 46.788C212.357 46.972 212.697 47.064 213.073 47.064ZM219.652 48.108C219.06 48.108 218.608 47.972 218.296 47.7C217.984 47.42 217.828 47.016 217.828 46.488V42.9H216.532V41.892H217.828V40.332L219.016 40.044V41.892H220.816V42.9H219.016V46.212C219.016 46.524 219.084 46.748 219.22 46.884C219.364 47.012 219.596 47.076 219.916 47.076C220.084 47.076 220.232 47.064 220.36 47.04C220.496 47.016 220.64 46.98 220.792 46.932V47.94C220.632 47.996 220.444 48.036 220.228 48.06C220.02 48.092 219.828 48.108 219.652 48.108ZM224.534 48.108C223.934 48.108 223.39 47.968 222.902 47.688C222.422 47.408 222.038 47.028 221.75 46.548C221.47 46.068 221.33 45.532 221.33 44.94C221.33 44.356 221.466 43.828 221.738 43.356C222.01 42.876 222.378 42.496 222.842 42.216C223.306 41.928 223.822 41.784 224.39 41.784C224.958 41.784 225.462 41.928 225.902 42.216C226.342 42.496 226.69 42.88 226.946 43.368C227.21 43.848 227.342 44.392 227.342 45V45.336H222.53C222.594 45.672 222.718 45.972 222.902 46.236C223.094 46.5 223.334 46.708 223.622 46.86C223.918 47.012 224.238 47.088 224.582 47.088C224.878 47.088 225.162 47.044 225.434 46.956C225.714 46.86 225.946 46.724 226.13 46.548L226.898 47.304C226.538 47.576 226.166 47.78 225.782 47.916C225.406 48.044 224.99 48.108 224.534 48.108ZM222.542 44.436H226.154C226.106 44.116 225.994 43.836 225.818 43.596C225.65 43.348 225.438 43.156 225.182 43.02C224.934 42.876 224.662 42.804 224.366 42.804C224.062 42.804 223.782 42.872 223.526 43.008C223.27 43.144 223.054 43.336 222.878 43.584C222.71 43.824 222.598 44.108 222.542 44.436Z" fill="#57615E"/>
<path d="M302.947 41.4534H298.793H295.053C294.413 41.4534 294.093 42.2267 294.547 42.68L298 46.1334C298.553 46.6867 299.453 46.6867 300.007 46.1334L301.32 44.82L303.46 42.68C303.907 42.2267 303.587 41.4534 302.947 41.4534Z" fill="#57615E"/>
<path d="M16 92C16 87.5817 19.5817 84 24 84H154.5C158.918 84 162.5 87.5817 162.5 92V124C162.5 128.418 158.918 132 154.5 132H24C19.5817 132 16 128.418 16 124V92Z" fill="white"/>
<path d="M31.396 112.132C30.62 112.132 29.956 111.936 29.404 111.544C28.852 111.144 28.452 110.58 28.204 109.852L29.356 109.396C29.556 109.932 29.824 110.332 30.16 110.596C30.504 110.852 30.916 110.98 31.396 110.98C32.02 110.98 32.516 110.78 32.884 110.38C33.26 109.98 33.448 109.444 33.448 108.772V103.6H34.708V108.796C34.708 109.468 34.572 110.056 34.3 110.56C34.028 111.056 33.644 111.444 33.148 111.724C32.652 111.996 32.068 112.132 31.396 112.132ZM39.0183 112.12C38.4263 112.12 37.8863 111.98 37.3983 111.7C36.9183 111.42 36.5383 111.04 36.2583 110.56C35.9783 110.08 35.8383 109.544 35.8383 108.952C35.8383 108.36 35.9783 107.824 36.2583 107.344C36.5383 106.864 36.9183 106.484 37.3983 106.204C37.8863 105.916 38.4263 105.772 39.0183 105.772C39.6183 105.772 40.1583 105.916 40.6383 106.204C41.1183 106.484 41.4983 106.864 41.7783 107.344C42.0583 107.824 42.1983 108.36 42.1983 108.952C42.1983 109.544 42.0583 110.08 41.7783 110.56C41.4983 111.04 41.1183 111.42 40.6383 111.7C40.1583 111.98 39.6183 112.12 39.0183 112.12ZM39.0183 111.064C39.3943 111.064 39.7343 110.972 40.0383 110.788C40.3423 110.596 40.5823 110.34 40.7583 110.02C40.9343 109.7 41.0223 109.34 41.0223 108.94C41.0223 108.548 40.9303 108.196 40.7463 107.884C40.5703 107.564 40.3303 107.308 40.0263 107.116C39.7303 106.924 39.3943 106.828 39.0183 106.828C38.6423 106.828 38.3023 106.924 37.9983 107.116C37.7023 107.308 37.4623 107.564 37.2783 107.884C37.1023 108.196 37.0143 108.548 37.0143 108.94C37.0143 109.34 37.1023 109.7 37.2783 110.02C37.4543 110.34 37.6943 110.596 37.9983 110.788C38.3023 110.972 38.6423 111.064 39.0183 111.064ZM43.333 112V103.6L44.533 103.372V106.468C45.045 106.02 45.665 105.796 46.393 105.796C46.969 105.796 47.489 105.936 47.953 106.216C48.425 106.496 48.797 106.872 49.069 107.344C49.341 107.816 49.477 108.348 49.477 108.94C49.477 109.532 49.337 110.068 49.057 110.548C48.785 111.02 48.413 111.396 47.941 111.676C47.477 111.956 46.953 112.096 46.369 112.096C46.033 112.096 45.705 112.044 45.385 111.94C45.073 111.828 44.785 111.672 44.521 111.472V112H43.333ZM46.237 111.052C46.629 111.052 46.977 110.96 47.281 110.776C47.593 110.592 47.841 110.344 48.025 110.032C48.209 109.712 48.301 109.352 48.301 108.952C48.301 108.552 48.209 108.192 48.025 107.872C47.841 107.552 47.593 107.3 47.281 107.116C46.977 106.932 46.629 106.84 46.237 106.84C45.893 106.84 45.573 106.904 45.277 107.032C44.981 107.16 44.733 107.34 44.533 107.572V110.332C44.733 110.556 44.981 110.732 45.277 110.86C45.581 110.988 45.901 111.052 46.237 111.052ZM55.5779 112V104.716H52.6259V103.6H59.7899V104.716H56.8379V112H55.5779ZM60.4637 114.58C60.3357 114.58 60.2157 114.572 60.1037 114.556C59.9917 114.548 59.8997 114.532 59.8277 114.508V113.452C59.9717 113.484 60.1477 113.5 60.3557 113.5C60.9157 113.5 61.3197 113.2 61.5677 112.6L61.8317 112.012L59.3837 105.892H60.7157L62.4917 110.548L64.4597 105.892H65.7557L62.8037 112.756C62.6117 113.188 62.4077 113.536 62.1917 113.8C61.9757 114.072 61.7277 114.268 61.4477 114.388C61.1677 114.516 60.8397 114.58 60.4637 114.58ZM66.501 114.448V105.892H67.689V106.48C68.201 106.024 68.825 105.796 69.561 105.796C70.137 105.796 70.657 105.936 71.121 106.216C71.593 106.496 71.965 106.872 72.237 107.344C72.509 107.816 72.645 108.348 72.645 108.94C72.645 109.532 72.505 110.068 72.225 110.548C71.953 111.02 71.581 111.396 71.109 111.676C70.645 111.956 70.121 112.096 69.537 112.096C69.201 112.096 68.877 112.044 68.565 111.94C68.253 111.828 67.965 111.672 67.701 111.472V114.448H66.501ZM69.405 111.052C69.797 111.052 70.145 110.96 70.449 110.776C70.761 110.592 71.009 110.344 71.193 110.032C71.377 109.712 71.469 109.352 71.469 108.952C71.469 108.552 71.377 108.192 71.193 107.872C71.009 107.552 70.761 107.3 70.449 107.116C70.145 106.932 69.797 106.84 69.405 106.84C69.061 106.84 68.741 106.904 68.445 107.032C68.149 107.16 67.901 107.34 67.701 107.572V110.332C67.901 110.556 68.149 110.732 68.445 110.86C68.749 110.988 69.069 111.052 69.405 111.052ZM76.718 112.108C76.118 112.108 75.574 111.968 75.086 111.688C74.606 111.408 74.222 111.028 73.934 110.548C73.654 110.068 73.514 109.532 73.514 108.94C73.514 108.356 73.65 107.828 73.922 107.356C74.194 106.876 74.562 106.496 75.026 106.216C75.49 105.928 76.006 105.784 76.574 105.784C77.142 105.784 77.646 105.928 78.086 106.216C78.526 106.496 78.874 106.88 79.13 107.368C79.394 107.848 79.526 108.392 79.526 109V109.336H74.714C74.778 109.672 74.902 109.972 75.086 110.236C75.278 110.5 75.518 110.708 75.806 110.86C76.102 111.012 76.422 111.088 76.766 111.088C77.062 111.088 77.346 111.044 77.618 110.956C77.898 110.86 78.13 110.724 78.314 110.548L79.082 111.304C78.722 111.576 78.35 111.78 77.966 111.916C77.59 112.044 77.174 112.108 76.718 112.108ZM74.726 108.436H78.338C78.29 108.116 78.178 107.836 78.002 107.596C77.834 107.348 77.622 107.156 77.366 107.02C77.118 106.876 76.846 106.804 76.55 106.804C76.246 106.804 75.966 106.872 75.71 107.008C75.454 107.144 75.238 107.336 75.062 107.584C74.894 107.824 74.782 108.108 74.726 108.436Z" fill="#57615E"/>
<path d="M146.447 105.453H142.293H138.553C137.913 105.453 137.593 106.227 138.047 106.68L141.5 110.133C142.053 110.687 142.953 110.687 143.507 110.133L144.82 108.82L146.96 106.68C147.407 106.227 147.087 105.453 146.447 105.453Z" fill="#57615E"/>
<rect x="172.5" y="84" width="146.5" height="48" rx="8" fill="white"/>
<path d="M185.352 112V103.6H186.612V112H185.352ZM188.185 112V105.892H189.385V106.516C189.857 106.02 190.469 105.772 191.221 105.772C191.693 105.772 192.105 105.872 192.457 106.072C192.817 106.272 193.097 106.552 193.297 106.912C193.505 107.272 193.609 107.688 193.609 108.16V112H192.409V108.364C192.409 107.884 192.273 107.508 192.001 107.236C191.737 106.956 191.365 106.816 190.885 106.816C190.565 106.816 190.277 106.884 190.021 107.02C189.765 107.156 189.553 107.352 189.385 107.608V112H188.185ZM197.801 112.096C197.233 112.096 196.713 111.956 196.241 111.676C195.769 111.396 195.397 111.02 195.125 110.548C194.853 110.068 194.717 109.532 194.717 108.94C194.717 108.348 194.853 107.816 195.125 107.344C195.405 106.872 195.781 106.496 196.253 106.216C196.725 105.936 197.249 105.796 197.825 105.796C198.161 105.796 198.485 105.848 198.797 105.952C199.109 106.056 199.397 106.208 199.661 106.408V103.6L200.861 103.372V112H199.673V111.412C199.153 111.868 198.529 112.096 197.801 112.096ZM197.957 111.052C198.309 111.052 198.629 110.988 198.917 110.86C199.213 110.732 199.461 110.548 199.661 110.308V107.56C199.461 107.336 199.213 107.16 198.917 107.032C198.629 106.896 198.309 106.828 197.957 106.828C197.573 106.828 197.225 106.92 196.913 107.104C196.601 107.288 196.353 107.54 196.169 107.86C195.985 108.172 195.893 108.528 195.893 108.928C195.893 109.328 195.985 109.688 196.169 110.008C196.353 110.328 196.601 110.584 196.913 110.776C197.225 110.96 197.573 111.052 197.957 111.052ZM204.646 112.12C204.174 112.12 203.758 112.02 203.398 111.82C203.038 111.62 202.758 111.34 202.558 110.98C202.358 110.612 202.258 110.192 202.258 109.72V105.892H203.446V109.516C203.446 109.996 203.582 110.376 203.854 110.656C204.134 110.936 204.506 111.076 204.97 111.076C205.298 111.076 205.59 111.008 205.846 110.872C206.102 110.728 206.31 110.528 206.47 110.272V105.892H207.67V112H206.47V111.376C205.998 111.872 205.39 112.12 204.646 112.12ZM211.191 112.12C210.663 112.12 210.167 112.044 209.703 111.892C209.247 111.732 208.851 111.508 208.515 111.22L209.175 110.428C209.487 110.676 209.807 110.868 210.135 111.004C210.471 111.132 210.811 111.196 211.155 111.196C211.587 111.196 211.939 111.112 212.211 110.944C212.483 110.776 212.619 110.556 212.619 110.284C212.619 110.06 212.539 109.884 212.379 109.756C212.219 109.628 211.971 109.54 211.635 109.492L210.531 109.336C209.923 109.248 209.467 109.06 209.163 108.772C208.859 108.484 208.707 108.1 208.707 107.62C208.707 107.252 208.807 106.932 209.007 106.66C209.207 106.38 209.487 106.164 209.847 106.012C210.207 105.852 210.627 105.772 211.107 105.772C211.547 105.772 211.971 105.836 212.379 105.964C212.787 106.092 213.179 106.292 213.555 106.564L212.943 107.356C212.607 107.132 212.279 106.968 211.959 106.864C211.647 106.76 211.331 106.708 211.011 106.708C210.643 106.708 210.347 106.788 210.123 106.948C209.899 107.1 209.787 107.3 209.787 107.548C209.787 107.772 209.863 107.948 210.015 108.076C210.175 108.196 210.435 108.28 210.795 108.328L211.899 108.484C212.507 108.572 212.967 108.76 213.279 109.048C213.591 109.328 213.747 109.708 213.747 110.188C213.747 110.556 213.635 110.888 213.411 111.184C213.187 111.472 212.883 111.7 212.499 111.868C212.115 112.036 211.679 112.12 211.191 112.12ZM217.168 112.108C216.576 112.108 216.124 111.972 215.812 111.7C215.5 111.42 215.344 111.016 215.344 110.488V106.9H214.048V105.892H215.344V104.332L216.532 104.044V105.892H218.332V106.9H216.532V110.212C216.532 110.524 216.6 110.748 216.736 110.884C216.88 111.012 217.112 111.076 217.432 111.076C217.6 111.076 217.748 111.064 217.876 111.04C218.012 111.016 218.156 110.98 218.308 110.932V111.94C218.148 111.996 217.96 112.036 217.744 112.06C217.536 112.092 217.344 112.108 217.168 112.108ZM219.216 112V105.892H220.416V106.672C220.608 106.384 220.844 106.16 221.124 106C221.412 105.832 221.736 105.748 222.096 105.748C222.344 105.756 222.548 105.792 222.708 105.856V106.936C222.596 106.888 222.48 106.856 222.36 106.84C222.24 106.816 222.12 106.804 222 106.804C221.648 106.804 221.336 106.9 221.064 107.092C220.792 107.276 220.576 107.548 220.416 107.908V112H219.216ZM224.194 114.58C224.066 114.58 223.946 114.572 223.834 114.556C223.722 114.548 223.63 114.532 223.558 114.508V113.452C223.702 113.484 223.878 113.5 224.086 113.5C224.646 113.5 225.05 113.2 225.298 112.6L225.562 112.012L223.114 105.892H224.446L226.222 110.548L228.19 105.892H229.486L226.534 112.756C226.342 113.188 226.138 113.536 225.922 113.8C225.706 114.072 225.458 114.268 225.178 114.388C224.898 114.516 224.57 114.58 224.194 114.58Z" fill="#57615E"/>
<path d="M302.947 105.453H298.793H295.053C294.413 105.453 294.093 106.227 294.547 106.68L298 110.133C298.553 110.687 299.453 110.687 300.007 110.133L301.32 108.82L303.46 106.68C303.907 106.227 303.587 105.453 302.947 105.453Z" fill="#57615E"/>
<path d="M16 156C16 151.582 19.5817 148 24 148H154.5C158.918 148 162.5 151.582 162.5 156V188C162.5 192.418 158.918 196 154.5 196H24C19.5817 196 16 192.418 16 188V156Z" fill="white"/>
<path d="M28.852 176V167.6H35.044V168.704H30.112V171.224H33.352V172.292H30.112V174.896H35.092V176H28.852ZM35.524 176L37.9 172.868L35.62 169.892H37.024L38.596 171.98L40.168 169.892H41.524L39.268 172.856L41.668 176H40.264L38.572 173.744L36.88 176H35.524ZM42.4072 178.448V169.892H43.5952V170.48C44.1072 170.024 44.7312 169.796 45.4672 169.796C46.0432 169.796 46.5632 169.936 47.0272 170.216C47.4992 170.496 47.8712 170.872 48.1432 171.344C48.4152 171.816 48.5512 172.348 48.5512 172.94C48.5512 173.532 48.4112 174.068 48.1312 174.548C47.8592 175.02 47.4872 175.396 47.0152 175.676C46.5512 175.956 46.0272 176.096 45.4432 176.096C45.1072 176.096 44.7832 176.044 44.4712 175.94C44.1592 175.828 43.8712 175.672 43.6072 175.472V178.448H42.4072ZM45.3112 175.052C45.7032 175.052 46.0512 174.96 46.3552 174.776C46.6672 174.592 46.9152 174.344 47.0992 174.032C47.2832 173.712 47.3752 173.352 47.3752 172.952C47.3752 172.552 47.2832 172.192 47.0992 171.872C46.9152 171.552 46.6672 171.3 46.3552 171.116C46.0512 170.932 45.7032 170.84 45.3112 170.84C44.9672 170.84 44.6472 170.904 44.3512 171.032C44.0552 171.16 43.8072 171.34 43.6072 171.572V174.332C43.8072 174.556 44.0552 174.732 44.3512 174.86C44.6552 174.988 44.9752 175.052 45.3112 175.052ZM52.6243 176.108C52.0243 176.108 51.4803 175.968 50.9923 175.688C50.5123 175.408 50.1283 175.028 49.8403 174.548C49.5603 174.068 49.4203 173.532 49.4203 172.94C49.4203 172.356 49.5563 171.828 49.8283 171.356C50.1003 170.876 50.4683 170.496 50.9323 170.216C51.3963 169.928 51.9123 169.784 52.4803 169.784C53.0483 169.784 53.5523 169.928 53.9923 170.216C54.4323 170.496 54.7803 170.88 55.0363 171.368C55.3003 171.848 55.4323 172.392 55.4323 173V173.336H50.6203C50.6843 173.672 50.8083 173.972 50.9923 174.236C51.1843 174.5 51.4243 174.708 51.7123 174.86C52.0083 175.012 52.3283 175.088 52.6723 175.088C52.9683 175.088 53.2523 175.044 53.5243 174.956C53.8043 174.86 54.0363 174.724 54.2203 174.548L54.9883 175.304C54.6283 175.576 54.2563 175.78 53.8723 175.916C53.4963 176.044 53.0803 176.108 52.6243 176.108ZM50.6323 172.436H54.2443C54.1963 172.116 54.0843 171.836 53.9083 171.596C53.7403 171.348 53.5283 171.156 53.2723 171.02C53.0243 170.876 52.7523 170.804 52.4563 170.804C52.1523 170.804 51.8723 170.872 51.6163 171.008C51.3603 171.144 51.1443 171.336 50.9683 171.584C50.8003 171.824 50.6883 172.108 50.6323 172.436ZM56.5752 176V169.892H57.7752V170.672C57.9672 170.384 58.2032 170.16 58.4832 170C58.7712 169.832 59.0952 169.748 59.4552 169.748C59.7032 169.756 59.9072 169.792 60.0672 169.856V170.936C59.9552 170.888 59.8392 170.856 59.7192 170.84C59.5992 170.816 59.4792 170.804 59.3592 170.804C59.0072 170.804 58.6952 170.9 58.4232 171.092C58.1512 171.276 57.9352 171.548 57.7752 171.908V176H56.5752ZM61.0283 176V169.892H62.2283V176H61.0283ZM61.6283 168.908C61.4283 168.908 61.2563 168.836 61.1123 168.692C60.9683 168.54 60.8963 168.364 60.8963 168.164C60.8963 167.956 60.9683 167.784 61.1123 167.648C61.2563 167.504 61.4283 167.432 61.6283 167.432C61.8363 167.432 62.0123 167.504 62.1563 167.648C62.3003 167.784 62.3723 167.956 62.3723 168.164C62.3723 168.364 62.3003 168.54 62.1563 168.692C62.0123 168.836 61.8363 168.908 61.6283 168.908ZM66.5696 176.108C65.9696 176.108 65.4256 175.968 64.9376 175.688C64.4576 175.408 64.0736 175.028 63.7856 174.548C63.5056 174.068 63.3656 173.532 63.3656 172.94C63.3656 172.356 63.5016 171.828 63.7736 171.356C64.0456 170.876 64.4136 170.496 64.8776 170.216C65.3416 169.928 65.8576 169.784 66.4256 169.784C66.9936 169.784 67.4976 169.928 67.9376 170.216C68.3776 170.496 68.7256 170.88 68.9816 171.368C69.2456 171.848 69.3776 172.392 69.3776 173V173.336H64.5656C64.6296 173.672 64.7536 173.972 64.9376 174.236C65.1296 174.5 65.3696 174.708 65.6576 174.86C65.9536 175.012 66.2736 175.088 66.6176 175.088C66.9136 175.088 67.1976 175.044 67.4696 174.956C67.7496 174.86 67.9816 174.724 68.1656 174.548L68.9336 175.304C68.5736 175.576 68.2016 175.78 67.8176 175.916C67.4416 176.044 67.0256 176.108 66.5696 176.108ZM64.5776 172.436H68.1896C68.1416 172.116 68.0296 171.836 67.8536 171.596C67.6856 171.348 67.4736 171.156 67.2176 171.02C66.9696 170.876 66.6976 170.804 66.4016 170.804C66.0976 170.804 65.8176 170.872 65.5616 171.008C65.3056 171.144 65.0896 171.336 64.9136 171.584C64.7456 171.824 64.6336 172.108 64.5776 172.436ZM70.5205 176V169.892H71.7205V170.516C72.1925 170.02 72.8045 169.772 73.5565 169.772C74.0285 169.772 74.4405 169.872 74.7925 170.072C75.1525 170.272 75.4325 170.552 75.6325 170.912C75.8405 171.272 75.9445 171.688 75.9445 172.16V176H74.7445V172.364C74.7445 171.884 74.6085 171.508 74.3365 171.236C74.0725 170.956 73.7005 170.816 73.2205 170.816C72.9005 170.816 72.6125 170.884 72.3565 171.02C72.1005 171.156 71.8885 171.352 71.7205 171.608V176H70.5205ZM80.1971 176.108C79.6131 176.108 79.0811 175.968 78.6011 175.688C78.1211 175.408 77.7411 175.028 77.4611 174.548C77.1891 174.068 77.0531 173.532 77.0531 172.94C77.0531 172.348 77.1931 171.816 77.4731 171.344C77.7531 170.864 78.1291 170.484 78.6011 170.204C79.0811 169.916 79.6131 169.772 80.1971 169.772C80.6611 169.772 81.1051 169.86 81.5291 170.036C81.9611 170.212 82.3331 170.46 82.6451 170.78L81.9011 171.608C81.6691 171.352 81.4091 171.16 81.1211 171.032C80.8331 170.904 80.5331 170.84 80.2211 170.84C79.8531 170.84 79.5171 170.932 79.2131 171.116C78.9171 171.3 78.6811 171.552 78.5051 171.872C78.3291 172.192 78.2411 172.548 78.2411 172.94C78.2411 173.332 78.3291 173.688 78.5051 174.008C78.6811 174.328 78.9211 174.584 79.2251 174.776C79.5291 174.96 79.8691 175.052 80.2451 175.052C80.5571 175.052 80.8491 174.992 81.1211 174.872C81.3931 174.744 81.6491 174.56 81.8891 174.32L82.6211 175.088C82.3011 175.416 81.9291 175.668 81.5051 175.844C81.0891 176.02 80.6531 176.108 80.1971 176.108ZM86.3391 176.108C85.7391 176.108 85.1951 175.968 84.7071 175.688C84.2271 175.408 83.8431 175.028 83.5551 174.548C83.2751 174.068 83.1351 173.532 83.1351 172.94C83.1351 172.356 83.2711 171.828 83.5431 171.356C83.8151 170.876 84.1831 170.496 84.6471 170.216C85.1111 169.928 85.6271 169.784 86.1951 169.784C86.7631 169.784 87.2671 169.928 87.7071 170.216C88.1471 170.496 88.4951 170.88 88.7511 171.368C89.0151 171.848 89.1471 172.392 89.1471 173V173.336H84.3351C84.3991 173.672 84.5231 173.972 84.7071 174.236C84.8991 174.5 85.1391 174.708 85.4271 174.86C85.7231 175.012 86.0431 175.088 86.3871 175.088C86.6831 175.088 86.9671 175.044 87.2391 174.956C87.5191 174.86 87.7511 174.724 87.9351 174.548L88.7031 175.304C88.3431 175.576 87.9711 175.78 87.5871 175.916C87.2111 176.044 86.7951 176.108 86.3391 176.108ZM84.3471 172.436H87.9591C87.9111 172.116 87.7991 171.836 87.6231 171.596C87.4551 171.348 87.2431 171.156 86.9871 171.02C86.7391 170.876 86.4671 170.804 86.1711 170.804C85.8671 170.804 85.5871 170.872 85.3311 171.008C85.0751 171.144 84.8591 171.336 84.6831 171.584C84.5151 171.824 84.4031 172.108 84.3471 172.436ZM92.7978 176V167.6L93.9978 167.372V176H92.7978ZM98.3391 176.108C97.7391 176.108 97.1951 175.968 96.7071 175.688C96.2271 175.408 95.8431 175.028 95.5551 174.548C95.2751 174.068 95.1351 173.532 95.1351 172.94C95.1351 172.356 95.2711 171.828 95.5431 171.356C95.8151 170.876 96.1831 170.496 96.6471 170.216C97.1111 169.928 97.6271 169.784 98.1951 169.784C98.7631 169.784 99.2671 169.928 99.7071 170.216C100.147 170.496 100.495 170.88 100.751 171.368C101.015 171.848 101.147 172.392 101.147 173V173.336H96.3351C96.3991 173.672 96.5231 173.972 96.7071 174.236C96.8991 174.5 97.1391 174.708 97.4271 174.86C97.7231 175.012 98.0431 175.088 98.3871 175.088C98.6831 175.088 98.9671 175.044 99.2391 174.956C99.5191 174.86 99.7511 174.724 99.9351 174.548L100.703 175.304C100.343 175.576 99.9711 175.78 99.5871 175.916C99.2111 176.044 98.7951 176.108 98.3391 176.108ZM96.3471 172.436H99.9591C99.9111 172.116 99.7991 171.836 99.6231 171.596C99.4551 171.348 99.2431 171.156 98.9871 171.02C98.7391 170.876 98.4671 170.804 98.1711 170.804C97.8671 170.804 97.5871 170.872 97.3311 171.008C97.0751 171.144 96.8591 171.336 96.6831 171.584C96.5151 171.824 96.4031 172.108 96.3471 172.436ZM104.082 176L101.442 169.892H102.762L104.67 174.464L106.578 169.892H107.85L105.234 176H104.082ZM111.347 176.108C110.747 176.108 110.203 175.968 109.715 175.688C109.235 175.408 108.851 175.028 108.563 174.548C108.283 174.068 108.143 173.532 108.143 172.94C108.143 172.356 108.279 171.828 108.551 171.356C108.823 170.876 109.191 170.496 109.655 170.216C110.119 169.928 110.635 169.784 111.203 169.784C111.771 169.784 112.275 169.928 112.715 170.216C113.155 170.496 113.503 170.88 113.759 171.368C114.023 171.848 114.155 172.392 114.155 173V173.336H109.343C109.407 173.672 109.531 173.972 109.715 174.236C109.907 174.5 110.147 174.708 110.435 174.86C110.731 175.012 111.051 175.088 111.395 175.088C111.691 175.088 111.975 175.044 112.247 174.956C112.527 174.86 112.759 174.724 112.943 174.548L113.711 175.304C113.351 175.576 112.979 175.78 112.595 175.916C112.219 176.044 111.803 176.108 111.347 176.108ZM109.355 172.436H112.967C112.919 172.116 112.807 171.836 112.631 171.596C112.463 171.348 112.251 171.156 111.995 171.02C111.747 170.876 111.475 170.804 111.179 170.804C110.875 170.804 110.595 170.872 110.339 171.008C110.083 171.144 109.867 171.336 109.691 171.584C109.523 171.824 109.411 172.108 109.355 172.436ZM115.298 176V167.6L116.498 167.372V176H115.298Z" fill="#57615E"/>
<path d="M146.447 169.453H142.293H138.553C137.913 169.453 137.593 170.227 138.047 170.68L141.5 174.133C142.053 174.687 142.953 174.687 143.507 174.133L144.82 172.82L146.96 170.68C147.407 170.227 147.087 169.453 146.447 169.453Z" fill="#57615E"/>
<rect x="172.5" y="148" width="146.5" height="48" rx="8" fill="white"/>
<path d="M185.352 176V167.6H186.612V174.884H191.448V176H185.352ZM195.178 176.12C194.586 176.12 194.046 175.98 193.558 175.7C193.078 175.42 192.698 175.04 192.418 174.56C192.138 174.08 191.998 173.544 191.998 172.952C191.998 172.36 192.138 171.824 192.418 171.344C192.698 170.864 193.078 170.484 193.558 170.204C194.046 169.916 194.586 169.772 195.178 169.772C195.778 169.772 196.318 169.916 196.798 170.204C197.278 170.484 197.658 170.864 197.938 171.344C198.218 171.824 198.358 172.36 198.358 172.952C198.358 173.544 198.218 174.08 197.938 174.56C197.658 175.04 197.278 175.42 196.798 175.7C196.318 175.98 195.778 176.12 195.178 176.12ZM195.178 175.064C195.554 175.064 195.894 174.972 196.198 174.788C196.502 174.596 196.742 174.34 196.918 174.02C197.094 173.7 197.182 173.34 197.182 172.94C197.182 172.548 197.09 172.196 196.906 171.884C196.73 171.564 196.49 171.308 196.186 171.116C195.89 170.924 195.554 170.828 195.178 170.828C194.802 170.828 194.462 170.924 194.158 171.116C193.862 171.308 193.622 171.564 193.438 171.884C193.262 172.196 193.174 172.548 193.174 172.94C193.174 173.34 193.262 173.7 193.438 174.02C193.614 174.34 193.854 174.596 194.158 174.788C194.462 174.972 194.802 175.064 195.178 175.064ZM202.361 176.108C201.777 176.108 201.245 175.968 200.765 175.688C200.285 175.408 199.905 175.028 199.625 174.548C199.353 174.068 199.217 173.532 199.217 172.94C199.217 172.348 199.357 171.816 199.637 171.344C199.917 170.864 200.293 170.484 200.765 170.204C201.245 169.916 201.777 169.772 202.361 169.772C202.825 169.772 203.269 169.86 203.693 170.036C204.125 170.212 204.497 170.46 204.809 170.78L204.065 171.608C203.833 171.352 203.573 171.16 203.285 171.032C202.997 170.904 202.697 170.84 202.385 170.84C202.017 170.84 201.681 170.932 201.377 171.116C201.081 171.3 200.845 171.552 200.669 171.872C200.493 172.192 200.405 172.548 200.405 172.94C200.405 173.332 200.493 173.688 200.669 174.008C200.845 174.328 201.085 174.584 201.389 174.776C201.693 174.96 202.033 175.052 202.409 175.052C202.721 175.052 203.013 174.992 203.285 174.872C203.557 174.744 203.813 174.56 204.053 174.32L204.785 175.088C204.465 175.416 204.093 175.668 203.669 175.844C203.253 176.02 202.817 176.108 202.361 176.108ZM207.683 176.108C207.243 176.108 206.855 176.032 206.519 175.88C206.183 175.72 205.919 175.5 205.727 175.22C205.535 174.94 205.439 174.616 205.439 174.248C205.439 173.672 205.659 173.22 206.099 172.892C206.539 172.556 207.143 172.388 207.911 172.388C208.511 172.388 209.067 172.504 209.579 172.736V172.088C209.579 171.648 209.451 171.32 209.195 171.104C208.947 170.888 208.579 170.78 208.091 170.78C207.811 170.78 207.519 170.824 207.215 170.912C206.911 170.992 206.571 171.12 206.195 171.296L205.751 170.396C206.215 170.18 206.647 170.024 207.047 169.928C207.447 169.824 207.851 169.772 208.259 169.772C209.051 169.772 209.663 169.96 210.095 170.336C210.535 170.712 210.755 171.248 210.755 171.944V176H209.579V175.472C209.307 175.688 209.015 175.848 208.703 175.952C208.391 176.056 208.051 176.108 207.683 176.108ZM206.591 174.224C206.591 174.52 206.715 174.76 206.963 174.944C207.219 175.128 207.551 175.22 207.959 175.22C208.279 175.22 208.571 175.172 208.835 175.076C209.107 174.98 209.355 174.832 209.579 174.632V173.6C209.347 173.464 209.103 173.368 208.847 173.312C208.599 173.248 208.319 173.216 208.007 173.216C207.567 173.216 207.219 173.308 206.963 173.492C206.715 173.668 206.591 173.912 206.591 174.224ZM214.578 176.108C213.986 176.108 213.534 175.972 213.222 175.7C212.91 175.42 212.754 175.016 212.754 174.488V170.9H211.458V169.892H212.754V168.332L213.942 168.044V169.892H215.742V170.9H213.942V174.212C213.942 174.524 214.01 174.748 214.146 174.884C214.29 175.012 214.522 175.076 214.842 175.076C215.01 175.076 215.158 175.064 215.286 175.04C215.422 175.016 215.566 174.98 215.718 174.932V175.94C215.558 175.996 215.37 176.036 215.154 176.06C214.946 176.092 214.754 176.108 214.578 176.108ZM216.626 176V169.892H217.826V176H216.626ZM217.226 168.908C217.026 168.908 216.854 168.836 216.71 168.692C216.566 168.54 216.494 168.364 216.494 168.164C216.494 167.956 216.566 167.784 216.71 167.648C216.854 167.504 217.026 167.432 217.226 167.432C217.434 167.432 217.61 167.504 217.754 167.648C217.898 167.784 217.97 167.956 217.97 168.164C217.97 168.364 217.898 168.54 217.754 168.692C217.61 168.836 217.434 168.908 217.226 168.908ZM222.143 176.12C221.551 176.12 221.011 175.98 220.523 175.7C220.043 175.42 219.663 175.04 219.383 174.56C219.103 174.08 218.963 173.544 218.963 172.952C218.963 172.36 219.103 171.824 219.383 171.344C219.663 170.864 220.043 170.484 220.523 170.204C221.011 169.916 221.551 169.772 222.143 169.772C222.743 169.772 223.283 169.916 223.763 170.204C224.243 170.484 224.623 170.864 224.903 171.344C225.183 171.824 225.323 172.36 225.323 172.952C225.323 173.544 225.183 174.08 224.903 174.56C224.623 175.04 224.243 175.42 223.763 175.7C223.283 175.98 222.743 176.12 222.143 176.12ZM222.143 175.064C222.519 175.064 222.859 174.972 223.163 174.788C223.467 174.596 223.707 174.34 223.883 174.02C224.059 173.7 224.147 173.34 224.147 172.94C224.147 172.548 224.055 172.196 223.871 171.884C223.695 171.564 223.455 171.308 223.151 171.116C222.855 170.924 222.519 170.828 222.143 170.828C221.767 170.828 221.427 170.924 221.123 171.116C220.827 171.308 220.587 171.564 220.403 171.884C220.227 172.196 220.139 172.548 220.139 172.94C220.139 173.34 220.227 173.7 220.403 174.02C220.579 174.34 220.819 174.596 221.123 174.788C221.427 174.972 221.767 175.064 222.143 175.064ZM226.458 176V169.892H227.658V170.516C228.13 170.02 228.742 169.772 229.494 169.772C229.966 169.772 230.378 169.872 230.73 170.072C231.09 170.272 231.37 170.552 231.57 170.912C231.778 171.272 231.882 171.688 231.882 172.16V176H230.682V172.364C230.682 171.884 230.546 171.508 230.274 171.236C230.01 170.956 229.638 170.816 229.158 170.816C228.838 170.816 228.55 170.884 228.294 171.02C228.038 171.156 227.826 171.352 227.658 171.608V176H226.458Z" fill="#57615E"/>
<path d="M302.947 169.453H298.793H295.053C294.413 169.453 294.093 170.227 294.547 170.68L298 174.133C298.553 174.687 299.453 174.687 300.007 174.133L301.32 172.82L303.46 170.68C303.907 170.227 303.587 169.453 302.947 169.453Z" fill="#57615E"/>
<path d="M16 220C16 215.582 19.5817 212 24 212H154.5C158.918 212 162.5 215.582 162.5 220V252C162.5 256.418 158.918 260 154.5 260H24C19.5817 260 16 256.418 16 252V220Z" fill="white"/>
<path d="M31.696 240.12C31.024 240.12 30.376 239.988 29.752 239.724C29.128 239.46 28.576 239.088 28.096 238.608L28.864 237.72C29.32 238.168 29.784 238.5 30.256 238.716C30.736 238.932 31.236 239.04 31.756 239.04C32.164 239.04 32.52 238.984 32.824 238.872C33.136 238.752 33.376 238.584 33.544 238.368C33.712 238.152 33.796 237.908 33.796 237.636C33.796 237.26 33.664 236.972 33.4 236.772C33.136 236.572 32.7 236.42 32.092 236.316L30.688 236.088C29.92 235.952 29.344 235.704 28.96 235.344C28.584 234.984 28.396 234.504 28.396 233.904C28.396 233.424 28.524 233.004 28.78 232.644C29.036 232.276 29.396 231.992 29.86 231.792C30.332 231.592 30.876 231.492 31.492 231.492C32.1 231.492 32.696 231.592 33.28 231.792C33.872 231.984 34.404 232.264 34.876 232.632L34.18 233.592C33.276 232.904 32.36 232.56 31.432 232.56C31.064 232.56 30.744 232.612 30.472 232.716C30.2 232.82 29.988 232.968 29.836 233.16C29.684 233.344 29.608 233.56 29.608 233.808C29.608 234.152 29.724 234.416 29.956 234.6C30.188 234.776 30.572 234.904 31.108 234.984L32.464 235.212C33.352 235.356 34.004 235.616 34.42 235.992C34.836 236.368 35.044 236.884 35.044 237.54C35.044 238.052 34.904 238.504 34.624 238.896C34.344 239.28 33.952 239.58 33.448 239.796C32.944 240.012 32.36 240.12 31.696 240.12ZM38.1752 240.108C37.7352 240.108 37.3472 240.032 37.0112 239.88C36.6752 239.72 36.4112 239.5 36.2192 239.22C36.0272 238.94 35.9312 238.616 35.9312 238.248C35.9312 237.672 36.1512 237.22 36.5912 236.892C37.0312 236.556 37.6352 236.388 38.4032 236.388C39.0032 236.388 39.5592 236.504 40.0712 236.736V236.088C40.0712 235.648 39.9432 235.32 39.6872 235.104C39.4392 234.888 39.0712 234.78 38.5832 234.78C38.3032 234.78 38.0112 234.824 37.7072 234.912C37.4032 234.992 37.0632 235.12 36.6872 235.296L36.2432 234.396C36.7072 234.18 37.1392 234.024 37.5392 233.928C37.9392 233.824 38.3432 233.772 38.7512 233.772C39.5432 233.772 40.1552 233.96 40.5872 234.336C41.0272 234.712 41.2472 235.248 41.2472 235.944V240H40.0712V239.472C39.7992 239.688 39.5072 239.848 39.1952 239.952C38.8832 240.056 38.5432 240.108 38.1752 240.108ZM37.0832 238.224C37.0832 238.52 37.2072 238.76 37.4552 238.944C37.7112 239.128 38.0432 239.22 38.4512 239.22C38.7712 239.22 39.0632 239.172 39.3272 239.076C39.5992 238.98 39.8472 238.832 40.0712 238.632V237.6C39.8392 237.464 39.5952 237.368 39.3392 237.312C39.0912 237.248 38.8112 237.216 38.4992 237.216C38.0592 237.216 37.7112 237.308 37.4552 237.492C37.2072 237.668 37.0832 237.912 37.0832 238.224ZM42.6299 240V231.6L43.8299 231.372V240H42.6299ZM47.1752 240.108C46.7352 240.108 46.3472 240.032 46.0112 239.88C45.6752 239.72 45.4112 239.5 45.2192 239.22C45.0272 238.94 44.9312 238.616 44.9312 238.248C44.9312 237.672 45.1512 237.22 45.5912 236.892C46.0312 236.556 46.6352 236.388 47.4032 236.388C48.0032 236.388 48.5592 236.504 49.0712 236.736V236.088C49.0712 235.648 48.9432 235.32 48.6872 235.104C48.4392 234.888 48.0712 234.78 47.5832 234.78C47.3032 234.78 47.0112 234.824 46.7072 234.912C46.4032 234.992 46.0632 235.12 45.6872 235.296L45.2432 234.396C45.7072 234.18 46.1392 234.024 46.5392 233.928C46.9392 233.824 47.3432 233.772 47.7512 233.772C48.5432 233.772 49.1552 233.96 49.5872 234.336C50.0272 234.712 50.2472 235.248 50.2472 235.944V240H49.0712V239.472C48.7992 239.688 48.5072 239.848 48.1952 239.952C47.8832 240.056 47.5432 240.108 47.1752 240.108ZM46.0832 238.224C46.0832 238.52 46.2072 238.76 46.4552 238.944C46.7112 239.128 47.0432 239.22 47.4512 239.22C47.7712 239.22 48.0632 239.172 48.3272 239.076C48.5992 238.98 48.8472 238.832 49.0712 238.632V237.6C48.8392 237.464 48.5952 237.368 48.3392 237.312C48.0912 237.248 47.8112 237.216 47.4992 237.216C47.0592 237.216 46.7112 237.308 46.4552 237.492C46.2072 237.668 46.0832 237.912 46.0832 238.224ZM51.6299 240V233.892H52.8299V234.672C53.0219 234.384 53.2579 234.16 53.5379 234C53.8259 233.832 54.1499 233.748 54.5099 233.748C54.7579 233.756 54.9619 233.792 55.1219 233.856V234.936C55.0099 234.888 54.8939 234.856 54.7739 234.84C54.6539 234.816 54.5339 234.804 54.4139 234.804C54.0619 234.804 53.7499 234.9 53.4779 235.092C53.2059 235.276 52.9899 235.548 52.8299 235.908V240H51.6299ZM56.6082 242.58C56.4802 242.58 56.3602 242.572 56.2482 242.556C56.1362 242.548 56.0442 242.532 55.9722 242.508V241.452C56.1162 241.484 56.2922 241.5 56.5002 241.5C57.0602 241.5 57.4642 241.2 57.7122 240.6L57.9762 240.012L55.5282 233.892H56.8602L58.6362 238.548L60.6042 233.892H61.9002L58.9482 240.756C58.7562 241.188 58.5522 241.536 58.3362 241.8C58.1202 242.072 57.8722 242.268 57.5922 242.388C57.3122 242.516 56.9842 242.58 56.6082 242.58Z" fill="#57615E"/>
<path d="M146.447 233.453H142.293H138.553C137.913 233.453 137.593 234.227 138.047 234.68L141.5 238.133C142.053 238.687 142.953 238.687 143.507 238.133L144.82 236.82L146.96 234.68C147.407 234.227 147.087 233.453 146.447 233.453Z" fill="#57615E"/>
<rect x="172.5" y="212" width="146.5" height="48" rx="8" fill="white"/>
<path d="M189.396 240.132C188.772 240.132 188.192 240.024 187.656 239.808C187.128 239.584 186.66 239.276 186.252 238.884C185.852 238.484 185.54 238.024 185.316 237.504C185.1 236.976 184.992 236.408 184.992 235.8C184.992 235.192 185.1 234.628 185.316 234.108C185.54 233.58 185.852 233.12 186.252 232.728C186.66 232.328 187.132 232.02 187.668 231.804C188.204 231.58 188.78 231.468 189.396 231.468C189.836 231.468 190.264 231.528 190.68 231.648C191.104 231.76 191.492 231.924 191.844 232.14C192.204 232.356 192.516 232.616 192.78 232.92L191.94 233.784C191.628 233.408 191.248 233.124 190.8 232.932C190.352 232.732 189.884 232.632 189.396 232.632C188.948 232.632 188.532 232.712 188.148 232.872C187.772 233.032 187.444 233.256 187.164 233.544C186.884 233.824 186.664 234.156 186.504 234.54C186.352 234.924 186.276 235.344 186.276 235.8C186.276 236.248 186.352 236.664 186.504 237.048C186.664 237.432 186.888 237.768 187.176 238.056C187.464 238.344 187.8 238.568 188.184 238.728C188.568 238.888 188.984 238.968 189.432 238.968C189.92 238.968 190.38 238.872 190.812 238.68C191.252 238.48 191.624 238.2 191.928 237.84L192.756 238.68C192.476 238.976 192.156 239.236 191.796 239.46C191.444 239.676 191.06 239.844 190.644 239.964C190.236 240.076 189.82 240.132 189.396 240.132ZM196.573 240.12C195.981 240.12 195.441 239.98 194.953 239.7C194.473 239.42 194.093 239.04 193.813 238.56C193.533 238.08 193.393 237.544 193.393 236.952C193.393 236.36 193.533 235.824 193.813 235.344C194.093 234.864 194.473 234.484 194.953 234.204C195.441 233.916 195.981 233.772 196.573 233.772C197.173 233.772 197.713 233.916 198.193 234.204C198.673 234.484 199.053 234.864 199.333 235.344C199.613 235.824 199.753 236.36 199.753 236.952C199.753 237.544 199.613 238.08 199.333 238.56C199.053 239.04 198.673 239.42 198.193 239.7C197.713 239.98 197.173 240.12 196.573 240.12ZM196.573 239.064C196.949 239.064 197.289 238.972 197.593 238.788C197.897 238.596 198.137 238.34 198.313 238.02C198.489 237.7 198.577 237.34 198.577 236.94C198.577 236.548 198.485 236.196 198.301 235.884C198.125 235.564 197.885 235.308 197.581 235.116C197.285 234.924 196.949 234.828 196.573 234.828C196.197 234.828 195.857 234.924 195.553 235.116C195.257 235.308 195.017 235.564 194.833 235.884C194.657 236.196 194.569 236.548 194.569 236.94C194.569 237.34 194.657 237.7 194.833 238.02C195.009 238.34 195.249 238.596 195.553 238.788C195.857 238.972 196.197 239.064 196.573 239.064ZM200.888 240V233.892H202.088V234.48C202.544 234.008 203.116 233.772 203.804 233.772C204.22 233.772 204.588 233.864 204.908 234.048C205.236 234.232 205.496 234.48 205.688 234.792C205.944 234.456 206.244 234.204 206.588 234.036C206.932 233.86 207.32 233.772 207.752 233.772C208.208 233.772 208.604 233.872 208.94 234.072C209.284 234.272 209.552 234.552 209.744 234.912C209.944 235.272 210.044 235.688 210.044 236.16V240H208.844V236.364C208.844 235.884 208.716 235.508 208.46 235.236C208.212 234.956 207.872 234.816 207.44 234.816C207.144 234.816 206.876 234.884 206.636 235.02C206.396 235.156 206.188 235.364 206.012 235.644C206.028 235.724 206.04 235.808 206.048 235.896C206.056 235.984 206.06 236.072 206.06 236.16V240H204.872V236.364C204.872 235.884 204.744 235.508 204.488 235.236C204.24 234.956 203.9 234.816 203.468 234.816C203.18 234.816 202.92 234.88 202.688 235.008C202.456 235.128 202.256 235.312 202.088 235.56V240H200.888ZM211.423 242.448V233.892H212.611V234.48C213.123 234.024 213.747 233.796 214.483 233.796C215.059 233.796 215.579 233.936 216.043 234.216C216.515 234.496 216.887 234.872 217.159 235.344C217.431 235.816 217.567 236.348 217.567 236.94C217.567 237.532 217.427 238.068 217.147 238.548C216.875 239.02 216.503 239.396 216.031 239.676C215.567 239.956 215.043 240.096 214.459 240.096C214.123 240.096 213.799 240.044 213.487 239.94C213.175 239.828 212.887 239.672 212.623 239.472V242.448H211.423ZM214.327 239.052C214.719 239.052 215.067 238.96 215.371 238.776C215.683 238.592 215.931 238.344 216.115 238.032C216.299 237.712 216.391 237.352 216.391 236.952C216.391 236.552 216.299 236.192 216.115 235.872C215.931 235.552 215.683 235.3 215.371 235.116C215.067 234.932 214.719 234.84 214.327 234.84C213.983 234.84 213.663 234.904 213.367 235.032C213.071 235.16 212.823 235.34 212.623 235.572V238.332C212.823 238.556 213.071 238.732 213.367 238.86C213.671 238.988 213.991 239.052 214.327 239.052ZM220.703 240.108C220.263 240.108 219.875 240.032 219.539 239.88C219.203 239.72 218.939 239.5 218.747 239.22C218.555 238.94 218.458 238.616 218.458 238.248C218.458 237.672 218.679 237.22 219.119 236.892C219.559 236.556 220.163 236.388 220.931 236.388C221.531 236.388 222.087 236.504 222.599 236.736V236.088C222.599 235.648 222.471 235.32 222.215 235.104C221.967 234.888 221.599 234.78 221.111 234.78C220.831 234.78 220.539 234.824 220.235 234.912C219.931 234.992 219.591 235.12 219.215 235.296L218.771 234.396C219.235 234.18 219.667 234.024 220.067 233.928C220.467 233.824 220.871 233.772 221.279 233.772C222.071 233.772 222.683 233.96 223.115 234.336C223.555 234.712 223.775 235.248 223.775 235.944V240H222.599V239.472C222.327 239.688 222.035 239.848 221.723 239.952C221.411 240.056 221.071 240.108 220.703 240.108ZM219.611 238.224C219.611 238.52 219.735 238.76 219.983 238.944C220.239 239.128 220.571 239.22 220.979 239.22C221.299 239.22 221.591 239.172 221.855 239.076C222.127 238.98 222.375 238.832 222.599 238.632V237.6C222.367 237.464 222.123 237.368 221.867 237.312C221.619 237.248 221.339 237.216 221.027 237.216C220.587 237.216 220.239 237.308 219.983 237.492C219.735 237.668 219.611 237.912 219.611 238.224ZM225.157 240V233.892H226.357V234.516C226.829 234.02 227.441 233.772 228.193 233.772C228.665 233.772 229.077 233.872 229.429 234.072C229.789 234.272 230.069 234.552 230.269 234.912C230.477 235.272 230.581 235.688 230.581 236.16V240H229.381V236.364C229.381 235.884 229.245 235.508 228.973 235.236C228.709 234.956 228.337 234.816 227.857 234.816C227.537 234.816 227.249 234.884 226.993 235.02C226.737 235.156 226.525 235.352 226.357 235.608V240H225.157ZM232.257 242.58C232.129 242.58 232.009 242.572 231.897 242.556C231.785 242.548 231.693 242.532 231.621 242.508V241.452C231.765 241.484 231.941 241.5 232.149 241.5C232.709 241.5 233.113 241.2 233.361 240.6L233.625 240.012L231.177 233.892H232.509L234.285 238.548L236.253 233.892H237.549L234.597 240.756C234.405 241.188 234.201 241.536 233.985 241.8C233.769 242.072 233.521 242.268 233.241 242.388C232.961 242.516 232.633 242.58 232.257 242.58ZM243.79 240.12C243.118 240.12 242.47 239.988 241.846 239.724C241.222 239.46 240.67 239.088 240.19 238.608L240.958 237.72C241.414 238.168 241.878 238.5 242.35 238.716C242.83 238.932 243.33 239.04 243.85 239.04C244.258 239.04 244.614 238.984 244.918 238.872C245.23 238.752 245.47 238.584 245.638 238.368C245.806 238.152 245.89 237.908 245.89 237.636C245.89 237.26 245.758 236.972 245.494 236.772C245.23 236.572 244.794 236.42 244.186 236.316L242.782 236.088C242.014 235.952 241.438 235.704 241.054 235.344C240.678 234.984 240.49 234.504 240.49 233.904C240.49 233.424 240.618 233.004 240.874 232.644C241.13 232.276 241.49 231.992 241.954 231.792C242.426 231.592 242.97 231.492 243.586 231.492C244.194 231.492 244.79 231.592 245.374 231.792C245.966 231.984 246.498 232.264 246.97 232.632L246.274 233.592C245.37 232.904 244.454 232.56 243.526 232.56C243.158 232.56 242.838 232.612 242.566 232.716C242.294 232.82 242.082 232.968 241.93 233.16C241.778 233.344 241.702 233.56 241.702 233.808C241.702 234.152 241.818 234.416 242.05 234.6C242.282 234.776 242.666 234.904 243.202 234.984L244.558 235.212C245.446 235.356 246.098 235.616 246.514 235.992C246.93 236.368 247.138 236.884 247.138 237.54C247.138 238.052 246.998 238.504 246.718 238.896C246.438 239.28 246.046 239.58 245.542 239.796C245.038 240.012 244.454 240.12 243.79 240.12ZM248.161 240V233.892H249.361V240H248.161ZM248.761 232.908C248.561 232.908 248.389 232.836 248.245 232.692C248.101 232.54 248.029 232.364 248.029 232.164C248.029 231.956 248.101 231.784 248.245 231.648C248.389 231.504 248.561 231.432 248.761 231.432C248.969 231.432 249.145 231.504 249.289 231.648C249.433 231.784 249.505 231.956 249.505 232.164C249.505 232.364 249.433 232.54 249.289 232.692C249.145 232.836 248.969 232.908 248.761 232.908ZM250.414 240V239.112L253.846 234.924H250.45V233.892H255.346V234.768L251.914 238.968H255.406V240H250.414ZM259.245 240.108C258.645 240.108 258.101 239.968 257.613 239.688C257.133 239.408 256.749 239.028 256.461 238.548C256.181 238.068 256.041 237.532 256.041 236.94C256.041 236.356 256.177 235.828 256.449 235.356C256.721 234.876 257.089 234.496 257.553 234.216C258.017 233.928 258.533 233.784 259.101 233.784C259.669 233.784 260.173 233.928 260.613 234.216C261.053 234.496 261.401 234.88 261.657 235.368C261.921 235.848 262.053 236.392 262.053 237V237.336H257.241C257.305 237.672 257.429 237.972 257.613 238.236C257.805 238.5 258.045 238.708 258.333 238.86C258.629 239.012 258.949 239.088 259.293 239.088C259.589 239.088 259.873 239.044 260.145 238.956C260.425 238.86 260.657 238.724 260.841 238.548L261.609 239.304C261.249 239.576 260.877 239.78 260.493 239.916C260.117 240.044 259.701 240.108 259.245 240.108ZM257.253 236.436H260.865C260.817 236.116 260.705 235.836 260.529 235.596C260.361 235.348 260.149 235.156 259.893 235.02C259.645 234.876 259.373 234.804 259.077 234.804C258.773 234.804 258.493 234.872 258.237 235.008C257.981 235.144 257.765 235.336 257.589 235.584C257.421 235.824 257.309 236.108 257.253 236.436Z" fill="#57615E"/>
<path d="M302.947 233.453H298.793H295.053C294.413 233.453 294.093 234.227 294.547 234.68L298 238.133C298.553 238.687 299.453 238.687 300.007 238.133L301.32 236.82L303.46 234.68C303.907 234.227 303.587 233.453 302.947 233.453Z" fill="#57615E"/>
<rect x="20" y="284" width="295" height="48" rx="8" fill="#008552"/>
<path d="M135.312 312.64C134.528 312.64 133.772 312.486 133.044 312.178C132.316 311.87 131.672 311.436 131.112 310.876L132.008 309.84C132.54 310.363 133.081 310.75 133.632 311.002C134.192 311.254 134.775 311.38 135.382 311.38C135.858 311.38 136.273 311.315 136.628 311.184C136.992 311.044 137.272 310.848 137.468 310.596C137.664 310.344 137.762 310.059 137.762 309.742C137.762 309.303 137.608 308.967 137.3 308.734C136.992 308.501 136.483 308.323 135.774 308.202L134.136 307.936C133.24 307.777 132.568 307.488 132.12 307.068C131.681 306.648 131.462 306.088 131.462 305.388C131.462 304.828 131.611 304.338 131.91 303.918C132.209 303.489 132.629 303.157 133.17 302.924C133.721 302.691 134.355 302.574 135.074 302.574C135.783 302.574 136.479 302.691 137.16 302.924C137.851 303.148 138.471 303.475 139.022 303.904L138.21 305.024C137.155 304.221 136.087 303.82 135.004 303.82C134.575 303.82 134.201 303.881 133.884 304.002C133.567 304.123 133.319 304.296 133.142 304.52C132.965 304.735 132.876 304.987 132.876 305.276C132.876 305.677 133.011 305.985 133.282 306.2C133.553 306.405 134.001 306.555 134.626 306.648L136.208 306.914C137.244 307.082 138.005 307.385 138.49 307.824C138.975 308.263 139.218 308.865 139.218 309.63C139.218 310.227 139.055 310.755 138.728 311.212C138.401 311.66 137.944 312.01 137.356 312.262C136.768 312.514 136.087 312.64 135.312 312.64ZM143.965 312.626C143.265 312.626 142.63 312.463 142.061 312.136C141.501 311.809 141.053 311.366 140.717 310.806C140.39 310.246 140.227 309.621 140.227 308.93C140.227 308.249 140.385 307.633 140.703 307.082C141.02 306.522 141.449 306.079 141.991 305.752C142.532 305.416 143.134 305.248 143.797 305.248C144.459 305.248 145.047 305.416 145.561 305.752C146.074 306.079 146.48 306.527 146.779 307.096C147.087 307.656 147.241 308.291 147.241 309V309.392H141.627C141.701 309.784 141.846 310.134 142.061 310.442C142.285 310.75 142.565 310.993 142.901 311.17C143.246 311.347 143.619 311.436 144.021 311.436C144.366 311.436 144.697 311.385 145.015 311.282C145.341 311.17 145.612 311.011 145.827 310.806L146.723 311.688C146.303 312.005 145.869 312.243 145.421 312.402C144.982 312.551 144.497 312.626 143.965 312.626ZM141.641 308.342H145.855C145.799 307.969 145.668 307.642 145.463 307.362C145.267 307.073 145.019 306.849 144.721 306.69C144.431 306.522 144.114 306.438 143.769 306.438C143.414 306.438 143.087 306.517 142.789 306.676C142.49 306.835 142.238 307.059 142.033 307.348C141.837 307.628 141.706 307.959 141.641 308.342ZM150.732 312.626C150.219 312.626 149.766 312.537 149.374 312.36C148.982 312.173 148.674 311.917 148.45 311.59C148.226 311.263 148.114 310.885 148.114 310.456C148.114 309.784 148.371 309.257 148.884 308.874C149.398 308.482 150.102 308.286 150.998 308.286C151.698 308.286 152.347 308.421 152.944 308.692V307.936C152.944 307.423 152.795 307.04 152.496 306.788C152.207 306.536 151.778 306.41 151.208 306.41C150.882 306.41 150.541 306.461 150.186 306.564C149.832 306.657 149.435 306.807 148.996 307.012L148.478 305.962C149.02 305.71 149.524 305.528 149.99 305.416C150.457 305.295 150.928 305.234 151.404 305.234C152.328 305.234 153.042 305.453 153.546 305.892C154.06 306.331 154.316 306.956 154.316 307.768V312.5H152.944V311.884C152.627 312.136 152.286 312.323 151.922 312.444C151.558 312.565 151.162 312.626 150.732 312.626ZM149.458 310.428C149.458 310.773 149.603 311.053 149.892 311.268C150.191 311.483 150.578 311.59 151.054 311.59C151.428 311.59 151.768 311.534 152.076 311.422C152.394 311.31 152.683 311.137 152.944 310.904V309.7C152.674 309.541 152.389 309.429 152.09 309.364C151.801 309.289 151.474 309.252 151.11 309.252C150.597 309.252 150.191 309.359 149.892 309.574C149.603 309.779 149.458 310.064 149.458 310.428ZM155.93 312.5V305.374H157.33V306.284C157.554 305.948 157.829 305.687 158.156 305.5C158.492 305.304 158.87 305.206 159.29 305.206C159.579 305.215 159.817 305.257 160.004 305.332V306.592C159.873 306.536 159.738 306.499 159.598 306.48C159.458 306.452 159.318 306.438 159.178 306.438C158.767 306.438 158.403 306.55 158.086 306.774C157.768 306.989 157.516 307.306 157.33 307.726V312.5H155.93ZM164.061 312.626C163.379 312.626 162.759 312.463 162.199 312.136C161.639 311.809 161.195 311.366 160.869 310.806C160.551 310.246 160.393 309.621 160.393 308.93C160.393 308.239 160.556 307.619 160.883 307.068C161.209 306.508 161.648 306.065 162.199 305.738C162.759 305.402 163.379 305.234 164.061 305.234C164.602 305.234 165.12 305.337 165.615 305.542C166.119 305.747 166.553 306.037 166.917 306.41L166.049 307.376C165.778 307.077 165.475 306.853 165.139 306.704C164.803 306.555 164.453 306.48 164.089 306.48C163.659 306.48 163.267 306.587 162.913 306.802C162.567 307.017 162.292 307.311 162.087 307.684C161.881 308.057 161.779 308.473 161.779 308.93C161.779 309.387 161.881 309.803 162.087 310.176C162.292 310.549 162.572 310.848 162.927 311.072C163.281 311.287 163.678 311.394 164.117 311.394C164.481 311.394 164.821 311.324 165.139 311.184C165.456 311.035 165.755 310.82 166.035 310.54L166.889 311.436C166.515 311.819 166.081 312.113 165.587 312.318C165.101 312.523 164.593 312.626 164.061 312.626ZM168.015 312.5V302.7L169.415 302.392V306.102C169.966 305.523 170.68 305.234 171.557 305.234C172.108 305.234 172.589 305.351 172.999 305.584C173.419 305.817 173.746 306.144 173.979 306.564C174.222 306.984 174.343 307.469 174.343 308.02V312.5H172.943V308.258C172.943 307.698 172.785 307.259 172.467 306.942C172.15 306.615 171.716 306.452 171.165 306.452C170.792 306.452 170.456 306.531 170.157 306.69C169.859 306.849 169.611 307.077 169.415 307.376V312.5H168.015ZM182.021 312.654C181.115 312.654 180.341 312.425 179.697 311.968C179.053 311.501 178.586 310.843 178.297 309.994L179.641 309.462C179.874 310.087 180.187 310.554 180.579 310.862C180.98 311.161 181.461 311.31 182.021 311.31C182.749 311.31 183.327 311.077 183.757 310.61C184.195 310.143 184.415 309.518 184.415 308.734V302.7H185.885V308.762C185.885 309.546 185.726 310.232 185.409 310.82C185.091 311.399 184.643 311.851 184.065 312.178C183.486 312.495 182.805 312.654 182.021 312.654ZM190.913 312.64C190.223 312.64 189.593 312.477 189.023 312.15C188.463 311.823 188.02 311.38 187.693 310.82C187.367 310.26 187.203 309.635 187.203 308.944C187.203 308.253 187.367 307.628 187.693 307.068C188.02 306.508 188.463 306.065 189.023 305.738C189.593 305.402 190.223 305.234 190.913 305.234C191.613 305.234 192.243 305.402 192.803 305.738C193.363 306.065 193.807 306.508 194.133 307.068C194.46 307.628 194.623 308.253 194.623 308.944C194.623 309.635 194.46 310.26 194.133 310.82C193.807 311.38 193.363 311.823 192.803 312.15C192.243 312.477 191.613 312.64 190.913 312.64ZM190.913 311.408C191.352 311.408 191.749 311.301 192.103 311.086C192.458 310.862 192.738 310.563 192.943 310.19C193.149 309.817 193.251 309.397 193.251 308.93C193.251 308.473 193.144 308.062 192.929 307.698C192.724 307.325 192.444 307.026 192.089 306.802C191.744 306.578 191.352 306.466 190.913 306.466C190.475 306.466 190.078 306.578 189.723 306.802C189.378 307.026 189.098 307.325 188.883 307.698C188.678 308.062 188.575 308.473 188.575 308.93C188.575 309.397 188.678 309.817 188.883 310.19C189.089 310.563 189.369 310.862 189.723 311.086C190.078 311.301 190.475 311.408 190.913 311.408ZM195.947 312.5V302.7L197.347 302.434V306.046C197.944 305.523 198.668 305.262 199.517 305.262C200.189 305.262 200.796 305.425 201.337 305.752C201.888 306.079 202.322 306.517 202.639 307.068C202.956 307.619 203.115 308.239 203.115 308.93C203.115 309.621 202.952 310.246 202.625 310.806C202.308 311.357 201.874 311.795 201.323 312.122C200.782 312.449 200.17 312.612 199.489 312.612C199.097 312.612 198.714 312.551 198.341 312.43C197.977 312.299 197.641 312.117 197.333 311.884V312.5H195.947ZM199.335 311.394C199.792 311.394 200.198 311.287 200.553 311.072C200.917 310.857 201.206 310.568 201.421 310.204C201.636 309.831 201.743 309.411 201.743 308.944C201.743 308.477 201.636 308.057 201.421 307.684C201.206 307.311 200.917 307.017 200.553 306.802C200.198 306.587 199.792 306.48 199.335 306.48C198.934 306.48 198.56 306.555 198.215 306.704C197.87 306.853 197.58 307.063 197.347 307.334V310.554C197.58 310.815 197.87 311.021 198.215 311.17C198.57 311.319 198.943 311.394 199.335 311.394Z" fill="white"/>
</svg>
