<svg width="256" height="32" viewBox="0 0 256 32" fill="none" xmlns="http://www.w3.org/2000/svg">
<path d="M1.42 23V9H11.78V10.84H3.52V15.14H8.96V16.92H3.52V23H1.42ZM16.352 23.2C15.3654 23.2 14.4654 22.9667 13.652 22.5C12.852 22.0333 12.2187 21.4 11.752 20.6C11.2854 19.8 11.052 18.9067 11.052 17.92C11.052 16.9333 11.2854 16.04 11.752 15.24C12.2187 14.44 12.852 13.8067 13.652 13.34C14.4654 12.86 15.3654 12.62 16.352 12.62C17.352 12.62 18.252 12.86 19.052 13.34C19.852 13.8067 20.4854 14.44 20.952 15.24C21.4187 16.04 21.652 16.9333 21.652 17.92C21.652 18.9067 21.4187 19.8 20.952 20.6C20.4854 21.4 19.852 22.0333 19.052 22.5C18.252 22.9667 17.352 23.2 16.352 23.2ZM16.352 21.44C16.9787 21.44 17.5454 21.2867 18.052 20.98C18.5587 20.66 18.9587 20.2333 19.252 19.7C19.5454 19.1667 19.692 18.5667 19.692 17.9C19.692 17.2467 19.5387 16.66 19.232 16.14C18.9387 15.6067 18.5387 15.18 18.032 14.86C17.5387 14.54 16.9787 14.38 16.352 14.38C15.7254 14.38 15.1587 14.54 14.652 14.86C14.1587 15.18 13.7587 15.6067 13.452 16.14C13.1587 16.66 13.012 17.2467 13.012 17.9C13.012 18.5667 13.1587 19.1667 13.452 19.7C13.7454 20.2333 14.1454 20.66 14.652 20.98C15.1587 21.2867 15.7254 21.44 16.352 21.44ZM23.5433 23V9L25.5433 8.62V23H23.5433ZM27.8988 23V9L29.8988 8.62V23H27.8988ZM37.0942 23.2C36.1076 23.2 35.2076 22.9667 34.3942 22.5C33.5942 22.0333 32.9609 21.4 32.4942 20.6C32.0276 19.8 31.7942 18.9067 31.7942 17.92C31.7942 16.9333 32.0276 16.04 32.4942 15.24C32.9609 14.44 33.5942 13.8067 34.3942 13.34C35.2076 12.86 36.1076 12.62 37.0942 12.62C38.0942 12.62 38.9942 12.86 39.7942 13.34C40.5942 13.8067 41.2276 14.44 41.6942 15.24C42.1609 16.04 42.3942 16.9333 42.3942 17.92C42.3942 18.9067 42.1609 19.8 41.6942 20.6C41.2276 21.4 40.5942 22.0333 39.7942 22.5C38.9942 22.9667 38.0942 23.2 37.0942 23.2ZM37.0942 21.44C37.7209 21.44 38.2876 21.2867 38.7942 20.98C39.3009 20.66 39.7009 20.2333 39.9942 19.7C40.2876 19.1667 40.4342 18.5667 40.4342 17.9C40.4342 17.2467 40.2809 16.66 39.9742 16.14C39.6809 15.6067 39.2809 15.18 38.7742 14.86C38.2809 14.54 37.7209 14.38 37.0942 14.38C36.4676 14.38 35.9009 14.54 35.3942 14.86C34.9009 15.18 34.5009 15.6067 34.1942 16.14C33.9009 16.66 33.7542 17.2467 33.7542 17.9C33.7542 18.5667 33.9009 19.1667 34.1942 19.7C34.4876 20.2333 34.8876 20.66 35.3942 20.98C35.9009 21.2867 36.4676 21.44 37.0942 21.44ZM45.9902 23L43.1502 12.82H45.0902L47.0702 20.3L49.3902 12.82H51.1102L53.4302 20.3L55.4102 12.82H57.2902L54.4302 23H52.5102L50.2302 15.54L47.9302 23H45.9902ZM66.8388 23.2C66.0521 23.2 65.3588 23.0333 64.7588 22.7C64.1588 22.3667 63.6921 21.9 63.3588 21.3C63.0254 20.6867 62.8588 19.9867 62.8588 19.2V12.82H64.8388V18.86C64.8388 19.66 65.0654 20.2933 65.5188 20.76C65.9854 21.2267 66.6054 21.46 67.3788 21.46C67.9254 21.46 68.4121 21.3467 68.8388 21.12C69.2654 20.88 69.6121 20.5467 69.8788 20.12V12.82H71.8788V23H69.8788V21.96C69.0921 22.7867 68.0788 23.2 66.8388 23.2ZM77.7464 23.2C76.8664 23.2 76.0397 23.0733 75.2664 22.82C74.5064 22.5533 73.8464 22.18 73.2864 21.7L74.3864 20.38C74.9064 20.7933 75.4397 21.1133 75.9864 21.34C76.5464 21.5533 77.1131 21.66 77.6864 21.66C78.4064 21.66 78.9931 21.52 79.4464 21.24C79.8997 20.96 80.1264 20.5933 80.1264 20.14C80.1264 19.7667 79.9931 19.4733 79.7264 19.26C79.4597 19.0467 79.0464 18.9 78.4864 18.82L76.6464 18.56C75.6331 18.4133 74.8731 18.1 74.3664 17.62C73.8597 17.14 73.6064 16.5 73.6064 15.7C73.6064 15.0867 73.7731 14.5533 74.1064 14.1C74.4397 13.6333 74.9064 13.2733 75.5064 13.02C76.1064 12.7533 76.8064 12.62 77.6064 12.62C78.3397 12.62 79.0464 12.7267 79.7264 12.94C80.4064 13.1533 81.0597 13.4867 81.6864 13.94L80.6664 15.26C80.1064 14.8867 79.5597 14.6133 79.0264 14.44C78.5064 14.2667 77.9797 14.18 77.4464 14.18C76.8331 14.18 76.3397 14.3133 75.9664 14.58C75.5931 14.8333 75.4064 15.1667 75.4064 15.58C75.4064 15.9533 75.5331 16.2467 75.7864 16.46C76.0531 16.66 76.4864 16.8 77.0864 16.88L78.9264 17.14C79.9397 17.2867 80.7064 17.6 81.2264 18.08C81.7464 18.5467 82.0064 19.18 82.0064 19.98C82.0064 20.5933 81.8197 21.1467 81.4464 21.64C81.0731 22.12 80.5664 22.5 79.9264 22.78C79.2864 23.06 78.5597 23.2 77.7464 23.2ZM84.8633 23.14C84.5166 23.14 84.2166 23.02 83.9633 22.78C83.7233 22.5267 83.6033 22.2267 83.6033 21.88C83.6033 21.5333 83.7233 21.24 83.9633 21C84.2166 20.7467 84.5166 20.62 84.8633 20.62C85.2099 20.62 85.5033 20.7467 85.7433 21C85.9966 21.24 86.1233 21.5333 86.1233 21.88C86.1233 22.2267 85.9966 22.5267 85.7433 22.78C85.5033 23.02 85.2099 23.14 84.8633 23.14ZM84.8633 15.14C84.5166 15.14 84.2166 15.02 83.9633 14.78C83.7233 14.5267 83.6033 14.2267 83.6033 13.88C83.6033 13.5333 83.7233 13.24 83.9633 13C84.2166 12.7467 84.5166 12.62 84.8633 12.62C85.2099 12.62 85.5033 12.7467 85.7433 13C85.9966 13.24 86.1233 13.5333 86.1233 13.88C86.1233 14.2267 85.9966 14.5267 85.7433 14.78C85.5033 15.02 85.2099 15.14 84.8633 15.14Z" fill="#202826"/>
<g clip-path="url(#clip0_142_1500)">
<path d="M139.265 27.2658H134.524V19.8405C134.524 18.0698 134.492 15.7905 132.058 15.7905C129.588 15.7905 129.211 17.7197 129.211 19.7116V27.2653H124.469V11.9958H129.021V14.0826H129.085C129.54 13.3037 130.198 12.663 130.989 12.2286C131.78 11.7942 132.674 11.5825 133.576 11.616C138.381 11.616 139.267 14.777 139.267 18.8892L139.265 27.2658ZM119.119 9.90871C117.6 9.90896 116.368 8.67721 116.367 7.15758C116.367 5.63796 117.599 4.40583 119.118 4.40558C120.638 4.40521 121.87 5.63696 121.87 7.15658C121.87 7.88634 121.581 8.58626 121.065 9.10238C120.549 9.6185 119.849 9.90854 119.119 9.90871ZM121.49 27.266H116.744V11.9958H121.49V27.2658L121.49 27.266ZM141.629 0.00220692H114.361C113.072 -0.0122931 112.016 1.02008 112 2.30883V29.6905C112.015 30.9798 113.072 32.0132 114.361 31.9997H141.629C142.921 32.0157 143.982 30.9823 144 29.6905V2.30671C143.981 1.01546 142.92 -0.0167931 141.629 8.19162e-05" fill="#0A66C2"/>
</g>
<g clip-path="url(#clip1_142_1500)">
<path d="M168 0H200V32H168V0Z" fill="black"/>
<path fill-rule="evenodd" clip-rule="evenodd" d="M180.002 6.125H173.188L181.267 16.7973L173.704 25.75H177.199L182.919 18.9788L187.998 25.6877H194.812L186.498 14.7052L186.513 14.7242L193.672 6.24963H190.177L184.861 12.543L180.002 6.125ZM176.949 7.99406H179.071L191.051 23.8186H188.929L176.949 7.99406Z" fill="white"/>
</g>
<g clip-path="url(#clip2_142_1500)">
<path d="M251.2 0H228.8C226.149 0 224 2.14903 224 4.8V27.2C224 29.851 226.149 32 228.8 32H251.2C253.851 32 256 29.851 256 27.2V4.8C256 2.14903 253.851 0 251.2 0Z" fill="#3B5998"/>
<path d="M241.938 28.5V9.8125C241.938 8.5 242.312 7.625 244.125 7.625H246.5V3.6875C246.062 3.625 244.688 3.5 243.062 3.5C239.688 3.5 237.375 5.5625 237.375 9.375V28.5M246.312 12.625H233.5V17.125H245.75" fill="white"/>
</g>
<defs>
<clipPath id="clip0_142_1500">
<rect width="32" height="32" fill="white" transform="translate(112)"/>
</clipPath>
<clipPath id="clip1_142_1500">
<rect width="32" height="32" fill="white" transform="translate(168)"/>
</clipPath>
<clipPath id="clip2_142_1500">
<rect width="32" height="32" fill="white" transform="translate(224)"/>
</clipPath>
</defs>
</svg>
