<svg width="500" height="48" viewBox="0 0 500 48" fill="none" xmlns="http://www.w3.org/2000/svg">
<rect x="0.5" y="0.5" width="499" height="47" rx="7.5" stroke="#BEC2C1"/>
<path d="M182 24.2222C182 23.3999 181.932 22.7999 181.785 22.1777H172.204V25.8888H177.828C177.714 26.8111 177.102 28.1999 175.741 29.1332L175.722 29.2575L178.752 31.5572L178.961 31.5777C180.889 29.8333 182 27.2666 182 24.2222Z" fill="#4285F4"/>
<path d="M172.204 34C174.959 34 177.272 33.1111 178.961 31.5778L175.741 29.1333C174.88 29.7222 173.723 30.1333 172.204 30.1333C169.506 30.1333 167.215 28.3889 166.399 25.9778L166.279 25.9877L163.13 28.3766L163.088 28.4889C164.766 31.7555 168.213 34 172.204 34Z" fill="#34A853"/>
<path d="M166.399 25.9778C166.184 25.3555 166.059 24.6888 166.059 24C166.059 23.311 166.184 22.6444 166.388 22.0222L166.382 21.8897L163.193 19.4624L163.088 19.511C162.397 20.8666 162 22.3889 162 24C162 25.6111 162.397 27.1333 163.088 28.4888L166.399 25.9778Z" fill="#FBBC05"/>
<path d="M172.204 17.8666C174.12 17.8666 175.413 18.6777 176.15 19.3556L179.029 16.6C177.261 14.9889 174.959 14 172.204 14C168.213 14 164.766 16.2444 163.088 19.5111L166.388 22.0222C167.215 19.6111 169.506 17.8666 172.204 17.8666Z" fill="#EB4335"/>
<path d="M199.712 28.64C198.984 28.64 198.303 28.514 197.668 28.262C197.033 28.0007 196.478 27.6413 196.002 27.184C195.535 26.7267 195.167 26.1947 194.896 25.588C194.635 24.972 194.504 24.3093 194.504 23.6C194.504 22.8813 194.635 22.2187 194.896 21.612C195.167 20.996 195.54 20.4593 196.016 20.002C196.492 19.5447 197.043 19.19 197.668 18.938C198.303 18.6767 198.984 18.546 199.712 18.546C200.253 18.546 200.776 18.6207 201.28 18.77C201.784 18.9193 202.251 19.1293 202.68 19.4C203.119 19.6707 203.492 19.9973 203.8 20.38L202.428 21.738C202.073 21.2993 201.663 20.968 201.196 20.744C200.739 20.52 200.244 20.408 199.712 20.408C199.273 20.408 198.863 20.492 198.48 20.66C198.097 20.8187 197.766 21.0427 197.486 21.332C197.206 21.612 196.987 21.948 196.828 22.34C196.669 22.7227 196.59 23.1427 196.59 23.6C196.59 24.048 196.669 24.468 196.828 24.86C196.987 25.2427 197.211 25.5787 197.5 25.868C197.789 26.148 198.125 26.3673 198.508 26.526C198.9 26.6847 199.325 26.764 199.782 26.764C200.295 26.764 200.776 26.6567 201.224 26.442C201.672 26.2273 202.069 25.9193 202.414 25.518L203.744 26.834C203.436 27.2073 203.067 27.5293 202.638 27.8C202.209 28.0707 201.742 28.2807 201.238 28.43C200.743 28.57 200.235 28.64 199.712 28.64ZM208.156 28.64C207.428 28.64 206.77 28.472 206.182 28.136C205.594 27.8 205.127 27.3473 204.782 26.778C204.436 26.2087 204.264 25.5693 204.264 24.86C204.264 24.1507 204.432 23.5113 204.768 22.942C205.113 22.3633 205.58 21.906 206.168 21.57C206.765 21.234 207.428 21.066 208.156 21.066C208.884 21.066 209.542 21.234 210.13 21.57C210.727 21.906 211.194 22.3633 211.53 22.942C211.875 23.5113 212.048 24.1507 212.048 24.86C212.048 25.5693 211.875 26.2087 211.53 26.778C211.194 27.3473 210.732 27.8 210.144 28.136C209.556 28.472 208.893 28.64 208.156 28.64ZM208.156 26.974C208.538 26.974 208.879 26.8807 209.178 26.694C209.486 26.5073 209.728 26.2553 209.906 25.938C210.092 25.6113 210.186 25.252 210.186 24.86C210.186 24.4587 210.092 24.0993 209.906 23.782C209.728 23.4647 209.486 23.2127 209.178 23.026C208.879 22.83 208.538 22.732 208.156 22.732C207.782 22.732 207.442 22.83 207.134 23.026C206.826 23.2127 206.583 23.4647 206.406 23.782C206.228 24.0993 206.14 24.4587 206.14 24.86C206.14 25.252 206.228 25.6113 206.406 25.938C206.583 26.2553 206.826 26.5073 207.134 26.694C207.442 26.8807 207.782 26.974 208.156 26.974ZM213.227 28.5V21.206H215.145V21.808C215.695 21.3133 216.377 21.066 217.189 21.066C217.758 21.066 218.257 21.192 218.687 21.444C219.125 21.6867 219.466 22.0273 219.709 22.466C219.951 22.8953 220.073 23.3993 220.073 23.978V28.5H218.155V24.258C218.155 23.782 218.019 23.4087 217.749 23.138C217.478 22.858 217.109 22.718 216.643 22.718C216.316 22.718 216.027 22.7833 215.775 22.914C215.523 23.0353 215.313 23.2127 215.145 23.446V28.5H213.227ZM224.778 28.612C223.966 28.612 223.35 28.43 222.93 28.066C222.52 27.6927 222.314 27.1513 222.314 26.442V22.802H220.816V21.206H222.314V19.344L224.232 18.91V21.206H226.318V22.802H224.232V26.05C224.232 26.386 224.307 26.6287 224.456 26.778C224.606 26.918 224.867 26.988 225.24 26.988C225.427 26.988 225.595 26.9787 225.744 26.96C225.903 26.932 226.076 26.8853 226.262 26.82V28.402C226.066 28.4673 225.819 28.5187 225.52 28.556C225.231 28.5933 224.984 28.612 224.778 28.612ZM227.254 28.5V21.206H229.172V28.5H227.254ZM228.206 20.338C227.907 20.338 227.651 20.2307 227.436 20.016C227.221 19.8013 227.114 19.5447 227.114 19.246C227.114 18.938 227.221 18.6813 227.436 18.476C227.651 18.2613 227.907 18.154 228.206 18.154C228.514 18.154 228.771 18.2613 228.976 18.476C229.191 18.6813 229.298 18.938 229.298 19.246C229.298 19.5447 229.191 19.8013 228.976 20.016C228.771 20.2307 228.514 20.338 228.206 20.338ZM230.672 28.5V21.206H232.59V21.808C233.141 21.3133 233.822 21.066 234.634 21.066C235.203 21.066 235.703 21.192 236.132 21.444C236.571 21.6867 236.911 22.0273 237.154 22.466C237.397 22.8953 237.518 23.3993 237.518 23.978V28.5H235.6V24.258C235.6 23.782 235.465 23.4087 235.194 23.138C234.923 22.858 234.555 22.718 234.088 22.718C233.761 22.718 233.472 22.7833 233.22 22.914C232.968 23.0353 232.758 23.2127 232.59 23.446V28.5H230.672ZM241.73 28.64C241.17 28.64 240.671 28.5187 240.232 28.276C239.803 28.024 239.462 27.6787 239.21 27.24C238.968 26.8013 238.846 26.2973 238.846 25.728V21.206H240.764V25.448C240.764 25.9147 240.9 26.288 241.17 26.568C241.45 26.848 241.824 26.988 242.29 26.988C242.608 26.988 242.892 26.9273 243.144 26.806C243.406 26.6753 243.62 26.4933 243.788 26.26V21.206H245.706V28.5H243.788V27.912C243.228 28.3973 242.542 28.64 241.73 28.64ZM250.771 28.64C250.043 28.64 249.381 28.472 248.783 28.136C248.195 27.8 247.729 27.3473 247.383 26.778C247.038 26.2087 246.865 25.5693 246.865 24.86C246.865 24.1507 247.029 23.5113 247.355 22.942C247.691 22.3727 248.144 21.92 248.713 21.584C249.283 21.248 249.917 21.08 250.617 21.08C251.317 21.08 251.938 21.2527 252.479 21.598C253.021 21.9433 253.445 22.41 253.753 22.998C254.071 23.586 254.229 24.2533 254.229 25V25.504H248.825C248.909 25.7933 249.045 26.0547 249.231 26.288C249.427 26.5213 249.665 26.7033 249.945 26.834C250.235 26.9647 250.543 27.03 250.869 27.03C251.196 27.03 251.495 26.9787 251.765 26.876C252.045 26.7733 252.283 26.6287 252.479 26.442L253.739 27.59C253.291 27.954 252.829 28.22 252.353 28.388C251.887 28.556 251.359 28.64 250.771 28.64ZM248.797 24.132H252.339C252.274 23.8427 252.153 23.5907 251.975 23.376C251.807 23.152 251.602 22.9793 251.359 22.858C251.126 22.7273 250.865 22.662 250.575 22.662C250.277 22.662 250.006 22.7227 249.763 22.844C249.521 22.9653 249.315 23.138 249.147 23.362C248.989 23.5767 248.872 23.8333 248.797 24.132ZM259.607 28.5L257.605 21.206H259.425L260.629 25.91L262.085 21.206H263.695L265.137 25.924L266.341 21.206H268.133L266.117 28.5H264.283L262.869 23.838L261.455 28.5H259.607ZM269.035 28.5V21.206H270.953V28.5H269.035ZM269.987 20.338C269.689 20.338 269.432 20.2307 269.217 20.016C269.003 19.8013 268.895 19.5447 268.895 19.246C268.895 18.938 269.003 18.6813 269.217 18.476C269.432 18.2613 269.689 18.154 269.987 18.154C270.295 18.154 270.552 18.2613 270.757 18.476C270.972 18.6813 271.079 18.938 271.079 19.246C271.079 19.5447 270.972 19.8013 270.757 20.016C270.552 20.2307 270.295 20.338 269.987 20.338ZM275.911 28.612C275.099 28.612 274.483 28.43 274.063 28.066C273.653 27.6927 273.447 27.1513 273.447 26.442V22.802H271.949V21.206H273.447V19.344L275.365 18.91V21.206H277.451V22.802H275.365V26.05C275.365 26.386 275.44 26.6287 275.589 26.778C275.739 26.918 276 26.988 276.373 26.988C276.56 26.988 276.728 26.9787 276.877 26.96C277.036 26.932 277.209 26.8853 277.395 26.82V28.402C277.199 28.4673 276.952 28.5187 276.653 28.556C276.364 28.5933 276.117 28.612 275.911 28.612ZM278.387 28.5V18.7L280.305 18.28V21.808C280.856 21.3133 281.537 21.066 282.349 21.066C282.918 21.066 283.418 21.192 283.847 21.444C284.286 21.6867 284.626 22.0273 284.869 22.466C285.112 22.8953 285.233 23.3993 285.233 23.978V28.5H283.315V24.258C283.315 23.782 283.18 23.4087 282.909 23.138C282.638 22.858 282.27 22.718 281.803 22.718C281.476 22.718 281.187 22.7833 280.935 22.914C280.683 23.0353 280.473 23.2127 280.305 23.446V28.5H278.387ZM294.444 28.654C293.716 28.654 293.039 28.528 292.414 28.276C291.789 28.0147 291.238 27.6553 290.762 27.198C290.286 26.7313 289.913 26.1947 289.642 25.588C289.381 24.972 289.25 24.3093 289.25 23.6C289.25 22.8907 289.381 22.2327 289.642 21.626C289.913 21.01 290.281 20.4733 290.748 20.016C291.215 19.5493 291.761 19.19 292.386 18.938C293.021 18.6767 293.697 18.546 294.416 18.546C295.228 18.546 295.993 18.7093 296.712 19.036C297.431 19.3533 298.023 19.8013 298.49 20.38L297.076 21.682C296.74 21.262 296.343 20.9447 295.886 20.73C295.429 20.5153 294.939 20.408 294.416 20.408C293.977 20.408 293.571 20.492 293.198 20.66C292.825 20.8187 292.498 21.0427 292.218 21.332C291.938 21.612 291.719 21.948 291.56 22.34C291.411 22.7227 291.336 23.1427 291.336 23.6C291.336 24.0573 291.415 24.482 291.574 24.874C291.733 25.266 291.952 25.6067 292.232 25.896C292.521 26.176 292.853 26.4 293.226 26.568C293.609 26.7267 294.024 26.806 294.472 26.806C294.939 26.806 295.359 26.722 295.732 26.554C296.105 26.3767 296.418 26.134 296.67 25.826C296.931 25.5087 297.104 25.154 297.188 24.762H294.29V22.998H299.358V23.614C299.358 24.342 299.232 25.014 298.98 25.63C298.737 26.2367 298.397 26.7687 297.958 27.226C297.519 27.674 297.001 28.024 296.404 28.276C295.807 28.528 295.153 28.654 294.444 28.654ZM304.173 28.64C303.445 28.64 302.787 28.472 302.199 28.136C301.611 27.8 301.145 27.3473 300.799 26.778C300.454 26.2087 300.281 25.5693 300.281 24.86C300.281 24.1507 300.449 23.5113 300.785 22.942C301.131 22.3633 301.597 21.906 302.185 21.57C302.783 21.234 303.445 21.066 304.173 21.066C304.901 21.066 305.559 21.234 306.147 21.57C306.745 21.906 307.211 22.3633 307.547 22.942C307.893 23.5113 308.065 24.1507 308.065 24.86C308.065 25.5693 307.893 26.2087 307.547 26.778C307.211 27.3473 306.749 27.8 306.161 28.136C305.573 28.472 304.911 28.64 304.173 28.64ZM304.173 26.974C304.556 26.974 304.897 26.8807 305.195 26.694C305.503 26.5073 305.746 26.2553 305.923 25.938C306.11 25.6113 306.203 25.252 306.203 24.86C306.203 24.4587 306.11 24.0993 305.923 23.782C305.746 23.4647 305.503 23.2127 305.195 23.026C304.897 22.83 304.556 22.732 304.173 22.732C303.8 22.732 303.459 22.83 303.151 23.026C302.843 23.2127 302.601 23.4647 302.423 23.782C302.246 24.0993 302.157 24.4587 302.157 24.86C302.157 25.252 302.246 25.6113 302.423 25.938C302.601 26.2553 302.843 26.5073 303.151 26.694C303.459 26.8807 303.8 26.974 304.173 26.974ZM312.8 28.64C312.072 28.64 311.414 28.472 310.826 28.136C310.238 27.8 309.772 27.3473 309.426 26.778C309.081 26.2087 308.908 25.5693 308.908 24.86C308.908 24.1507 309.076 23.5113 309.412 22.942C309.758 22.3633 310.224 21.906 310.812 21.57C311.41 21.234 312.072 21.066 312.8 21.066C313.528 21.066 314.186 21.234 314.774 21.57C315.372 21.906 315.838 22.3633 316.174 22.942C316.52 23.5113 316.692 24.1507 316.692 24.86C316.692 25.5693 316.52 26.2087 316.174 26.778C315.838 27.3473 315.376 27.8 314.788 28.136C314.2 28.472 313.538 28.64 312.8 28.64ZM312.8 26.974C313.183 26.974 313.524 26.8807 313.822 26.694C314.13 26.5073 314.373 26.2553 314.55 25.938C314.737 25.6113 314.83 25.252 314.83 24.86C314.83 24.4587 314.737 24.0993 314.55 23.782C314.373 23.4647 314.13 23.2127 313.822 23.026C313.524 22.83 313.183 22.732 312.8 22.732C312.427 22.732 312.086 22.83 311.778 23.026C311.47 23.2127 311.228 23.4647 311.05 23.782C310.873 24.0993 310.784 24.4587 310.784 24.86C310.784 25.252 310.873 25.6113 311.05 25.938C311.228 26.2553 311.47 26.5073 311.778 26.694C312.086 26.8807 312.427 26.974 312.8 26.974ZM321.539 31.496C320.979 31.496 320.438 31.4353 319.915 31.314C319.393 31.202 318.921 31.0387 318.501 30.824L319.173 29.34C319.575 29.536 319.967 29.6807 320.349 29.774C320.732 29.8673 321.115 29.914 321.497 29.914C322.067 29.914 322.496 29.7927 322.785 29.55C323.084 29.3073 323.233 28.9433 323.233 28.458V27.884C322.636 28.3227 321.969 28.542 321.231 28.542C320.541 28.542 319.915 28.3787 319.355 28.052C318.805 27.716 318.361 27.2633 318.025 26.694C317.699 26.1247 317.535 25.4947 317.535 24.804C317.535 24.1133 317.699 23.488 318.025 22.928C318.361 22.368 318.814 21.9247 319.383 21.598C319.953 21.262 320.587 21.094 321.287 21.094C321.642 21.094 321.987 21.1453 322.323 21.248C322.659 21.3507 322.972 21.4953 323.261 21.682V21.206H325.151V28.486C325.151 29.4473 324.839 30.1893 324.213 30.712C323.597 31.2347 322.706 31.496 321.539 31.496ZM321.525 26.918C321.88 26.918 322.202 26.862 322.491 26.75C322.781 26.6287 323.028 26.4607 323.233 26.246V23.39C323.028 23.1847 322.776 23.026 322.477 22.914C322.188 22.7927 321.875 22.732 321.539 22.732C321.138 22.732 320.779 22.8253 320.461 23.012C320.144 23.1893 319.892 23.4367 319.705 23.754C319.519 24.062 319.425 24.412 319.425 24.804C319.425 25.2053 319.514 25.5647 319.691 25.882C319.878 26.1993 320.13 26.4513 320.447 26.638C320.774 26.8247 321.133 26.918 321.525 26.918ZM326.649 28.5V18.7L328.567 18.378V28.5H326.649ZM333.637 28.64C332.909 28.64 332.246 28.472 331.649 28.136C331.061 27.8 330.594 27.3473 330.249 26.778C329.903 26.2087 329.731 25.5693 329.731 24.86C329.731 24.1507 329.894 23.5113 330.221 22.942C330.557 22.3727 331.009 21.92 331.579 21.584C332.148 21.248 332.783 21.08 333.483 21.08C334.183 21.08 334.803 21.2527 335.345 21.598C335.886 21.9433 336.311 22.41 336.619 22.998C336.936 23.586 337.095 24.2533 337.095 25V25.504H331.691C331.775 25.7933 331.91 26.0547 332.097 26.288C332.293 26.5213 332.531 26.7033 332.811 26.834C333.1 26.9647 333.408 27.03 333.735 27.03C334.061 27.03 334.36 26.9787 334.631 26.876C334.911 26.7733 335.149 26.6287 335.345 26.442L336.605 27.59C336.157 27.954 335.695 28.22 335.219 28.388C334.752 28.556 334.225 28.64 333.637 28.64ZM331.663 24.132H335.205C335.139 23.8427 335.018 23.5907 334.841 23.376C334.673 23.152 334.467 22.9793 334.225 22.858C333.991 22.7273 333.73 22.662 333.441 22.662C333.142 22.662 332.871 22.7227 332.629 22.844C332.386 22.9653 332.181 23.138 332.013 23.362C331.854 23.5767 331.737 23.8333 331.663 24.132Z" fill="#2D3936"/>
</svg>

