<svg width="500" height="48" viewBox="0 0 500 48" fill="none" xmlns="http://www.w3.org/2000/svg">
<rect x="0.5" y="0.5" width="499" height="47" rx="7.5" stroke="#BEC2C1"/>
<g clip-path="url(#clip0_468_2990)">
<path d="M176.125 14.4688H159.875C159.506 14.4651 159.151 14.6077 158.888 14.8655C158.624 15.1233 158.473 15.4751 158.469 15.8438V32.1594C158.474 32.5276 158.625 32.8786 158.889 33.1357C159.152 33.3928 159.507 33.5351 159.875 33.5313H176.125C176.494 33.5342 176.849 33.3911 177.112 33.1332C177.376 32.8752 177.526 32.5235 177.531 32.1548V15.8391C177.525 15.4715 177.373 15.1214 177.11 14.8648C176.847 14.6082 176.493 14.4659 176.125 14.4688Z" fill="#0076B2"/>
<path d="M161.291 21.614H164.12V30.7187H161.291V21.614ZM162.706 17.0828C163.031 17.0828 163.348 17.179 163.618 17.3594C163.888 17.5397 164.098 17.796 164.222 18.0959C164.346 18.3958 164.379 18.7257 164.315 19.044C164.252 19.3623 164.095 19.6547 163.866 19.884C163.636 20.1134 163.344 20.2696 163.025 20.3327C162.707 20.3958 162.377 20.3631 162.077 20.2387C161.778 20.1143 161.521 19.9037 161.341 19.6337C161.161 19.3637 161.065 19.0464 161.066 18.7218C161.066 18.287 161.239 17.8701 161.547 17.5627C161.854 17.2554 162.271 17.0828 162.706 17.0828ZM165.895 21.614H168.608V22.864H168.645C169.023 22.1484 169.945 21.3937 171.322 21.3937C174.188 21.3875 174.719 23.2734 174.719 25.7187V30.7187H171.889V26.289C171.889 25.2343 171.87 23.8765 170.419 23.8765C168.967 23.8765 168.72 25.0265 168.72 26.2203V30.7187H165.895V21.614Z" fill="white"/>
</g>
<path d="M195.712 28.64C194.984 28.64 194.303 28.514 193.668 28.262C193.033 28.0007 192.478 27.6413 192.002 27.184C191.535 26.7267 191.167 26.1947 190.896 25.588C190.635 24.972 190.504 24.3093 190.504 23.6C190.504 22.8813 190.635 22.2187 190.896 21.612C191.167 20.996 191.54 20.4593 192.016 20.002C192.492 19.5447 193.043 19.19 193.668 18.938C194.303 18.6767 194.984 18.546 195.712 18.546C196.253 18.546 196.776 18.6207 197.28 18.77C197.784 18.9193 198.251 19.1293 198.68 19.4C199.119 19.6707 199.492 19.9973 199.8 20.38L198.428 21.738C198.073 21.2993 197.663 20.968 197.196 20.744C196.739 20.52 196.244 20.408 195.712 20.408C195.273 20.408 194.863 20.492 194.48 20.66C194.097 20.8187 193.766 21.0427 193.486 21.332C193.206 21.612 192.987 21.948 192.828 22.34C192.669 22.7227 192.59 23.1427 192.59 23.6C192.59 24.048 192.669 24.468 192.828 24.86C192.987 25.2427 193.211 25.5787 193.5 25.868C193.789 26.148 194.125 26.3673 194.508 26.526C194.9 26.6847 195.325 26.764 195.782 26.764C196.295 26.764 196.776 26.6567 197.224 26.442C197.672 26.2273 198.069 25.9193 198.414 25.518L199.744 26.834C199.436 27.2073 199.067 27.5293 198.638 27.8C198.209 28.0707 197.742 28.2807 197.238 28.43C196.743 28.57 196.235 28.64 195.712 28.64ZM204.156 28.64C203.428 28.64 202.77 28.472 202.182 28.136C201.594 27.8 201.127 27.3473 200.782 26.778C200.436 26.2087 200.264 25.5693 200.264 24.86C200.264 24.1507 200.432 23.5113 200.768 22.942C201.113 22.3633 201.58 21.906 202.168 21.57C202.765 21.234 203.428 21.066 204.156 21.066C204.884 21.066 205.542 21.234 206.13 21.57C206.727 21.906 207.194 22.3633 207.53 22.942C207.875 23.5113 208.048 24.1507 208.048 24.86C208.048 25.5693 207.875 26.2087 207.53 26.778C207.194 27.3473 206.732 27.8 206.144 28.136C205.556 28.472 204.893 28.64 204.156 28.64ZM204.156 26.974C204.538 26.974 204.879 26.8807 205.178 26.694C205.486 26.5073 205.728 26.2553 205.906 25.938C206.092 25.6113 206.186 25.252 206.186 24.86C206.186 24.4587 206.092 24.0993 205.906 23.782C205.728 23.4647 205.486 23.2127 205.178 23.026C204.879 22.83 204.538 22.732 204.156 22.732C203.782 22.732 203.442 22.83 203.134 23.026C202.826 23.2127 202.583 23.4647 202.406 23.782C202.228 24.0993 202.14 24.4587 202.14 24.86C202.14 25.252 202.228 25.6113 202.406 25.938C202.583 26.2553 202.826 26.5073 203.134 26.694C203.442 26.8807 203.782 26.974 204.156 26.974ZM209.227 28.5V21.206H211.145V21.808C211.695 21.3133 212.377 21.066 213.189 21.066C213.758 21.066 214.257 21.192 214.687 21.444C215.125 21.6867 215.466 22.0273 215.709 22.466C215.951 22.8953 216.073 23.3993 216.073 23.978V28.5H214.155V24.258C214.155 23.782 214.019 23.4087 213.749 23.138C213.478 22.858 213.109 22.718 212.643 22.718C212.316 22.718 212.027 22.7833 211.775 22.914C211.523 23.0353 211.313 23.2127 211.145 23.446V28.5H209.227ZM220.778 28.612C219.966 28.612 219.35 28.43 218.93 28.066C218.52 27.6927 218.314 27.1513 218.314 26.442V22.802H216.816V21.206H218.314V19.344L220.232 18.91V21.206H222.318V22.802H220.232V26.05C220.232 26.386 220.307 26.6287 220.456 26.778C220.606 26.918 220.867 26.988 221.24 26.988C221.427 26.988 221.595 26.9787 221.744 26.96C221.903 26.932 222.076 26.8853 222.262 26.82V28.402C222.066 28.4673 221.819 28.5187 221.52 28.556C221.231 28.5933 220.984 28.612 220.778 28.612ZM223.254 28.5V21.206H225.172V28.5H223.254ZM224.206 20.338C223.907 20.338 223.651 20.2307 223.436 20.016C223.221 19.8013 223.114 19.5447 223.114 19.246C223.114 18.938 223.221 18.6813 223.436 18.476C223.651 18.2613 223.907 18.154 224.206 18.154C224.514 18.154 224.771 18.2613 224.976 18.476C225.191 18.6813 225.298 18.938 225.298 19.246C225.298 19.5447 225.191 19.8013 224.976 20.016C224.771 20.2307 224.514 20.338 224.206 20.338ZM226.672 28.5V21.206H228.59V21.808C229.141 21.3133 229.822 21.066 230.634 21.066C231.203 21.066 231.703 21.192 232.132 21.444C232.571 21.6867 232.911 22.0273 233.154 22.466C233.397 22.8953 233.518 23.3993 233.518 23.978V28.5H231.6V24.258C231.6 23.782 231.465 23.4087 231.194 23.138C230.923 22.858 230.555 22.718 230.088 22.718C229.761 22.718 229.472 22.7833 229.22 22.914C228.968 23.0353 228.758 23.2127 228.59 23.446V28.5H226.672ZM237.73 28.64C237.17 28.64 236.671 28.5187 236.232 28.276C235.803 28.024 235.462 27.6787 235.21 27.24C234.968 26.8013 234.846 26.2973 234.846 25.728V21.206H236.764V25.448C236.764 25.9147 236.9 26.288 237.17 26.568C237.45 26.848 237.824 26.988 238.29 26.988C238.608 26.988 238.892 26.9273 239.144 26.806C239.406 26.6753 239.62 26.4933 239.788 26.26V21.206H241.706V28.5H239.788V27.912C239.228 28.3973 238.542 28.64 237.73 28.64ZM246.771 28.64C246.043 28.64 245.381 28.472 244.783 28.136C244.195 27.8 243.729 27.3473 243.383 26.778C243.038 26.2087 242.865 25.5693 242.865 24.86C242.865 24.1507 243.029 23.5113 243.355 22.942C243.691 22.3727 244.144 21.92 244.713 21.584C245.283 21.248 245.917 21.08 246.617 21.08C247.317 21.08 247.938 21.2527 248.479 21.598C249.021 21.9433 249.445 22.41 249.753 22.998C250.071 23.586 250.229 24.2533 250.229 25V25.504H244.825C244.909 25.7933 245.045 26.0547 245.231 26.288C245.427 26.5213 245.665 26.7033 245.945 26.834C246.235 26.9647 246.543 27.03 246.869 27.03C247.196 27.03 247.495 26.9787 247.765 26.876C248.045 26.7733 248.283 26.6287 248.479 26.442L249.739 27.59C249.291 27.954 248.829 28.22 248.353 28.388C247.887 28.556 247.359 28.64 246.771 28.64ZM244.797 24.132H248.339C248.274 23.8427 248.153 23.5907 247.975 23.376C247.807 23.152 247.602 22.9793 247.359 22.858C247.126 22.7273 246.865 22.662 246.575 22.662C246.277 22.662 246.006 22.7227 245.763 22.844C245.521 22.9653 245.315 23.138 245.147 23.362C244.989 23.5767 244.872 23.8333 244.797 24.132ZM255.607 28.5L253.605 21.206H255.425L256.629 25.91L258.085 21.206H259.695L261.137 25.924L262.341 21.206H264.133L262.117 28.5H260.283L258.869 23.838L257.455 28.5H255.607ZM265.035 28.5V21.206H266.953V28.5H265.035ZM265.987 20.338C265.689 20.338 265.432 20.2307 265.217 20.016C265.003 19.8013 264.895 19.5447 264.895 19.246C264.895 18.938 265.003 18.6813 265.217 18.476C265.432 18.2613 265.689 18.154 265.987 18.154C266.295 18.154 266.552 18.2613 266.757 18.476C266.972 18.6813 267.079 18.938 267.079 19.246C267.079 19.5447 266.972 19.8013 266.757 20.016C266.552 20.2307 266.295 20.338 265.987 20.338ZM271.911 28.612C271.099 28.612 270.483 28.43 270.063 28.066C269.653 27.6927 269.447 27.1513 269.447 26.442V22.802H267.949V21.206H269.447V19.344L271.365 18.91V21.206H273.451V22.802H271.365V26.05C271.365 26.386 271.44 26.6287 271.589 26.778C271.739 26.918 272 26.988 272.373 26.988C272.56 26.988 272.728 26.9787 272.877 26.96C273.036 26.932 273.209 26.8853 273.395 26.82V28.402C273.199 28.4673 272.952 28.5187 272.653 28.556C272.364 28.5933 272.117 28.612 271.911 28.612ZM274.387 28.5V18.7L276.305 18.28V21.808C276.856 21.3133 277.537 21.066 278.349 21.066C278.918 21.066 279.418 21.192 279.847 21.444C280.286 21.6867 280.626 22.0273 280.869 22.466C281.112 22.8953 281.233 23.3993 281.233 23.978V28.5H279.315V24.258C279.315 23.782 279.18 23.4087 278.909 23.138C278.638 22.858 278.27 22.718 277.803 22.718C277.476 22.718 277.187 22.7833 276.935 22.914C276.683 23.0353 276.473 23.2127 276.305 23.446V28.5H274.387ZM285.628 28.5V18.7H287.658V26.708H293.02V28.5H285.628ZM294.293 28.5V21.206H296.211V28.5H294.293ZM295.245 20.338C294.946 20.338 294.69 20.2307 294.475 20.016C294.26 19.8013 294.153 19.5447 294.153 19.246C294.153 18.938 294.26 18.6813 294.475 18.476C294.69 18.2613 294.946 18.154 295.245 18.154C295.553 18.154 295.81 18.2613 296.015 18.476C296.23 18.6813 296.337 18.938 296.337 19.246C296.337 19.5447 296.23 19.8013 296.015 20.016C295.81 20.2307 295.553 20.338 295.245 20.338ZM297.711 28.5V21.206H299.629V21.808C300.18 21.3133 300.861 21.066 301.673 21.066C302.242 21.066 302.742 21.192 303.171 21.444C303.61 21.6867 303.95 22.0273 304.193 22.466C304.436 22.8953 304.557 23.3993 304.557 23.978V28.5H302.639V24.258C302.639 23.782 302.504 23.4087 302.233 23.138C301.962 22.858 301.594 22.718 301.127 22.718C300.8 22.718 300.511 22.7833 300.259 22.914C300.007 23.0353 299.797 23.2127 299.629 23.446V28.5H297.711ZM306.01 28.5V18.7L307.928 18.378V24.272L311.078 21.206H313.248L309.804 24.552L313.458 28.5H311.008L307.928 25.168V28.5H306.01ZM316.908 28.64C316.18 28.64 315.517 28.472 314.92 28.136C314.332 27.8 313.865 27.3473 313.52 26.778C313.175 26.2087 313.002 25.5693 313.002 24.86C313.002 24.1507 313.165 23.5113 313.492 22.942C313.828 22.3727 314.281 21.92 314.85 21.584C315.419 21.248 316.054 21.08 316.754 21.08C317.454 21.08 318.075 21.2527 318.616 21.598C319.157 21.9433 319.582 22.41 319.89 22.998C320.207 23.586 320.366 24.2533 320.366 25V25.504H314.962C315.046 25.7933 315.181 26.0547 315.368 26.288C315.564 26.5213 315.802 26.7033 316.082 26.834C316.371 26.9647 316.679 27.03 317.006 27.03C317.333 27.03 317.631 26.9787 317.902 26.876C318.182 26.7733 318.42 26.6287 318.616 26.442L319.876 27.59C319.428 27.954 318.966 28.22 318.49 28.388C318.023 28.556 317.496 28.64 316.908 28.64ZM314.934 24.132H318.476C318.411 23.8427 318.289 23.5907 318.112 23.376C317.944 23.152 317.739 22.9793 317.496 22.858C317.263 22.7273 317.001 22.662 316.712 22.662C316.413 22.662 316.143 22.7227 315.9 22.844C315.657 22.9653 315.452 23.138 315.284 23.362C315.125 23.5767 315.009 23.8333 314.934 24.132ZM324.97 28.598C324.279 28.598 323.654 28.43 323.094 28.094C322.534 27.758 322.086 27.31 321.75 26.75C321.423 26.1807 321.26 25.546 321.26 24.846C321.26 24.146 321.423 23.516 321.75 22.956C322.086 22.3867 322.539 21.9387 323.108 21.612C323.677 21.276 324.317 21.108 325.026 21.108C325.39 21.108 325.74 21.1593 326.076 21.262C326.412 21.3553 326.725 21.4953 327.014 21.682V18.7L328.932 18.378V28.5H327.042V27.898C326.445 28.3647 325.754 28.598 324.97 28.598ZM325.278 26.96C325.633 26.96 325.955 26.904 326.244 26.792C326.543 26.6707 326.799 26.4933 327.014 26.26V23.418C326.799 23.2033 326.543 23.0353 326.244 22.914C325.945 22.7927 325.623 22.732 325.278 22.732C324.877 22.732 324.513 22.8253 324.186 23.012C323.869 23.1893 323.617 23.4413 323.43 23.768C323.243 24.0853 323.15 24.4447 323.15 24.846C323.15 25.2473 323.243 25.6067 323.43 25.924C323.617 26.2413 323.869 26.4933 324.186 26.68C324.513 26.8667 324.877 26.96 325.278 26.96ZM330.554 28.5V18.7H332.584V28.5H330.554ZM334.242 28.5V21.206H336.16V21.808C336.711 21.3133 337.392 21.066 338.204 21.066C338.774 21.066 339.273 21.192 339.702 21.444C340.141 21.6867 340.482 22.0273 340.724 22.466C340.967 22.8953 341.088 23.3993 341.088 23.978V28.5H339.17V24.258C339.17 23.782 339.035 23.4087 338.764 23.138C338.494 22.858 338.125 22.718 337.658 22.718C337.332 22.718 337.042 22.7833 336.79 22.914C336.538 23.0353 336.328 23.2127 336.16 23.446V28.5H334.242Z" fill="#2D3936"/>
<defs>
<clipPath id="clip0_468_2990">
<rect width="20" height="20" fill="white" transform="translate(158 14)"/>
</clipPath>
</defs>
</svg>
