<svg width="453" height="217" viewBox="0 0 453 217" fill="none" xmlns="http://www.w3.org/2000/svg">
<mask id="path-1-inside-1_142_1576" fill="white">
<path d="M0 8C0 3.58172 3.58172 0 8 0H445C449.418 0 453 3.58172 453 8V209C453 213.418 449.418 217 445 217H7.99999C3.58171 217 0 213.418 0 209V8Z"/>
</mask>
<path d="M0 8C0 3.58172 3.58172 0 8 0H445C449.418 0 453 3.58172 453 8V209C453 213.418 449.418 217 445 217H7.99999C3.58171 217 0 213.418 0 209V8Z" fill="white"/>
<path d="M0 0H453H0ZM454 209C454 213.971 449.971 218 445 218H8C3.02944 218 -1 213.971 -1 209H1C1 212.866 4.13401 216 8 216H445C448.866 216 452 212.866 452 209H454ZM8 218C3.02944 218 -1 213.971 -1 209V9C-1 4.02944 3.02944 0 8 0C4.13401 0 1 3.58172 1 8V209C1 212.866 4.13401 216 8 216V218ZM445 0C449.971 0 454 4.02944 454 9V209C454 213.971 449.971 218 445 218V216C448.866 216 452 212.866 452 209V8C452 3.58172 448.866 0 445 0Z" fill="#BEC2C1" mask="url(#path-1-inside-1_142_1576)"/>
<rect x="20" y="20.125" width="45.8086" height="45.8086" rx="5.72607" fill="#5E5BFF"/>
<path d="M36.4952 52.132L32.7311 38.6394H35.3023L37.9266 48.5534L41.0016 38.6394H43.2813L46.3562 48.5534L48.9805 38.6394H51.4722L47.6816 52.132H45.1368L42.1149 42.2445L39.0665 52.132H36.4952Z" fill="white"/>
<path d="M74.1687 48.5293L71.9784 38.5087H73.5245L75.0848 46.1673L77.3466 38.5087H78.7781L81.0399 46.153L82.6146 38.5087H84.0891L81.8989 48.5293H80.3528L78.0481 40.6559L75.729 48.5293H74.1687ZM85.3804 48.5293V41.2429H86.8119V48.5293H85.3804ZM86.0961 40.069C85.8575 40.069 85.6523 39.9831 85.4806 39.8114C85.3088 39.63 85.2229 39.4201 85.2229 39.1815C85.2229 38.9334 85.3088 38.7282 85.4806 38.5659C85.6523 38.3942 85.8575 38.3083 86.0961 38.3083C86.3442 38.3083 86.5542 38.3942 86.726 38.5659C86.8978 38.7282 86.9837 38.9334 86.9837 39.1815C86.9837 39.4201 86.8978 39.63 86.726 39.8114C86.5542 39.9831 86.3442 40.069 86.0961 40.069ZM88.4978 48.5293V38.5087L89.9293 38.2367V48.5293H88.4978ZM91.6153 48.5293V38.5087L93.0468 38.2367V48.5293H91.6153ZM95.2195 51.6071C95.0668 51.6071 94.9236 51.5975 94.79 51.5784C94.6564 51.5689 94.5467 51.5498 94.4608 51.5212V50.2614C94.6325 50.2996 94.8425 50.3187 95.0906 50.3187C95.7587 50.3187 96.2406 49.9608 96.5365 49.2451L96.8514 48.5436L93.9311 41.2429H95.5201L97.6387 46.7972L99.9864 41.2429H101.532L98.0109 49.4312C97.7819 49.9465 97.5385 50.3616 97.2809 50.6766C97.0232 51.0011 96.7273 51.2349 96.3933 51.378C96.0593 51.5307 95.668 51.6071 95.2195 51.6071Z" fill="#2D3936"/>
<path d="M232.306 47.0293V40.0149H237.327V40.6963H233.078V43.2014H235.864V43.8728H233.078V47.0293H232.306ZM239.717 47.1295C239.336 47.1295 238.999 47.0493 238.705 46.889C238.411 46.722 238.18 46.4949 238.013 46.2076C237.853 45.9137 237.773 45.573 237.773 45.1855V42.009H238.504V45.0352C238.504 45.4828 238.631 45.8368 238.885 46.0974C239.139 46.3512 239.48 46.4782 239.907 46.4782C240.208 46.4782 240.475 46.4114 240.709 46.2777C240.949 46.1375 241.143 45.9437 241.29 45.6966V42.009H242.032V47.0293H241.29V46.4481C240.896 46.9024 240.371 47.1295 239.717 47.1295ZM243.292 47.0293V40.0149L244.034 39.8445V47.0293H243.292ZM245.298 47.0293V40.0149L246.04 39.8445V47.0293H245.298ZM251.532 47.0293V40.7063H248.996V40.0149H254.838V40.7063H252.303V47.0293H251.532ZM255.642 47.0293V42.009H256.384V47.0293H255.642ZM256.013 41.047C255.879 41.047 255.762 40.9969 255.662 40.8967C255.562 40.7965 255.512 40.6796 255.512 40.546C255.512 40.4057 255.562 40.2888 255.662 40.1952C255.762 40.095 255.879 40.0449 256.013 40.0449C256.153 40.0449 256.27 40.095 256.364 40.1952C256.464 40.2888 256.514 40.4057 256.514 40.546C256.514 40.6796 256.464 40.7965 256.364 40.8967C256.27 40.9969 256.153 41.047 256.013 41.047ZM257.648 47.0293V42.009H258.39V42.5601C258.77 42.1259 259.261 41.9088 259.863 41.9088C260.217 41.9088 260.531 41.9923 260.805 42.1593C261.079 42.3196 261.292 42.5401 261.446 42.8206C261.653 42.5133 261.9 42.2862 262.187 42.1392C262.475 41.9856 262.802 41.9088 263.169 41.9088C263.537 41.9088 263.858 41.9923 264.131 42.1593C264.405 42.3196 264.619 42.5467 264.773 42.8407C264.933 43.1279 265.013 43.4653 265.013 43.8528V47.0293H264.282V44.0031C264.282 43.5555 264.165 43.2048 263.931 42.9509C263.697 42.6904 263.38 42.5601 262.979 42.5601C262.705 42.5601 262.455 42.6302 262.228 42.7705C262 42.9041 261.807 43.1079 261.646 43.3818C261.66 43.4553 261.67 43.5321 261.676 43.6123C261.69 43.6857 261.696 43.7659 261.696 43.8528V47.0293H260.965V44.0031C260.965 43.5555 260.848 43.2048 260.614 42.9509C260.38 42.6904 260.066 42.5601 259.672 42.5601C259.405 42.5601 259.161 42.6236 258.941 42.7505C258.727 42.8707 258.543 43.0511 258.39 43.2916V47.0293H257.648ZM268.614 47.1195C268.133 47.1195 267.696 47.0059 267.302 46.7788C266.914 46.545 266.604 46.231 266.37 45.8368C266.143 45.4427 266.029 45.0018 266.029 44.5141C266.029 44.0331 266.139 43.5989 266.36 43.2114C266.58 42.8173 266.878 42.5067 267.252 42.2795C267.626 42.0457 268.043 41.9288 268.504 41.9288C268.952 41.9288 269.353 42.0457 269.707 42.2795C270.067 42.5067 270.351 42.8173 270.558 43.2114C270.772 43.5989 270.879 44.0331 270.879 44.5141V44.7446H266.761C266.801 45.0719 266.904 45.3659 267.071 45.6264C267.245 45.8869 267.469 46.094 267.743 46.2477C268.017 46.3947 268.317 46.4681 268.644 46.4681C268.905 46.4681 269.159 46.4281 269.406 46.3479C269.653 46.2677 269.86 46.1542 270.027 46.0072L270.488 46.4982C270.208 46.7053 269.914 46.8623 269.606 46.9692C269.306 47.0694 268.975 47.1195 268.614 47.1195ZM266.781 44.1534H270.138C270.097 43.8528 269.997 43.5855 269.837 43.3517C269.683 43.1112 269.49 42.9242 269.256 42.7906C269.022 42.6503 268.765 42.5801 268.484 42.5801C268.197 42.5801 267.933 42.6469 267.693 42.7806C267.452 42.9142 267.252 43.1012 267.091 43.3417C266.931 43.5755 266.827 43.8461 266.781 44.1534Z" fill="#2D3936"/>
<g clip-path="url(#clip0_142_1576)">
<path d="M288.761 49.6667L288.76 49.6669C288.375 49.8821 288.104 49.8555 287.949 49.7642C287.794 49.6725 287.639 49.4459 287.639 49.0058V40.8748C287.639 39.8485 288.481 39.0067 289.507 39.0067H295.076C296.102 39.0067 296.944 39.8485 296.944 40.8748V49.0058C296.944 49.4455 296.79 49.6698 296.634 49.7609C296.478 49.8524 296.204 49.8785 295.814 49.6659C295.814 49.6657 295.814 49.6655 295.813 49.6653L293.004 48.0996C293.004 48.0996 293.003 48.0995 293.003 48.0995C292.789 47.9795 292.53 47.9304 292.291 47.9304C292.051 47.9304 291.792 47.9797 291.576 48.0979L291.576 48.0979L291.574 48.0991L288.761 49.6667Z" fill="#008552" stroke="#008552" stroke-width="0.715759"/>
<path d="M292.163 37.2173C292.161 37.2173 292.16 37.2171 292.159 37.2168C292.476 36.6293 293.096 36.2296 293.802 36.2296H299.371C300.397 36.2296 301.239 37.0714 301.239 38.0977V46.2287C301.239 46.6685 301.084 46.893 300.929 46.984C300.774 47.0752 300.502 47.1013 300.117 46.8893C300.117 46.8891 300.116 46.8889 300.116 46.8887L298.737 46.1172C298.737 46.1172 298.737 46.1172 298.737 46.1172C298.736 46.1166 298.735 46.1155 298.734 46.1139C298.734 46.1136 298.734 46.1133 298.734 46.1131V40.8749C298.734 38.8592 297.092 37.2173 295.076 37.2173H292.163Z" fill="#008552" stroke="#008552" stroke-width="0.715759"/>
</g>
<rect x="317.343" y="25.8511" width="115.953" height="34.3564" rx="5.72607" fill="#008552"/>
<path d="M356.28 47.0293L359.166 40.0149H360.839L363.695 47.0293H362.122L361.41 45.1855H358.514L357.793 47.0293H356.28ZM358.965 44.0231H360.969L359.967 41.4378L358.965 44.0231ZM364.2 49.0735V41.8086H365.553V42.2394C365.98 41.9054 366.475 41.7384 367.036 41.7384C367.53 41.7384 367.978 41.8587 368.379 42.0991C368.78 42.3396 369.097 42.6636 369.331 43.0711C369.571 43.472 369.691 43.9229 369.691 44.4239C369.691 44.925 369.571 45.3792 369.331 45.7867C369.09 46.1876 368.766 46.5082 368.359 46.7487C367.951 46.9825 367.497 47.0994 366.996 47.0994C366.735 47.0994 366.485 47.066 366.244 46.9992C366.004 46.9258 365.78 46.8222 365.573 46.6886V49.0735H364.2ZM366.816 45.937C367.103 45.937 367.36 45.8702 367.587 45.7366C367.821 45.603 368.005 45.4227 368.138 45.1955C368.272 44.9684 368.339 44.7112 368.339 44.4239C368.339 44.1367 368.272 43.8795 368.138 43.6523C368.005 43.4185 367.821 43.2382 367.587 43.1112C367.36 42.9776 367.103 42.9108 366.816 42.9108C366.562 42.9108 366.328 42.9542 366.114 43.0411C365.907 43.1213 365.727 43.2448 365.573 43.4119V45.446C365.72 45.5997 365.9 45.7199 366.114 45.8068C366.335 45.8936 366.568 45.937 366.816 45.937ZM370.522 49.0735V41.8086H371.875V42.2394C372.302 41.9054 372.796 41.7384 373.358 41.7384C373.852 41.7384 374.3 41.8587 374.7 42.0991C375.101 42.3396 375.418 42.6636 375.652 43.0711C375.893 43.472 376.013 43.9229 376.013 44.4239C376.013 44.925 375.893 45.3792 375.652 45.7867C375.412 46.1876 375.088 46.5082 374.68 46.7487C374.273 46.9825 373.819 47.0994 373.318 47.0994C373.057 47.0994 372.806 47.066 372.566 46.9992C372.325 46.9258 372.102 46.8222 371.895 46.6886V49.0735H370.522ZM373.137 45.937C373.424 45.937 373.682 45.8702 373.909 45.7366C374.143 45.603 374.326 45.4227 374.46 45.1955C374.593 44.9684 374.66 44.7112 374.66 44.4239C374.66 44.1367 374.593 43.8795 374.46 43.6523C374.326 43.4185 374.143 43.2382 373.909 43.1112C373.682 42.9776 373.424 42.9108 373.137 42.9108C372.883 42.9108 372.649 42.9542 372.436 43.0411C372.229 43.1213 372.048 43.2448 371.895 43.4119V45.446C372.042 45.5997 372.222 45.7199 372.436 45.8068C372.656 45.8936 372.89 45.937 373.137 45.937ZM376.843 47.0293V40.0149L378.216 39.7844V47.0293H376.843ZM379.29 47.0293V41.8086H380.663V47.0293H379.29ZM379.971 41.1873C379.757 41.1873 379.574 41.1104 379.42 40.9568C379.266 40.8031 379.19 40.6194 379.19 40.4057C379.19 40.1852 379.266 40.0015 379.42 39.8545C379.574 39.7009 379.757 39.6241 379.971 39.6241C380.192 39.6241 380.375 39.7009 380.522 39.8545C380.676 40.0015 380.753 40.1852 380.753 40.4057C380.753 40.6194 380.676 40.8031 380.522 40.9568C380.375 41.1104 380.192 41.1873 379.971 41.1873ZM384.291 47.1295C383.77 47.1295 383.296 47.0093 382.869 46.7688C382.448 46.5283 382.114 46.2043 381.867 45.7968C381.619 45.3893 381.496 44.9316 381.496 44.4239C381.496 43.9162 381.613 43.4586 381.846 43.0511C382.087 42.6436 382.411 42.3196 382.818 42.0791C383.226 41.8386 383.68 41.7184 384.181 41.7184C384.682 41.7184 385.127 41.842 385.514 42.0891C385.901 42.3363 386.205 42.6703 386.426 43.0912C386.653 43.5121 386.767 43.9897 386.767 44.5241V44.8849H382.899C382.959 45.092 383.056 45.279 383.189 45.446C383.33 45.613 383.5 45.7433 383.7 45.8368C383.907 45.9304 384.128 45.9771 384.362 45.9771C384.595 45.9771 384.809 45.9404 385.003 45.8669C385.203 45.7934 385.374 45.6899 385.514 45.5563L386.416 46.378C386.095 46.6385 385.765 46.8289 385.424 46.9491C385.09 47.0694 384.712 47.1295 384.291 47.1295ZM382.879 43.9029H385.414C385.367 43.6958 385.28 43.5154 385.153 43.3617C385.033 43.2014 384.886 43.0778 384.712 42.991C384.545 42.8975 384.358 42.8507 384.151 42.8507C383.937 42.8507 383.744 42.8941 383.57 42.981C383.396 43.0678 383.249 43.1914 383.129 43.3517C383.016 43.5054 382.932 43.6891 382.879 43.9029ZM390.062 47.0994C389.567 47.0994 389.12 46.9792 388.719 46.7387C388.318 46.4982 387.998 46.1775 387.757 45.7767C387.523 45.3692 387.406 44.9149 387.406 44.4139C387.406 43.9129 387.523 43.462 387.757 43.0611C387.998 42.6536 388.322 42.333 388.729 42.0991C389.137 41.8587 389.594 41.7384 390.102 41.7384C390.362 41.7384 390.613 41.7751 390.853 41.8486C391.094 41.9154 391.318 42.0156 391.525 42.1493V40.0149L392.898 39.7844V47.0293H391.545V46.5984C391.117 46.9324 390.623 47.0994 390.062 47.0994ZM390.282 45.927C390.536 45.927 390.767 45.8869 390.974 45.8068C391.187 45.7199 391.371 45.593 391.525 45.426V43.3918C391.371 43.2382 391.187 43.1179 390.974 43.0311C390.76 42.9442 390.529 42.9008 390.282 42.9008C389.995 42.9008 389.734 42.9676 389.501 43.1012C389.274 43.2281 389.093 43.4085 388.96 43.6423C388.826 43.8695 388.759 44.1267 388.759 44.4139C388.759 44.7012 388.826 44.9584 388.96 45.1855C389.093 45.4126 389.274 45.593 389.501 45.7266C389.734 45.8602 389.995 45.927 390.282 45.927Z" fill="white"/>
<mask id="path-11-inside-2_142_1576" fill="white">
<rect x="21.6991" y="125.157" width="45.8086" height="45.8086" rx="5.72607"/>
</mask>
<rect x="21.6991" y="125.157" width="45.8086" height="45.8086" rx="5.72607" fill="#EAEBEB" stroke="#2D3936" stroke-width="16" mask="url(#path-11-inside-2_142_1576)"/>
<path d="M77.6428 153.705C76.8412 153.705 76.0682 153.547 75.3238 153.232C74.5794 152.917 73.9209 152.473 73.3483 151.901L74.2645 150.842C74.8084 151.376 75.362 151.772 75.925 152.03C76.4976 152.287 77.0941 152.416 77.7144 152.416C78.2011 152.416 78.6258 152.349 78.9885 152.216C79.3607 152.073 79.647 151.872 79.8474 151.615C80.0478 151.357 80.148 151.066 80.148 150.741C80.148 150.293 79.9905 149.949 79.6756 149.711C79.3607 149.472 78.8405 149.291 78.1152 149.167L76.4404 148.895C75.5242 148.732 74.8371 148.437 74.379 148.007C73.9304 147.578 73.7062 147.005 73.7062 146.289C73.7062 145.717 73.8589 145.216 74.1643 144.786C74.4696 144.347 74.8991 144.008 75.4526 143.77C76.0157 143.531 76.6646 143.412 77.3995 143.412C78.1248 143.412 78.8358 143.531 79.5324 143.77C80.2387 143.999 80.8733 144.333 81.4364 144.772L80.6061 145.917C79.5277 145.096 78.4349 144.686 77.3279 144.686C76.8889 144.686 76.5072 144.748 76.1827 144.872C75.8582 144.996 75.6053 145.173 75.424 145.402C75.2427 145.621 75.152 145.879 75.152 146.175C75.152 146.585 75.2904 146.9 75.5671 147.12C75.8439 147.33 76.302 147.482 76.9414 147.578L78.559 147.85C79.6183 148.021 80.3961 148.332 80.8924 148.78C81.3886 149.229 81.6368 149.844 81.6368 150.627C81.6368 151.238 81.4698 151.777 81.1357 152.244C80.8017 152.702 80.3341 153.06 79.7329 153.318C79.1316 153.576 78.4349 153.705 77.6428 153.705ZM88.566 156.482V152.874C87.9457 153.409 87.206 153.676 86.3471 153.676C85.6696 153.676 85.0492 153.509 84.4862 153.175C83.9231 152.841 83.4793 152.392 83.1549 151.829C82.8304 151.257 82.6681 150.617 82.6681 149.911C82.6681 149.205 82.8304 148.57 83.1549 148.007C83.4889 147.444 83.9374 146.996 84.5005 146.661C85.0635 146.327 85.6886 146.16 86.3758 146.16C86.7861 146.16 87.1774 146.227 87.5496 146.361C87.9314 146.485 88.2749 146.661 88.5803 146.891V146.275H89.9975V156.482H88.566ZM86.5332 152.431C86.9531 152.431 87.3349 152.354 87.6785 152.201C88.0316 152.049 88.3274 151.829 88.566 151.543V148.265C88.3274 147.998 88.0316 147.788 87.6785 147.635C87.3349 147.473 86.9531 147.392 86.5332 147.392C86.0752 147.392 85.66 147.501 85.2878 147.721C84.9156 147.94 84.6198 148.241 84.4003 148.623C84.1808 148.995 84.071 149.42 84.071 149.897C84.071 150.374 84.1808 150.803 84.4003 151.185C84.6198 151.567 84.9156 151.872 85.2878 152.101C85.66 152.321 86.0752 152.431 86.5332 152.431ZM94.5128 153.705C93.9498 153.705 93.4535 153.585 93.0241 153.347C92.5946 153.108 92.2606 152.774 92.022 152.345C91.7834 151.906 91.6641 151.405 91.6641 150.842V146.275H93.0813V150.598C93.0813 151.171 93.2436 151.624 93.568 151.958C93.902 152.292 94.3458 152.459 94.8993 152.459C95.2906 152.459 95.639 152.378 95.9443 152.216C96.2497 152.044 96.4979 151.805 96.6887 151.5V146.275H98.1203V153.561H96.6887V152.817C96.1257 153.409 95.4004 153.705 94.5128 153.705ZM102.12 153.69C101.595 153.69 101.132 153.6 100.731 153.418C100.33 153.227 100.015 152.965 99.7863 152.631C99.5573 152.297 99.4427 151.91 99.4427 151.471C99.4427 150.784 99.7052 150.245 100.23 149.854C100.755 149.453 101.475 149.253 102.392 149.253C103.107 149.253 103.771 149.391 104.381 149.668V148.895C104.381 148.37 104.229 147.978 103.923 147.721C103.628 147.463 103.189 147.334 102.606 147.334C102.272 147.334 101.924 147.387 101.561 147.492C101.199 147.587 100.793 147.74 100.345 147.95L99.8149 146.876C100.368 146.619 100.884 146.432 101.361 146.318C101.838 146.194 102.32 146.132 102.807 146.132C103.752 146.132 104.482 146.356 104.997 146.805C105.522 147.253 105.784 147.893 105.784 148.723V153.561H104.381V152.932C104.057 153.189 103.709 153.38 103.336 153.504C102.964 153.628 102.559 153.69 102.12 153.69ZM100.817 151.443C100.817 151.796 100.965 152.082 101.261 152.302C101.566 152.521 101.962 152.631 102.449 152.631C102.831 152.631 103.179 152.574 103.494 152.459C103.818 152.345 104.114 152.168 104.381 151.929V150.698C104.105 150.536 103.814 150.422 103.508 150.355C103.212 150.278 102.878 150.24 102.506 150.24C101.981 150.24 101.566 150.35 101.261 150.57C100.965 150.779 100.817 151.071 100.817 151.443ZM107.434 153.561V146.275H108.865V147.205C109.094 146.862 109.376 146.595 109.71 146.404C110.054 146.203 110.44 146.103 110.869 146.103C111.165 146.113 111.409 146.156 111.6 146.232V147.52C111.466 147.463 111.328 147.425 111.184 147.406C111.041 147.377 110.898 147.363 110.755 147.363C110.335 147.363 109.963 147.477 109.638 147.706C109.314 147.926 109.056 148.25 108.865 148.68V153.561H107.434ZM115.82 153.69C115.104 153.69 114.455 153.523 113.873 153.189C113.3 152.855 112.842 152.402 112.499 151.829C112.164 151.257 111.997 150.617 111.997 149.911C111.997 149.214 112.16 148.584 112.484 148.021C112.809 147.449 113.248 146.996 113.801 146.661C114.355 146.318 114.97 146.146 115.648 146.146C116.325 146.146 116.927 146.318 117.452 146.661C117.976 146.996 118.392 147.454 118.697 148.036C119.012 148.608 119.169 149.257 119.169 149.983V150.383H113.429C113.505 150.784 113.653 151.142 113.873 151.457C114.102 151.772 114.388 152.02 114.732 152.201C115.085 152.383 115.467 152.473 115.877 152.473C116.23 152.473 116.569 152.421 116.893 152.316C117.227 152.201 117.504 152.039 117.724 151.829L118.64 152.731C118.21 153.056 117.766 153.299 117.308 153.461C116.86 153.614 116.364 153.69 115.82 153.69ZM113.443 149.31H117.752C117.695 148.928 117.561 148.594 117.351 148.308C117.151 148.012 116.898 147.783 116.593 147.621C116.297 147.449 115.972 147.363 115.619 147.363C115.257 147.363 114.923 147.444 114.617 147.606C114.312 147.769 114.054 147.998 113.844 148.293C113.644 148.58 113.51 148.919 113.443 149.31Z" fill="#2D3936"/>
<path d="M232.836 152.061V145.047H237.856V145.728H233.608V148.234H236.393V148.905H233.608V152.061H232.836ZM240.247 152.162C239.866 152.162 239.528 152.081 239.234 151.921C238.941 151.754 238.71 151.527 238.543 151.24C238.383 150.946 238.303 150.605 238.303 150.218V147.041H239.034V150.067C239.034 150.515 239.161 150.869 239.415 151.129C239.669 151.383 240.009 151.51 240.437 151.51C240.738 151.51 241.005 151.443 241.239 151.31C241.479 151.17 241.673 150.976 241.82 150.729V147.041H242.561V152.061H241.82V151.48C241.426 151.934 240.901 152.162 240.247 152.162ZM243.822 152.061V145.047L244.564 144.877V152.061H243.822ZM245.828 152.061V145.047L246.57 144.877V152.061H245.828ZM252.061 152.061V145.738H249.526V145.047H255.368V145.738H252.833V152.061H252.061ZM256.172 152.061V147.041H256.913V152.061H256.172ZM256.543 146.079C256.409 146.079 256.292 146.029 256.192 145.929C256.092 145.829 256.042 145.712 256.042 145.578C256.042 145.438 256.092 145.321 256.192 145.227C256.292 145.127 256.409 145.077 256.543 145.077C256.683 145.077 256.8 145.127 256.893 145.227C256.994 145.321 257.044 145.438 257.044 145.578C257.044 145.712 256.994 145.829 256.893 145.929C256.8 146.029 256.683 146.079 256.543 146.079ZM258.178 152.061V147.041H258.919V147.592C259.3 147.158 259.791 146.941 260.392 146.941C260.747 146.941 261.06 147.024 261.334 147.191C261.608 147.352 261.822 147.572 261.976 147.853C262.183 147.545 262.43 147.318 262.717 147.171C263.004 147.018 263.332 146.941 263.699 146.941C264.067 146.941 264.387 147.024 264.661 147.191C264.935 147.352 265.149 147.579 265.303 147.873C265.463 148.16 265.543 148.497 265.543 148.885V152.061H264.812V149.035C264.812 148.588 264.695 148.237 264.461 147.983C264.227 147.722 263.91 147.592 263.509 147.592C263.235 147.592 262.984 147.662 262.757 147.803C262.53 147.936 262.336 148.14 262.176 148.414C262.189 148.487 262.2 148.564 262.206 148.644C262.22 148.718 262.226 148.798 262.226 148.885V152.061H261.495V149.035C261.495 148.588 261.378 148.237 261.144 147.983C260.91 147.722 260.596 147.592 260.202 147.592C259.935 147.592 259.691 147.656 259.471 147.783C259.257 147.903 259.073 148.083 258.919 148.324V152.061H258.178ZM269.144 152.152C268.663 152.152 268.226 152.038 267.832 151.811C267.444 151.577 267.133 151.263 266.9 150.869C266.672 150.475 266.559 150.034 266.559 149.546C266.559 149.065 266.669 148.631 266.89 148.244C267.11 147.849 267.407 147.539 267.781 147.312C268.156 147.078 268.573 146.961 269.034 146.961C269.482 146.961 269.882 147.078 270.236 147.312C270.597 147.539 270.881 147.849 271.088 148.244C271.302 148.631 271.409 149.065 271.409 149.546V149.777H267.29C267.33 150.104 267.434 150.398 267.601 150.659C267.775 150.919 267.999 151.126 268.272 151.28C268.546 151.427 268.847 151.5 269.174 151.5C269.435 151.5 269.689 151.46 269.936 151.38C270.183 151.3 270.39 151.186 270.557 151.039L271.018 151.53C270.737 151.737 270.444 151.894 270.136 152.001C269.836 152.101 269.505 152.152 269.144 152.152ZM267.31 149.185H270.667C270.627 148.885 270.527 148.618 270.367 148.384C270.213 148.143 270.019 147.956 269.786 147.823C269.552 147.682 269.295 147.612 269.014 147.612C268.727 147.612 268.463 147.679 268.222 147.813C267.982 147.946 267.781 148.133 267.621 148.374C267.461 148.608 267.357 148.878 267.31 149.185Z" fill="#2D3936"/>
<g clip-path="url(#clip1_142_1576)">
<path d="M289.29 154.699L289.29 154.699C288.905 154.914 288.634 154.888 288.479 154.796C288.324 154.705 288.169 154.478 288.169 154.038V145.907C288.169 144.881 289.011 144.039 290.037 144.039H295.606C296.632 144.039 297.474 144.881 297.474 145.907V154.038C297.474 154.478 297.319 154.702 297.164 154.793C297.008 154.885 296.733 154.911 296.344 154.698C296.344 154.698 296.343 154.698 296.343 154.697L293.533 153.132C293.533 153.132 293.533 153.132 293.533 153.132C293.319 153.012 293.06 152.963 292.821 152.963C292.581 152.963 292.321 153.012 292.106 153.13L292.106 153.13L292.103 153.131L289.29 154.699Z" fill="#008552" stroke="#008552" stroke-width="0.715759"/>
<path d="M292.693 142.249C292.691 142.249 292.69 142.249 292.689 142.249C293.005 141.661 293.626 141.262 294.332 141.262H299.9C300.927 141.262 301.768 142.104 301.768 143.13V151.261C301.768 151.701 301.614 151.925 301.459 152.016C301.304 152.107 301.032 152.133 300.647 151.921C300.646 151.921 300.646 151.921 300.646 151.921L299.267 151.149C299.267 151.149 299.267 151.149 299.267 151.149C299.266 151.149 299.265 151.148 299.264 151.146C299.264 151.146 299.263 151.145 299.263 151.145V145.907C299.263 143.891 297.621 142.249 295.606 142.249H292.693Z" fill="#008552" stroke="#008552" stroke-width="0.715759"/>
</g>
<rect x="317.873" y="130.883" width="115.953" height="34.3564" rx="5.72607" fill="#008552"/>
<path d="M356.809 152.061L359.695 145.047H361.369L364.225 152.061H362.651L361.94 150.218H359.044L358.323 152.061H356.809ZM359.495 149.055H361.499L360.497 146.47L359.495 149.055ZM364.73 154.106V146.841H366.083V147.272C366.51 146.938 367.005 146.771 367.566 146.771C368.06 146.771 368.508 146.891 368.909 147.131C369.309 147.372 369.627 147.696 369.86 148.103C370.101 148.504 370.221 148.955 370.221 149.456C370.221 149.957 370.101 150.411 369.86 150.819C369.62 151.22 369.296 151.54 368.888 151.781C368.481 152.015 368.027 152.132 367.526 152.132C367.265 152.132 367.015 152.098 366.774 152.031C366.534 151.958 366.31 151.854 366.103 151.721V154.106H364.73ZM367.345 150.969C367.633 150.969 367.89 150.902 368.117 150.769C368.351 150.635 368.534 150.455 368.668 150.228C368.802 150 368.868 149.743 368.868 149.456C368.868 149.169 368.802 148.912 368.668 148.684C368.534 148.451 368.351 148.27 368.117 148.143C367.89 148.01 367.633 147.943 367.345 147.943C367.091 147.943 366.858 147.986 366.644 148.073C366.437 148.153 366.256 148.277 366.103 148.444V150.478C366.25 150.632 366.43 150.752 366.644 150.839C366.864 150.926 367.098 150.969 367.345 150.969ZM371.052 154.106V146.841H372.404V147.272C372.832 146.938 373.326 146.771 373.887 146.771C374.382 146.771 374.829 146.891 375.23 147.131C375.631 147.372 375.948 147.696 376.182 148.103C376.423 148.504 376.543 148.955 376.543 149.456C376.543 149.957 376.423 150.411 376.182 150.819C375.942 151.22 375.618 151.54 375.21 151.781C374.803 152.015 374.348 152.132 373.847 152.132C373.587 152.132 373.336 152.098 373.096 152.031C372.855 151.958 372.631 151.854 372.424 151.721V154.106H371.052ZM373.667 150.969C373.954 150.969 374.211 150.902 374.439 150.769C374.672 150.635 374.856 150.455 374.99 150.228C375.123 150 375.19 149.743 375.19 149.456C375.19 149.169 375.123 148.912 374.99 148.684C374.856 148.451 374.672 148.27 374.439 148.143C374.211 148.01 373.954 147.943 373.667 147.943C373.413 147.943 373.179 147.986 372.965 148.073C372.758 148.153 372.578 148.277 372.424 148.444V150.478C372.571 150.632 372.752 150.752 372.965 150.839C373.186 150.926 373.42 150.969 373.667 150.969ZM377.373 152.061V145.047L378.746 144.816V152.061H377.373ZM379.82 152.061V146.841H381.192V152.061H379.82ZM380.501 146.219C380.287 146.219 380.103 146.143 379.95 145.989C379.796 145.835 379.719 145.652 379.719 145.438C379.719 145.217 379.796 145.034 379.95 144.887C380.103 144.733 380.287 144.656 380.501 144.656C380.721 144.656 380.905 144.733 381.052 144.887C381.206 145.034 381.283 145.217 381.283 145.438C381.283 145.652 381.206 145.835 381.052 145.989C380.905 146.143 380.721 146.219 380.501 146.219ZM384.821 152.162C384.3 152.162 383.826 152.041 383.398 151.801C382.977 151.56 382.643 151.236 382.396 150.829C382.149 150.421 382.026 149.964 382.026 149.456C382.026 148.948 382.142 148.491 382.376 148.083C382.617 147.676 382.941 147.352 383.348 147.111C383.756 146.871 384.21 146.75 384.711 146.75C385.212 146.75 385.656 146.874 386.044 147.121C386.431 147.368 386.735 147.702 386.956 148.123C387.183 148.544 387.296 149.022 387.296 149.556V149.917H383.428C383.489 150.124 383.585 150.311 383.719 150.478C383.859 150.645 384.03 150.775 384.23 150.869C384.437 150.962 384.658 151.009 384.891 151.009C385.125 151.009 385.339 150.972 385.533 150.899C385.733 150.826 385.904 150.722 386.044 150.588L386.946 151.41C386.625 151.671 386.294 151.861 385.954 151.981C385.62 152.101 385.242 152.162 384.821 152.162ZM383.408 148.935H385.944C385.897 148.728 385.81 148.548 385.683 148.394C385.563 148.234 385.416 148.11 385.242 148.023C385.075 147.93 384.888 147.883 384.681 147.883C384.467 147.883 384.273 147.926 384.1 148.013C383.926 148.1 383.779 148.224 383.659 148.384C383.545 148.537 383.462 148.721 383.408 148.935ZM390.592 152.132C390.097 152.132 389.65 152.011 389.249 151.771C388.848 151.53 388.527 151.21 388.287 150.809C388.053 150.401 387.936 149.947 387.936 149.446C387.936 148.945 388.053 148.494 388.287 148.093C388.527 147.686 388.851 147.365 389.259 147.131C389.666 146.891 390.124 146.771 390.632 146.771C390.892 146.771 391.143 146.807 391.383 146.881C391.624 146.948 391.848 147.048 392.055 147.181V145.047L393.427 144.816V152.061H392.075V151.631C391.647 151.965 391.153 152.132 390.592 152.132ZM390.812 150.959C391.066 150.959 391.296 150.919 391.503 150.839C391.717 150.752 391.901 150.625 392.055 150.458V148.424C391.901 148.27 391.717 148.15 391.503 148.063C391.29 147.976 391.059 147.933 390.812 147.933C390.525 147.933 390.264 148 390.03 148.133C389.803 148.26 389.623 148.441 389.489 148.674C389.356 148.902 389.289 149.159 389.289 149.446C389.289 149.733 389.356 149.99 389.489 150.218C389.623 150.445 389.803 150.625 390.03 150.759C390.264 150.892 390.525 150.959 390.812 150.959Z" fill="white"/>
<path d="M24.312 87.14C23.528 87.14 22.772 86.986 22.044 86.678C21.316 86.37 20.672 85.936 20.112 85.376L21.008 84.34C21.54 84.8627 22.0813 85.25 22.632 85.502C23.192 85.754 23.7753 85.88 24.382 85.88C24.858 85.88 25.2733 85.8147 25.628 85.684C25.992 85.544 26.272 85.348 26.468 85.096C26.664 84.844 26.762 84.5593 26.762 84.242C26.762 83.8033 26.608 83.4673 26.3 83.234C25.992 83.0007 25.4833 82.8233 24.774 82.702L23.136 82.436C22.24 82.2773 21.568 81.988 21.12 81.568C20.6813 81.148 20.462 80.588 20.462 79.888C20.462 79.328 20.6113 78.838 20.91 78.418C21.2087 77.9887 21.6287 77.6573 22.17 77.424C22.7207 77.1907 23.3553 77.074 24.074 77.074C24.7833 77.074 25.4787 77.1907 26.16 77.424C26.8507 77.648 27.4713 77.9747 28.022 78.404L27.21 79.524C26.1553 78.7213 25.0867 78.32 24.004 78.32C23.5747 78.32 23.2013 78.3807 22.884 78.502C22.5667 78.6233 22.3193 78.796 22.142 79.02C21.9647 79.2347 21.876 79.4867 21.876 79.776C21.876 80.1773 22.0113 80.4853 22.282 80.7C22.5527 80.9053 23.0007 81.0547 23.626 81.148L25.208 81.414C26.244 81.582 27.0047 81.8853 27.49 82.324C27.9753 82.7627 28.218 83.3647 28.218 84.13C28.218 84.7273 28.0547 85.2547 27.728 85.712C27.4013 86.16 26.944 86.51 26.356 86.762C25.768 87.014 25.0867 87.14 24.312 87.14ZM32.9647 87.126C32.2647 87.126 31.63 86.9627 31.0607 86.636C30.5007 86.3093 30.0527 85.866 29.7167 85.306C29.39 84.746 29.2267 84.1207 29.2267 83.43C29.2267 82.7487 29.3853 82.1327 29.7027 81.582C30.02 81.022 30.4493 80.5787 30.9907 80.252C31.532 79.916 32.134 79.748 32.7967 79.748C33.4593 79.748 34.0473 79.916 34.5607 80.252C35.074 80.5787 35.48 81.0267 35.7787 81.596C36.0867 82.156 36.2407 82.7907 36.2407 83.5V83.892H30.6267C30.7013 84.284 30.846 84.634 31.0607 84.942C31.2847 85.25 31.5647 85.4927 31.9007 85.67C32.246 85.8473 32.6193 85.936 33.0207 85.936C33.366 85.936 33.6973 85.8847 34.0147 85.782C34.3413 85.67 34.612 85.5113 34.8267 85.306L35.7227 86.188C35.3027 86.5053 34.8687 86.7433 34.4207 86.902C33.982 87.0513 33.4967 87.126 32.9647 87.126ZM30.6407 82.842H34.8547C34.7987 82.4687 34.668 82.142 34.4627 81.862C34.2667 81.5727 34.0193 81.3487 33.7207 81.19C33.4313 81.022 33.114 80.938 32.7687 80.938C32.414 80.938 32.0873 81.0173 31.7887 81.176C31.49 81.3347 31.238 81.5587 31.0327 81.848C30.8367 82.128 30.706 82.4593 30.6407 82.842ZM37.574 87V79.874H38.974V80.602C39.5247 80.0233 40.2387 79.734 41.116 79.734C41.6667 79.734 42.1474 79.8507 42.558 80.084C42.978 80.3173 43.3047 80.644 43.538 81.064C43.7807 81.484 43.902 81.9693 43.902 82.52V87H42.502V82.758C42.502 82.198 42.3434 81.7593 42.026 81.442C41.718 81.1153 41.284 80.952 40.724 80.952C40.3507 80.952 40.0147 81.0313 39.716 81.19C39.4174 81.3487 39.17 81.5773 38.974 81.876V87H37.574ZM45.5174 87V79.874H46.9174V87H45.5174ZM46.2174 78.726C45.9841 78.726 45.7834 78.642 45.6154 78.474C45.4474 78.2967 45.3634 78.0913 45.3634 77.858C45.3634 77.6153 45.4474 77.4147 45.6154 77.256C45.7834 77.088 45.9841 77.004 46.2174 77.004C46.4601 77.004 46.6654 77.088 46.8334 77.256C47.0014 77.4147 47.0854 77.6153 47.0854 77.858C47.0854 78.0913 47.0014 78.2967 46.8334 78.474C46.6654 78.642 46.4601 78.726 46.2174 78.726ZM51.9542 87.14C51.2636 87.14 50.6336 86.9767 50.0642 86.65C49.5042 86.3233 49.0609 85.88 48.7342 85.32C48.4076 84.76 48.2442 84.1347 48.2442 83.444C48.2442 82.7533 48.4076 82.128 48.7342 81.568C49.0609 81.008 49.5042 80.5647 50.0642 80.238C50.6336 79.902 51.2636 79.734 51.9542 79.734C52.6542 79.734 53.2842 79.902 53.8442 80.238C54.4042 80.5647 54.8476 81.008 55.1742 81.568C55.5009 82.128 55.6642 82.7533 55.6642 83.444C55.6642 84.1347 55.5009 84.76 55.1742 85.32C54.8476 85.88 54.4042 86.3233 53.8442 86.65C53.2842 86.9767 52.6542 87.14 51.9542 87.14ZM51.9542 85.908C52.3929 85.908 52.7896 85.8007 53.1442 85.586C53.4989 85.362 53.7789 85.0633 53.9842 84.69C54.1896 84.3167 54.2922 83.8967 54.2922 83.43C54.2922 82.9727 54.1849 82.562 53.9702 82.198C53.7649 81.8247 53.4849 81.526 53.1302 81.302C52.7849 81.078 52.3929 80.966 51.9542 80.966C51.5156 80.966 51.1189 81.078 50.7642 81.302C50.4189 81.526 50.1389 81.8247 49.9242 82.198C49.7189 82.562 49.6162 82.9727 49.6162 83.43C49.6162 83.8967 49.7189 84.3167 49.9242 84.69C50.1296 85.0633 50.4096 85.362 50.7642 85.586C51.1189 85.8007 51.5156 85.908 51.9542 85.908ZM56.9881 87V79.874H58.3881V80.784C58.6121 80.448 58.8874 80.1867 59.2141 80C59.5501 79.804 59.9281 79.706 60.3481 79.706C60.6374 79.7153 60.8754 79.7573 61.0621 79.832V81.092C60.9314 81.036 60.7961 80.9987 60.6561 80.98C60.5161 80.952 60.3761 80.938 60.2361 80.938C59.8254 80.938 59.4614 81.05 59.1441 81.274C58.8268 81.4887 58.5748 81.806 58.3881 82.226V87H56.9881ZM65.2772 87V77.2H72.5292V78.488H66.7472V81.498H70.5552V82.744H66.7472V87H65.2772ZM75.9063 87.14C75.3556 87.14 74.8703 87.0233 74.4503 86.79C74.0303 86.5567 73.7036 86.23 73.4703 85.81C73.2369 85.3807 73.1203 84.8907 73.1203 84.34V79.874H74.5063V84.102C74.5063 84.662 74.6649 85.1053 74.9823 85.432C75.3089 85.7587 75.7429 85.922 76.2843 85.922C76.6669 85.922 77.0076 85.8427 77.3063 85.684C77.6049 85.516 77.8476 85.2827 78.0343 84.984V79.874H79.4343V87H78.0343V86.272C77.4836 86.8507 76.7743 87.14 75.9063 87.14ZM81.0916 87V77.2L82.4916 76.934V87H81.0916ZM84.1405 87V77.2L85.5405 76.934V87H84.1405ZM90.6753 87.14C89.8913 87.14 89.1353 86.986 88.4073 86.678C87.6793 86.37 87.0353 85.936 86.4753 85.376L87.3713 84.34C87.9033 84.8627 88.4446 85.25 88.9953 85.502C89.5553 85.754 90.1386 85.88 90.7453 85.88C91.2213 85.88 91.6366 85.8147 91.9913 85.684C92.3553 85.544 92.6353 85.348 92.8313 85.096C93.0273 84.844 93.1253 84.5593 93.1253 84.242C93.1253 83.8033 92.9713 83.4673 92.6633 83.234C92.3553 83.0007 91.8466 82.8233 91.1373 82.702L89.4993 82.436C88.6033 82.2773 87.9313 81.988 87.4833 81.568C87.0446 81.148 86.8253 80.588 86.8253 79.888C86.8253 79.328 86.9746 78.838 87.2733 78.418C87.5719 77.9887 87.9919 77.6573 88.5333 77.424C89.0839 77.1907 89.7186 77.074 90.4373 77.074C91.1466 77.074 91.8419 77.1907 92.5233 77.424C93.2139 77.648 93.8346 77.9747 94.3853 78.404L93.5733 79.524C92.5186 78.7213 91.4499 78.32 90.3673 78.32C89.9379 78.32 89.5646 78.3807 89.2473 78.502C88.9299 78.6233 88.6826 78.796 88.5053 79.02C88.3279 79.2347 88.2393 79.4867 88.2393 79.776C88.2393 80.1773 88.3746 80.4853 88.6453 80.7C88.9159 80.9053 89.3639 81.0547 89.9893 81.148L91.5713 81.414C92.6073 81.582 93.3679 81.8853 93.8533 82.324C94.3386 82.7627 94.5813 83.3647 94.5813 84.13C94.5813 84.7273 94.4179 85.2547 94.0913 85.712C93.7646 86.16 93.3073 86.51 92.7193 86.762C92.1313 87.014 91.4499 87.14 90.6753 87.14ZM98.6221 87.126C97.9315 87.126 97.4041 86.9673 97.0401 86.65C96.6761 86.3233 96.4941 85.852 96.4941 85.236V81.05H94.9821V79.874H96.4941V78.054L97.8801 77.718V79.874H99.9801V81.05H97.8801V84.914C97.8801 85.278 97.9595 85.5393 98.1181 85.698C98.2861 85.8473 98.5568 85.922 98.9301 85.922C99.1261 85.922 99.2988 85.908 99.4481 85.88C99.6068 85.852 99.7748 85.81 99.9521 85.754V86.93C99.7655 86.9953 99.5461 87.042 99.2941 87.07C99.0515 87.1073 98.8275 87.126 98.6221 87.126ZM103.266 87.126C102.752 87.126 102.3 87.0373 101.908 86.86C101.516 86.6733 101.208 86.4167 100.984 86.09C100.76 85.7633 100.648 85.3853 100.648 84.956C100.648 84.284 100.904 83.7567 101.418 83.374C101.931 82.982 102.636 82.786 103.532 82.786C104.232 82.786 104.88 82.9213 105.478 83.192V82.436C105.478 81.9227 105.328 81.54 105.03 81.288C104.74 81.036 104.311 80.91 103.742 80.91C103.415 80.91 103.074 80.9613 102.72 81.064C102.365 81.1573 101.968 81.3067 101.53 81.512L101.012 80.462C101.553 80.21 102.057 80.028 102.524 79.916C102.99 79.7947 103.462 79.734 103.938 79.734C104.862 79.734 105.576 79.9533 106.08 80.392C106.593 80.8307 106.85 81.456 106.85 82.268V87H105.478V86.384C105.16 86.636 104.82 86.8227 104.456 86.944C104.092 87.0653 103.695 87.126 103.266 87.126ZM101.992 84.928C101.992 85.2733 102.136 85.5533 102.426 85.768C102.724 85.9827 103.112 86.09 103.588 86.09C103.961 86.09 104.302 86.034 104.61 85.922C104.927 85.81 105.216 85.6373 105.478 85.404V84.2C105.207 84.0413 104.922 83.9293 104.624 83.864C104.334 83.7893 104.008 83.752 103.644 83.752C103.13 83.752 102.724 83.8593 102.426 84.074C102.136 84.2793 101.992 84.564 101.992 84.928ZM111.809 87.126C111.127 87.126 110.507 86.9627 109.947 86.636C109.387 86.3093 108.943 85.866 108.617 85.306C108.299 84.746 108.141 84.1207 108.141 83.43C108.141 82.7393 108.304 82.1187 108.631 81.568C108.957 81.008 109.396 80.5647 109.947 80.238C110.507 79.902 111.127 79.734 111.809 79.734C112.35 79.734 112.868 79.8367 113.363 80.042C113.867 80.2473 114.301 80.5367 114.665 80.91L113.797 81.876C113.526 81.5773 113.223 81.3533 112.887 81.204C112.551 81.0547 112.201 80.98 111.837 80.98C111.407 80.98 111.015 81.0873 110.661 81.302C110.315 81.5167 110.04 81.8107 109.835 82.184C109.629 82.5573 109.527 82.9727 109.527 83.43C109.527 83.8873 109.629 84.3027 109.835 84.676C110.04 85.0493 110.32 85.348 110.675 85.572C111.029 85.7867 111.426 85.894 111.865 85.894C112.229 85.894 112.569 85.824 112.887 85.684C113.204 85.5347 113.503 85.32 113.783 85.04L114.637 85.936C114.263 86.3187 113.829 86.6127 113.335 86.818C112.849 87.0233 112.341 87.126 111.809 87.126ZM115.764 87V77.2L117.164 76.934V82.996L120.622 79.874H122.26L118.578 83.206L122.456 87H120.608L117.164 83.654V87H115.764ZM126.199 87V77.2H133.423V78.488H127.669V81.428H131.449V82.674H127.669V85.712H133.479V87H126.199ZM134.822 87V79.874H136.222V80.602C136.773 80.0233 137.487 79.734 138.364 79.734C138.915 79.734 139.395 79.8507 139.806 80.084C140.226 80.3173 140.553 80.644 140.786 81.064C141.029 81.484 141.15 81.9693 141.15 82.52V87H139.75V82.758C139.75 82.198 139.591 81.7593 139.274 81.442C138.966 81.1153 138.532 80.952 137.972 80.952C137.599 80.952 137.263 81.0313 136.964 81.19C136.665 81.3487 136.418 81.5773 136.222 81.876V87H134.822ZM146.293 89.996C145.771 89.996 145.262 89.9353 144.767 89.814C144.273 89.6927 143.825 89.52 143.423 89.296L143.955 88.204C144.375 88.4187 144.767 88.5727 145.131 88.666C145.505 88.7687 145.878 88.82 146.251 88.82C146.877 88.82 147.348 88.6753 147.665 88.386C147.992 88.0967 148.155 87.672 148.155 87.112V86.3C147.53 86.7947 146.816 87.042 146.013 87.042C145.36 87.042 144.758 86.8833 144.207 86.566C143.666 86.2393 143.237 85.8007 142.919 85.25C142.602 84.69 142.443 84.074 142.443 83.402C142.443 82.7207 142.602 82.1047 142.919 81.554C143.246 80.994 143.68 80.5553 144.221 80.238C144.772 79.9113 145.388 79.748 146.069 79.748C146.452 79.748 146.821 79.8133 147.175 79.944C147.539 80.0653 147.871 80.2427 148.169 80.476V79.874H149.555V87.112C149.555 88.036 149.271 88.7453 148.701 89.24C148.141 89.744 147.339 89.996 146.293 89.996ZM146.195 85.838C146.606 85.838 146.979 85.768 147.315 85.628C147.651 85.4787 147.931 85.2687 148.155 84.998V81.806C147.931 81.5447 147.647 81.3393 147.301 81.19C146.965 81.0407 146.597 80.966 146.195 80.966C145.747 80.966 145.341 81.0733 144.977 81.288C144.623 81.5027 144.338 81.7967 144.123 82.17C143.918 82.534 143.815 82.9447 143.815 83.402C143.815 83.8593 143.918 84.2747 144.123 84.648C144.338 85.012 144.623 85.3013 144.977 85.516C145.341 85.7307 145.747 85.838 146.195 85.838ZM151.201 87V79.874H152.601V87H151.201ZM151.901 78.726C151.668 78.726 151.467 78.642 151.299 78.474C151.131 78.2967 151.047 78.0913 151.047 77.858C151.047 77.6153 151.131 77.4147 151.299 77.256C151.467 77.088 151.668 77.004 151.901 77.004C152.144 77.004 152.349 77.088 152.517 77.256C152.685 77.4147 152.769 77.6153 152.769 77.858C152.769 78.0913 152.685 78.2967 152.517 78.474C152.349 78.642 152.144 78.726 151.901 78.726ZM154.25 87V79.874H155.65V80.602C156.2 80.0233 156.914 79.734 157.792 79.734C158.342 79.734 158.823 79.8507 159.234 80.084C159.654 80.3173 159.98 80.644 160.214 81.064C160.456 81.484 160.578 81.9693 160.578 82.52V87H159.178V82.758C159.178 82.198 159.019 81.7593 158.702 81.442C158.394 81.1153 157.96 80.952 157.4 80.952C157.026 80.952 156.69 81.0313 156.392 81.19C156.093 81.3487 155.846 81.5773 155.65 81.876V87H154.25ZM165.609 87.126C164.909 87.126 164.275 86.9627 163.705 86.636C163.145 86.3093 162.697 85.866 162.361 85.306C162.035 84.746 161.871 84.1207 161.871 83.43C161.871 82.7487 162.03 82.1327 162.347 81.582C162.665 81.022 163.094 80.5787 163.635 80.252C164.177 79.916 164.779 79.748 165.441 79.748C166.104 79.748 166.692 79.916 167.205 80.252C167.719 80.5787 168.125 81.0267 168.423 81.596C168.731 82.156 168.885 82.7907 168.885 83.5V83.892H163.271C163.346 84.284 163.491 84.634 163.705 84.942C163.929 85.25 164.209 85.4927 164.545 85.67C164.891 85.8473 165.264 85.936 165.665 85.936C166.011 85.936 166.342 85.8847 166.659 85.782C166.986 85.67 167.257 85.5113 167.471 85.306L168.367 86.188C167.947 86.5053 167.513 86.7433 167.065 86.902C166.627 87.0513 166.141 87.126 165.609 87.126ZM163.285 82.842H167.499C167.443 82.4687 167.313 82.142 167.107 81.862C166.911 81.5727 166.664 81.3487 166.365 81.19C166.076 81.022 165.759 80.938 165.413 80.938C165.059 80.938 164.732 81.0173 164.433 81.176C164.135 81.3347 163.883 81.5587 163.677 81.848C163.481 82.128 163.351 82.4593 163.285 82.842ZM173.662 87.126C172.962 87.126 172.327 86.9627 171.758 86.636C171.198 86.3093 170.75 85.866 170.414 85.306C170.087 84.746 169.924 84.1207 169.924 83.43C169.924 82.7487 170.083 82.1327 170.4 81.582C170.717 81.022 171.147 80.5787 171.688 80.252C172.229 79.916 172.831 79.748 173.494 79.748C174.157 79.748 174.745 79.916 175.258 80.252C175.771 80.5787 176.177 81.0267 176.476 81.596C176.784 82.156 176.938 82.7907 176.938 83.5V83.892H171.324C171.399 84.284 171.543 84.634 171.758 84.942C171.982 85.25 172.262 85.4927 172.598 85.67C172.943 85.8473 173.317 85.936 173.718 85.936C174.063 85.936 174.395 85.8847 174.712 85.782C175.039 85.67 175.309 85.5113 175.524 85.306L176.42 86.188C176 86.5053 175.566 86.7433 175.118 86.902C174.679 87.0513 174.194 87.126 173.662 87.126ZM171.338 82.842H175.552C175.496 82.4687 175.365 82.142 175.16 81.862C174.964 81.5727 174.717 81.3487 174.418 81.19C174.129 81.022 173.811 80.938 173.466 80.938C173.111 80.938 172.785 81.0173 172.486 81.176C172.187 81.3347 171.935 81.5587 171.73 81.848C171.534 82.128 171.403 82.4593 171.338 82.842ZM178.271 87V79.874H179.671V80.784C179.895 80.448 180.171 80.1867 180.497 80C180.833 79.804 181.211 79.706 181.631 79.706C181.921 79.7153 182.159 79.7573 182.345 79.832V81.092C182.215 81.036 182.079 80.9987 181.939 80.98C181.799 80.952 181.659 80.938 181.519 80.938C181.109 80.938 180.745 81.05 180.427 81.274C180.11 81.4887 179.858 81.806 179.671 82.226V87H178.271Z" fill="#2D3936"/>
<path d="M189.578 86.5V78.1H193.382C193.942 78.1 194.43 78.204 194.846 78.412C195.27 78.62 195.598 78.912 195.83 79.288C196.07 79.656 196.19 80.088 196.19 80.584C196.19 81.136 196.034 81.612 195.722 82.012C195.41 82.412 194.99 82.7 194.462 82.876L196.334 86.5H194.942L193.202 83.056H190.838V86.5H189.578ZM190.838 82H193.286C193.782 82 194.178 81.876 194.474 81.628C194.778 81.372 194.93 81.028 194.93 80.596C194.93 80.18 194.778 79.844 194.474 79.588C194.178 79.332 193.782 79.204 193.286 79.204H190.838V82ZM199.909 86.608C199.309 86.608 198.765 86.468 198.277 86.188C197.797 85.908 197.413 85.528 197.125 85.048C196.845 84.568 196.705 84.032 196.705 83.44C196.705 82.856 196.841 82.328 197.113 81.856C197.385 81.376 197.753 80.996 198.217 80.716C198.681 80.428 199.197 80.284 199.765 80.284C200.333 80.284 200.837 80.428 201.277 80.716C201.717 80.996 202.065 81.38 202.321 81.868C202.585 82.348 202.717 82.892 202.717 83.5V83.836H197.905C197.969 84.172 198.093 84.472 198.277 84.736C198.469 85 198.709 85.208 198.997 85.36C199.293 85.512 199.613 85.588 199.957 85.588C200.253 85.588 200.537 85.544 200.809 85.456C201.089 85.36 201.321 85.224 201.505 85.048L202.273 85.804C201.913 86.076 201.541 86.28 201.157 86.416C200.781 86.544 200.365 86.608 199.909 86.608ZM197.917 82.936H201.529C201.481 82.616 201.369 82.336 201.193 82.096C201.025 81.848 200.813 81.656 200.557 81.52C200.309 81.376 200.037 81.304 199.741 81.304C199.437 81.304 199.157 81.372 198.901 81.508C198.645 81.644 198.429 81.836 198.253 82.084C198.085 82.324 197.973 82.608 197.917 82.936ZM203.86 86.5V80.392H205.06V80.98C205.516 80.508 206.088 80.272 206.776 80.272C207.192 80.272 207.56 80.364 207.88 80.548C208.208 80.732 208.468 80.98 208.66 81.292C208.916 80.956 209.216 80.704 209.56 80.536C209.904 80.36 210.292 80.272 210.724 80.272C211.18 80.272 211.576 80.372 211.912 80.572C212.256 80.772 212.524 81.052 212.716 81.412C212.916 81.772 213.016 82.188 213.016 82.66V86.5H211.816V82.864C211.816 82.384 211.688 82.008 211.432 81.736C211.184 81.456 210.844 81.316 210.412 81.316C210.116 81.316 209.848 81.384 209.608 81.52C209.368 81.656 209.16 81.864 208.984 82.144C209 82.224 209.012 82.308 209.02 82.396C209.028 82.484 209.032 82.572 209.032 82.66V86.5H207.844V82.864C207.844 82.384 207.716 82.008 207.46 81.736C207.212 81.456 206.872 81.316 206.44 81.316C206.152 81.316 205.892 81.38 205.66 81.508C205.428 81.628 205.228 81.812 205.06 82.06V86.5H203.86ZM217.299 86.62C216.707 86.62 216.167 86.48 215.679 86.2C215.199 85.92 214.819 85.54 214.539 85.06C214.259 84.58 214.119 84.044 214.119 83.452C214.119 82.86 214.259 82.324 214.539 81.844C214.819 81.364 215.199 80.984 215.679 80.704C216.167 80.416 216.707 80.272 217.299 80.272C217.899 80.272 218.439 80.416 218.919 80.704C219.399 80.984 219.779 81.364 220.059 81.844C220.339 82.324 220.479 82.86 220.479 83.452C220.479 84.044 220.339 84.58 220.059 85.06C219.779 85.54 219.399 85.92 218.919 86.2C218.439 86.48 217.899 86.62 217.299 86.62ZM217.299 85.564C217.675 85.564 218.015 85.472 218.319 85.288C218.623 85.096 218.863 84.84 219.039 84.52C219.215 84.2 219.303 83.84 219.303 83.44C219.303 83.048 219.211 82.696 219.027 82.384C218.851 82.064 218.611 81.808 218.307 81.616C218.011 81.424 217.675 81.328 217.299 81.328C216.923 81.328 216.583 81.424 216.279 81.616C215.983 81.808 215.743 82.064 215.559 82.384C215.383 82.696 215.295 83.048 215.295 83.44C215.295 83.84 215.383 84.2 215.559 84.52C215.735 84.84 215.975 85.096 216.279 85.288C216.583 85.472 216.923 85.564 217.299 85.564ZM223.878 86.608C223.286 86.608 222.834 86.472 222.522 86.2C222.21 85.92 222.054 85.516 222.054 84.988V81.4H220.758V80.392H222.054V78.832L223.242 78.544V80.392H225.042V81.4H223.242V84.712C223.242 85.024 223.31 85.248 223.446 85.384C223.59 85.512 223.822 85.576 224.142 85.576C224.31 85.576 224.458 85.564 224.586 85.54C224.722 85.516 224.866 85.48 225.018 85.432V86.44C224.858 86.496 224.67 86.536 224.454 86.56C224.246 86.592 224.054 86.608 223.878 86.608ZM228.761 86.608C228.161 86.608 227.617 86.468 227.129 86.188C226.649 85.908 226.265 85.528 225.977 85.048C225.697 84.568 225.557 84.032 225.557 83.44C225.557 82.856 225.693 82.328 225.965 81.856C226.237 81.376 226.605 80.996 227.069 80.716C227.533 80.428 228.049 80.284 228.617 80.284C229.185 80.284 229.689 80.428 230.129 80.716C230.569 80.996 230.917 81.38 231.173 81.868C231.437 82.348 231.569 82.892 231.569 83.5V83.836H226.757C226.821 84.172 226.945 84.472 227.129 84.736C227.321 85 227.561 85.208 227.849 85.36C228.145 85.512 228.465 85.588 228.809 85.588C229.105 85.588 229.389 85.544 229.661 85.456C229.941 85.36 230.173 85.224 230.357 85.048L231.125 85.804C230.765 86.076 230.393 86.28 230.009 86.416C229.633 86.544 229.217 86.608 228.761 86.608ZM226.769 82.936H230.381C230.333 82.616 230.221 82.336 230.045 82.096C229.877 81.848 229.665 81.656 229.409 81.52C229.161 81.376 228.889 81.304 228.593 81.304C228.289 81.304 228.009 81.372 227.753 81.508C227.497 81.644 227.281 81.836 227.105 82.084C226.937 82.324 226.825 82.608 226.769 82.936Z" fill="#2D3936"/>
<path d="M20.1812 193.619V183.599H24.8193C25.4778 183.599 26.0504 183.727 26.5371 183.985C27.0238 184.233 27.4056 184.581 27.6823 185.03C27.9591 185.479 28.0975 185.999 28.0975 186.59C28.0975 187.182 27.9591 187.702 27.6823 188.151C27.4056 188.599 27.0191 188.952 26.5228 189.21C26.0361 189.458 25.4682 189.582 24.8193 189.582H21.6843V193.619H20.1812ZM21.6843 188.308H24.6618C25.2535 188.308 25.7211 188.156 26.0647 187.85C26.4178 187.535 26.5944 187.12 26.5944 186.605C26.5944 186.089 26.4178 185.679 26.0647 185.374C25.7211 185.068 25.2535 184.916 24.6618 184.916H21.6843V188.308ZM29.4317 193.619V186.333H30.8632V187.263C31.0922 186.92 31.3738 186.652 31.7078 186.462C32.0514 186.261 32.4379 186.161 32.8673 186.161C33.1632 186.17 33.4065 186.213 33.5974 186.29V187.578C33.4638 187.521 33.3254 187.483 33.1823 187.464C33.0391 187.435 32.896 187.421 32.7528 187.421C32.3329 187.421 31.9607 187.535 31.6362 187.764C31.3117 187.984 31.0541 188.308 30.8632 188.738V193.619H29.4317ZM37.7888 193.762C37.0826 193.762 36.4384 193.595 35.8563 193.261C35.2837 192.927 34.8304 192.474 34.4964 191.901C34.1623 191.329 33.9953 190.689 33.9953 189.983C33.9953 189.277 34.1623 188.637 34.4964 188.065C34.8304 187.492 35.2837 187.039 35.8563 186.705C36.4384 186.361 37.0826 186.19 37.7888 186.19C38.5046 186.19 39.1488 186.361 39.7214 186.705C40.294 187.039 40.7473 187.492 41.0813 188.065C41.4154 188.637 41.5824 189.277 41.5824 189.983C41.5824 190.689 41.4154 191.329 41.0813 191.901C40.7473 192.474 40.294 192.927 39.7214 193.261C39.1488 193.595 38.5046 193.762 37.7888 193.762ZM37.7888 192.503C38.2374 192.503 38.643 192.393 39.0056 192.173C39.3683 191.944 39.6546 191.639 39.8645 191.257C40.0745 190.875 40.1795 190.446 40.1795 189.969C40.1795 189.501 40.0697 189.081 39.8502 188.709C39.6403 188.327 39.354 188.022 38.9913 187.793C38.6382 187.564 38.2374 187.449 37.7888 187.449C37.3403 187.449 36.9347 187.564 36.5721 187.793C36.2189 188.022 35.9326 188.327 35.7131 188.709C35.5032 189.081 35.3982 189.501 35.3982 189.969C35.3982 190.446 35.5032 190.875 35.7131 191.257C35.9231 191.639 36.2094 191.944 36.5721 192.173C36.9347 192.393 37.3403 192.503 37.7888 192.503ZM46.2858 193.734C45.6082 193.734 44.9879 193.567 44.4248 193.233C43.8618 192.899 43.418 192.45 43.0935 191.887C42.769 191.314 42.6068 190.675 42.6068 189.969C42.6068 189.263 42.769 188.628 43.0935 188.065C43.4275 187.502 43.8761 187.053 44.4391 186.719C45.0022 186.385 45.6273 186.218 46.3144 186.218C46.7152 186.218 47.1018 186.28 47.474 186.404C47.8461 186.528 48.1897 186.71 48.5046 186.948V183.599L49.9362 183.327V193.619H48.519V192.918C47.8986 193.462 47.1542 193.734 46.2858 193.734ZM46.4719 192.488C46.8918 192.488 47.2735 192.412 47.6171 192.259C47.9702 192.107 48.2661 191.887 48.5046 191.601V188.323C48.2661 188.055 47.9702 187.845 47.6171 187.693C47.2735 187.53 46.8918 187.449 46.4719 187.449C46.0138 187.449 45.5987 187.559 45.2265 187.779C44.8543 187.998 44.5584 188.299 44.3389 188.68C44.1194 189.053 44.0097 189.477 44.0097 189.954C44.0097 190.432 44.1194 190.861 44.3389 191.243C44.5584 191.625 44.8543 191.93 45.2265 192.159C45.5987 192.378 46.0138 192.488 46.4719 192.488ZM54.4515 193.762C53.8884 193.762 53.3922 193.643 52.9627 193.404C52.5333 193.166 52.1992 192.832 51.9606 192.402C51.7221 191.963 51.6028 191.462 51.6028 190.899V186.333H53.02V190.656C53.02 191.229 53.1822 191.682 53.5067 192.016C53.8407 192.35 54.2845 192.517 54.838 192.517C55.2293 192.517 55.5776 192.436 55.883 192.274C56.1884 192.102 56.4365 191.863 56.6274 191.558V186.333H58.0589V193.619H56.6274V192.875C56.0643 193.466 55.339 193.762 54.4515 193.762ZM63.1749 193.748C62.4782 193.748 61.8436 193.581 61.271 193.247C60.6984 192.913 60.2451 192.46 59.911 191.887C59.5866 191.314 59.4243 190.675 59.4243 189.969C59.4243 189.263 59.5913 188.628 59.9254 188.065C60.2594 187.492 60.7079 187.039 61.271 186.705C61.8436 186.361 62.4782 186.19 63.1749 186.19C63.7284 186.19 64.2581 186.295 64.7639 186.504C65.2792 186.714 65.723 187.01 66.0952 187.392L65.2077 188.38C64.9309 188.074 64.6207 187.845 64.2772 187.693C63.9336 187.54 63.5757 187.464 63.2035 187.464C62.7645 187.464 62.3637 187.573 62.0011 187.793C61.648 188.012 61.3664 188.313 61.1565 188.695C60.9465 189.076 60.8415 189.501 60.8415 189.969C60.8415 190.436 60.9465 190.861 61.1565 191.243C61.3664 191.625 61.6527 191.93 62.0154 192.159C62.378 192.378 62.7836 192.488 63.2322 192.488C63.6044 192.488 63.9527 192.417 64.2772 192.274C64.6017 192.121 64.907 191.901 65.1933 191.615L66.0666 192.531C65.6848 192.922 65.2411 193.223 64.7353 193.433C64.239 193.643 63.7189 193.748 63.1749 193.748ZM70.4792 193.748C69.773 193.748 69.2338 193.586 68.8616 193.261C68.4894 192.927 68.3033 192.445 68.3033 191.815V187.535H66.7573V186.333H68.3033V184.472L69.7205 184.128V186.333H71.8678V187.535H69.7205V191.486C69.7205 191.858 69.8016 192.126 69.9639 192.288C70.1357 192.441 70.4124 192.517 70.7942 192.517C70.9946 192.517 71.1711 192.503 71.3238 192.474C71.4861 192.445 71.6578 192.402 71.8392 192.345V193.548C71.6483 193.614 71.424 193.662 71.1664 193.691C70.9182 193.729 70.6892 193.748 70.4792 193.748ZM79.2638 193.734C78.5862 193.734 77.9659 193.567 77.4029 193.233C76.8398 192.899 76.396 192.45 76.0715 191.887C75.7471 191.314 75.5848 190.675 75.5848 189.969C75.5848 189.263 75.7471 188.628 76.0715 188.065C76.4056 187.502 76.8541 187.053 77.4172 186.719C77.9802 186.385 78.6053 186.218 79.2925 186.218C79.6933 186.218 80.0798 186.28 80.452 186.404C80.8242 186.528 81.1677 186.71 81.4827 186.948V183.599L82.9142 183.327V193.619H81.497V192.918C80.8767 193.462 80.1323 193.734 79.2638 193.734ZM79.4499 192.488C79.8698 192.488 80.2516 192.412 80.5951 192.259C80.9482 192.107 81.2441 191.887 81.4827 191.601V188.323C81.2441 188.055 80.9482 187.845 80.5951 187.693C80.2516 187.53 79.8698 187.449 79.4499 187.449C78.9918 187.449 78.5767 187.559 78.2045 187.779C77.8323 187.998 77.5365 188.299 77.317 188.68C77.0975 189.053 76.9877 189.477 76.9877 189.954C76.9877 190.432 77.0975 190.861 77.317 191.243C77.5365 191.625 77.8323 191.93 78.2045 192.159C78.5767 192.378 78.9918 192.488 79.4499 192.488ZM88.1023 193.748C87.3866 193.748 86.7376 193.581 86.1555 193.247C85.5829 192.913 85.1248 192.46 84.7812 191.887C84.4472 191.314 84.2802 190.675 84.2802 189.969C84.2802 189.272 84.4424 188.642 84.7669 188.079C85.0914 187.507 85.5304 187.053 86.0839 186.719C86.6374 186.376 87.253 186.204 87.9305 186.204C88.6081 186.204 89.2094 186.376 89.7343 186.719C90.2592 187.053 90.6743 187.511 90.9797 188.093C91.2946 188.666 91.4521 189.315 91.4521 190.04V190.441H85.7117C85.788 190.842 85.936 191.2 86.1555 191.515C86.3845 191.83 86.6708 192.078 87.0144 192.259C87.3675 192.441 87.7492 192.531 88.1596 192.531C88.5127 192.531 88.8515 192.479 89.176 192.374C89.51 192.259 89.7867 192.097 90.0062 191.887L90.9224 192.789C90.493 193.113 90.0492 193.357 89.5911 193.519C89.1426 193.672 88.6463 193.748 88.1023 193.748ZM85.726 189.368H90.0349C89.9776 188.986 89.844 188.652 89.6341 188.365C89.4336 188.07 89.1807 187.841 88.8754 187.678C88.5795 187.507 88.255 187.421 87.9019 187.421C87.5393 187.421 87.2052 187.502 86.8999 187.664C86.5945 187.826 86.3368 188.055 86.1268 188.351C85.9264 188.637 85.7928 188.976 85.726 189.368ZM95.3905 193.762C94.7607 193.762 94.169 193.672 93.6155 193.49C93.0715 193.299 92.5991 193.032 92.1983 192.689L92.9856 191.744C93.3578 192.04 93.7395 192.269 94.1308 192.431C94.5316 192.584 94.9372 192.66 95.3476 192.66C95.8629 192.66 96.2829 192.56 96.6073 192.359C96.9318 192.159 97.0941 191.897 97.0941 191.572C97.0941 191.305 96.9986 191.095 96.8077 190.942C96.6169 190.79 96.321 190.685 95.9202 190.627L94.6032 190.441C93.8779 190.336 93.3339 190.112 92.9713 189.768C92.6086 189.425 92.4273 188.967 92.4273 188.394C92.4273 187.955 92.5466 187.573 92.7852 187.249C93.0238 186.915 93.3578 186.657 93.7872 186.476C94.2167 186.285 94.7177 186.19 95.2903 186.19C95.8152 186.19 96.321 186.266 96.8077 186.419C97.2945 186.571 97.7621 186.81 98.2106 187.134L97.4806 188.079C97.0797 187.812 96.6885 187.616 96.3067 187.492C95.9345 187.368 95.5576 187.306 95.1758 187.306C94.7368 187.306 94.3837 187.402 94.1165 187.592C93.8493 187.774 93.7157 188.012 93.7157 188.308C93.7157 188.575 93.8063 188.785 93.9877 188.938C94.1785 189.081 94.4887 189.181 94.9181 189.239L96.2351 189.425C96.9604 189.53 97.5092 189.754 97.8814 190.098C98.2536 190.432 98.4397 190.885 98.4397 191.458C98.4397 191.897 98.3061 192.293 98.0389 192.646C97.7716 192.989 97.409 193.261 96.9509 193.462C96.4928 193.662 95.9727 193.762 95.3905 193.762ZM99.5397 193.619V186.333H100.971V193.619H99.5397ZM100.255 185.159C100.017 185.159 99.8117 185.073 99.6399 184.901C99.4681 184.72 99.3822 184.51 99.3822 184.271C99.3822 184.023 99.4681 183.818 99.6399 183.656C99.8117 183.484 100.017 183.398 100.255 183.398C100.504 183.398 100.714 183.484 100.885 183.656C101.057 183.818 101.143 184.023 101.143 184.271C101.143 184.51 101.057 184.72 100.885 184.901C100.714 185.073 100.504 185.159 100.255 185.159ZM106.265 196.683C105.73 196.683 105.21 196.621 104.704 196.496C104.198 196.372 103.74 196.196 103.33 195.967L103.874 194.85C104.303 195.07 104.704 195.227 105.076 195.323C105.458 195.428 105.84 195.48 106.222 195.48C106.861 195.48 107.343 195.332 107.667 195.036C108.002 194.74 108.169 194.306 108.169 193.734V192.903C107.529 193.409 106.799 193.662 105.978 193.662C105.31 193.662 104.695 193.5 104.132 193.175C103.578 192.841 103.139 192.393 102.815 191.83C102.49 191.257 102.328 190.627 102.328 189.94C102.328 189.243 102.49 188.614 102.815 188.051C103.149 187.478 103.592 187.029 104.146 186.705C104.709 186.371 105.339 186.204 106.036 186.204C106.427 186.204 106.804 186.271 107.166 186.404C107.539 186.528 107.877 186.71 108.183 186.948V186.333H109.6V193.734C109.6 194.678 109.309 195.404 108.727 195.91C108.154 196.425 107.333 196.683 106.265 196.683ZM106.164 192.431C106.584 192.431 106.966 192.359 107.31 192.216C107.653 192.064 107.939 191.849 108.169 191.572V188.308C107.939 188.041 107.648 187.831 107.295 187.678C106.952 187.526 106.575 187.449 106.164 187.449C105.706 187.449 105.291 187.559 104.919 187.779C104.556 187.998 104.265 188.299 104.046 188.68C103.836 189.053 103.731 189.473 103.731 189.94C103.731 190.408 103.836 190.832 104.046 191.214C104.265 191.586 104.556 191.882 104.919 192.102C105.291 192.321 105.706 192.431 106.164 192.431ZM111.283 193.619V186.333H112.714V187.077C113.277 186.485 114.007 186.19 114.904 186.19C115.467 186.19 115.959 186.309 116.379 186.547C116.808 186.786 117.142 187.12 117.381 187.55C117.629 187.979 117.753 188.475 117.753 189.038V193.619H116.322V189.282C116.322 188.709 116.159 188.26 115.835 187.936C115.52 187.602 115.076 187.435 114.504 187.435C114.122 187.435 113.778 187.516 113.473 187.678C113.167 187.841 112.915 188.074 112.714 188.38V193.619H111.283ZM122.898 193.748C122.182 193.748 121.533 193.581 120.951 193.247C120.378 192.913 119.92 192.46 119.577 191.887C119.243 191.314 119.076 190.675 119.076 189.969C119.076 189.272 119.238 188.642 119.562 188.079C119.887 187.507 120.326 187.053 120.879 186.719C121.433 186.376 122.048 186.204 122.726 186.204C123.404 186.204 124.005 186.376 124.53 186.719C125.055 187.053 125.47 187.511 125.775 188.093C126.09 188.666 126.247 189.315 126.247 190.04V190.441H120.507C120.583 190.842 120.731 191.2 120.951 191.515C121.18 191.83 121.466 192.078 121.81 192.259C122.163 192.441 122.545 192.531 122.955 192.531C123.308 192.531 123.647 192.479 123.971 192.374C124.305 192.259 124.582 192.097 124.802 191.887L125.718 192.789C125.288 193.113 124.845 193.357 124.386 193.519C123.938 193.672 123.442 193.748 122.898 193.748ZM120.521 189.368H124.83C124.773 188.986 124.639 188.652 124.429 188.365C124.229 188.07 123.976 187.841 123.671 187.678C123.375 187.507 123.05 187.421 122.697 187.421C122.335 187.421 122.001 187.502 121.695 187.664C121.39 187.826 121.132 188.055 120.922 188.351C120.722 188.637 120.588 188.976 120.521 189.368ZM127.611 193.619V186.333H129.042V187.263C129.271 186.92 129.553 186.652 129.887 186.462C130.231 186.261 130.617 186.161 131.047 186.161C131.342 186.17 131.586 186.213 131.777 186.29V187.578C131.643 187.521 131.505 187.483 131.361 187.464C131.218 187.435 131.075 187.421 130.932 187.421C130.512 187.421 130.14 187.535 129.815 187.764C129.491 187.984 129.233 188.308 129.042 188.738V193.619H127.611Z" fill="#2D3936"/>
<path d="M138.704 192.119V184.103H142.334C142.869 184.103 143.334 184.202 143.731 184.4C144.136 184.599 144.449 184.878 144.671 185.236C144.9 185.588 145.014 186 145.014 186.473C145.014 187 144.865 187.454 144.567 187.836C144.27 188.218 143.869 188.493 143.365 188.661L145.152 192.119H143.823L142.163 188.832H139.906V192.119H138.704ZM139.906 187.825H142.243C142.716 187.825 143.094 187.706 143.376 187.47C143.667 187.225 143.812 186.897 143.812 186.485C143.812 186.088 143.667 185.767 143.376 185.523C143.094 185.278 142.716 185.156 142.243 185.156H139.906V187.825ZM148.563 192.222C147.991 192.222 147.471 192.089 147.006 191.821C146.548 191.554 146.181 191.192 145.906 190.733C145.639 190.275 145.505 189.764 145.505 189.199C145.505 188.642 145.635 188.138 145.895 187.687C146.154 187.229 146.506 186.866 146.948 186.599C147.391 186.324 147.884 186.187 148.426 186.187C148.968 186.187 149.449 186.324 149.869 186.599C150.289 186.866 150.621 187.233 150.865 187.699C151.117 188.157 151.243 188.676 151.243 189.256V189.577H146.651C146.712 189.897 146.83 190.184 147.006 190.436C147.189 190.688 147.418 190.886 147.693 191.031C147.975 191.176 148.281 191.249 148.609 191.249C148.891 191.249 149.163 191.207 149.422 191.123C149.689 191.031 149.911 190.901 150.086 190.733L150.819 191.455C150.476 191.714 150.121 191.909 149.754 192.039C149.395 192.161 148.998 192.222 148.563 192.222ZM146.662 188.718H150.109C150.063 188.412 149.957 188.145 149.789 187.916C149.628 187.68 149.426 187.496 149.182 187.367C148.945 187.229 148.685 187.16 148.403 187.16C148.113 187.16 147.846 187.225 147.601 187.355C147.357 187.485 147.151 187.668 146.983 187.905C146.822 188.134 146.716 188.405 146.662 188.718ZM152.334 192.119V186.29H153.479V186.851C153.914 186.401 154.46 186.175 155.117 186.175C155.514 186.175 155.865 186.263 156.17 186.439C156.483 186.614 156.731 186.851 156.915 187.149C157.159 186.828 157.445 186.588 157.773 186.427C158.102 186.259 158.472 186.175 158.884 186.175C159.32 186.175 159.697 186.271 160.018 186.462C160.346 186.653 160.602 186.92 160.785 187.263C160.976 187.607 161.072 188.004 161.072 188.454V192.119H159.926V188.649C159.926 188.191 159.804 187.832 159.56 187.573C159.323 187.305 158.999 187.172 158.587 187.172C158.304 187.172 158.048 187.237 157.819 187.367C157.59 187.496 157.392 187.695 157.224 187.962C157.239 188.038 157.251 188.119 157.258 188.203C157.266 188.286 157.27 188.37 157.27 188.454V192.119H156.136V188.649C156.136 188.191 156.014 187.832 155.769 187.573C155.533 187.305 155.208 187.172 154.796 187.172C154.521 187.172 154.273 187.233 154.052 187.355C153.83 187.47 153.639 187.645 153.479 187.882V192.119H152.334ZM165.159 192.234C164.594 192.234 164.079 192.1 163.613 191.833C163.155 191.566 162.793 191.203 162.525 190.745C162.258 190.287 162.125 189.775 162.125 189.21C162.125 188.645 162.258 188.134 162.525 187.676C162.793 187.218 163.155 186.855 163.613 186.588C164.079 186.313 164.594 186.175 165.159 186.175C165.732 186.175 166.247 186.313 166.705 186.588C167.163 186.855 167.526 187.218 167.793 187.676C168.061 188.134 168.194 188.645 168.194 189.21C168.194 189.775 168.061 190.287 167.793 190.745C167.526 191.203 167.163 191.566 166.705 191.833C166.247 192.1 165.732 192.234 165.159 192.234ZM165.159 191.226C165.518 191.226 165.843 191.138 166.133 190.962C166.423 190.779 166.652 190.535 166.82 190.23C166.988 189.924 167.072 189.581 167.072 189.199C167.072 188.825 166.984 188.489 166.808 188.191C166.64 187.886 166.411 187.641 166.121 187.458C165.839 187.275 165.518 187.183 165.159 187.183C164.8 187.183 164.476 187.275 164.186 187.458C163.903 187.641 163.674 187.886 163.499 188.191C163.331 188.489 163.247 188.825 163.247 189.199C163.247 189.581 163.331 189.924 163.499 190.23C163.667 190.535 163.896 190.779 164.186 190.962C164.476 191.138 164.8 191.226 165.159 191.226ZM171.438 192.222C170.873 192.222 170.442 192.092 170.144 191.833C169.846 191.566 169.697 191.18 169.697 190.676V187.252H168.461V186.29H169.697V184.801L170.831 184.526V186.29H172.549V187.252H170.831V190.413C170.831 190.711 170.896 190.924 171.026 191.054C171.163 191.176 171.385 191.237 171.69 191.237C171.85 191.237 171.992 191.226 172.114 191.203C172.244 191.18 172.381 191.146 172.526 191.1V192.062C172.373 192.115 172.194 192.153 171.988 192.176C171.789 192.207 171.606 192.222 171.438 192.222ZM176.098 192.222C175.525 192.222 175.006 192.089 174.54 191.821C174.082 191.554 173.716 191.192 173.441 190.733C173.173 190.275 173.04 189.764 173.04 189.199C173.04 188.642 173.17 188.138 173.429 187.687C173.689 187.229 174.04 186.866 174.483 186.599C174.926 186.324 175.418 186.187 175.96 186.187C176.502 186.187 176.983 186.324 177.403 186.599C177.823 186.866 178.155 187.233 178.399 187.699C178.651 188.157 178.777 188.676 178.777 189.256V189.577H174.185C174.246 189.897 174.364 190.184 174.54 190.436C174.723 190.688 174.952 190.886 175.227 191.031C175.51 191.176 175.815 191.249 176.143 191.249C176.426 191.249 176.697 191.207 176.956 191.123C177.224 191.031 177.445 190.901 177.621 190.733L178.354 191.455C178.01 191.714 177.655 191.909 177.289 192.039C176.93 192.161 176.533 192.222 176.098 192.222ZM174.196 188.718H177.644C177.598 188.412 177.491 188.145 177.323 187.916C177.163 187.68 176.96 187.496 176.716 187.367C176.479 187.229 176.22 187.16 175.937 187.16C175.647 187.16 175.38 187.225 175.136 187.355C174.891 187.485 174.685 187.668 174.517 187.905C174.357 188.134 174.25 188.405 174.196 188.718Z" fill="#2D3936"/>
<line x1="20.0526" y1="110.66" x2="432.584" y2="110.66" stroke="#E6F3EE" stroke-width="0.828376"/>
<defs>
<clipPath id="clip0_142_1576">
<rect width="17.1782" height="17.1782" fill="white" transform="translate(285.85 34.4402)"/>
</clipPath>
<clipPath id="clip1_142_1576">
<rect width="17.1782" height="17.1782" fill="white" transform="translate(286.38 139.472)"/>
</clipPath>
</defs>
</svg>
