<svg width="43" height="52" viewBox="0 0 43 52" fill="none" xmlns="http://www.w3.org/2000/svg">
<path d="M15.4 40.48C12.5733 40.48 10.1467 39.88 8.12 38.68C6.09333 37.4533 4.53333 35.76 3.44 33.6C2.34667 31.4133 1.8 28.8933 1.8 26.04C1.8 23.1867 2.34667 20.6667 3.44 18.48C4.53333 16.2933 6.09333 14.5867 8.12 13.36C10.1467 12.1333 12.5733 11.52 15.4 11.52C18.76 11.52 21.5067 12.36 23.64 14.04C25.8 15.6933 27.1467 18.0267 27.68 21.04H22.04C21.6933 19.52 20.9467 18.3333 19.8 17.48C18.68 16.6 17.1867 16.16 15.32 16.16C12.7333 16.16 10.7067 17.04 9.24 18.8C7.77333 20.56 7.04 22.9733 7.04 26.04C7.04 29.1067 7.77333 31.52 9.24 33.28C10.7067 35.0133 12.7333 35.88 15.32 35.88C17.1867 35.88 18.68 35.48 19.8 34.68C20.9467 33.8533 21.6933 32.72 22.04 31.28H27.68C27.1467 34.16 25.8 36.4133 23.64 38.04C21.5067 39.6667 18.76 40.48 15.4 40.48Z" fill="#008552"/>
<path d="M28.2 40.48C25.6133 40.48 23.4 39.88 21.56 38.68C19.72 37.4533 18.2933 35.76 17.28 33.6C16.2933 31.4133 15.8 28.88 15.8 26C15.8 23.1467 16.2933 20.6267 17.28 18.44C18.2933 16.2533 19.72 14.56 21.56 13.36C23.4 12.1333 25.6133 11.52 28.2 11.52C30.7867 11.52 33 12.1333 34.84 13.36C36.68 14.56 38.0933 16.2533 39.08 18.44C40.0933 20.6267 40.6 23.1467 40.6 26C40.6 28.88 40.0933 31.4133 39.08 33.6C38.0933 35.76 36.68 37.4533 34.84 38.68C33 39.88 30.7867 40.48 28.2 40.48ZM28.2 35.88C30.3067 35.88 32.0267 35 33.36 33.24C34.6933 31.48 35.36 29.0667 35.36 26C35.36 22.9333 34.6933 20.52 33.36 18.76C32.0267 17 30.3067 16.12 28.2 16.12C26.0667 16.12 24.3333 17 23 18.76C21.6933 20.52 21.04 22.9333 21.04 26C21.04 29.0667 21.6933 31.48 23 33.24C24.3333 35 26.0667 35.88 28.2 35.88Z" fill="#008552"/>
</svg>