<svg width="21" height="20" viewBox="0 0 21 20" fill="none" xmlns="http://www.w3.org/2000/svg">
<g clip-path="url(#clip0_432_7846)">
<path d="M18.625 0.468822H2.375C2.0063 0.46507 1.65117 0.607735 1.38753 0.865514C1.12389 1.12329 0.973283 1.47513 0.96875 1.84382V18.1594C0.974103 18.5276 1.12507 18.8786 1.38862 19.1357C1.65217 19.3928 2.00683 19.5351 2.375 19.5313H18.625C18.9937 19.5342 19.3486 19.3911 19.6121 19.1332C19.8756 18.8752 20.0263 18.5235 20.0312 18.1548V1.83913C20.0247 1.47152 19.8733 1.12136 19.6099 0.864769C19.3466 0.608173 18.9927 0.465881 18.625 0.468822Z" fill="#0076B2"/>
<path d="M3.79067 7.61401H6.62036V16.7187H3.79067V7.61401ZM5.2063 3.08276C5.53085 3.08276 5.84811 3.17902 6.11794 3.35937C6.38778 3.53971 6.59806 3.79603 6.72219 4.09591C6.84632 4.39579 6.87872 4.72574 6.81528 5.04403C6.75185 5.36233 6.59544 5.65466 6.36584 5.88404C6.13624 6.11342 5.84376 6.26955 5.52541 6.33268C5.20706 6.39581 4.87713 6.36309 4.57738 6.23868C4.27762 6.11426 4.0215 5.90374 3.84141 5.63373C3.66132 5.36373 3.56537 5.04638 3.56567 4.72183C3.56609 4.28698 3.73912 3.87008 4.04675 3.56274C4.35439 3.2554 4.77145 3.08276 5.2063 3.08276ZM8.39536 7.61401H11.1079V8.86401H11.1454C11.5235 8.14839 12.4454 7.3937 13.8219 7.3937C16.6875 7.38745 17.2188 9.27339 17.2188 11.7187V16.7187H14.3891V12.289C14.3891 11.2343 14.3704 9.87651 12.9188 9.87651C11.4672 9.87651 11.2204 11.0265 11.2204 12.2203V16.7187H8.39536V7.61401Z" fill="white"/>
</g>
<defs>
<clipPath id="clip0_432_7846">
<rect width="20" height="20" fill="white" transform="translate(0.5)"/>
</clipPath>
</defs>
</svg>
