<svg width="24" height="22" viewBox="0 0 24 22" fill="none" xmlns="http://www.w3.org/2000/svg">
<path d="M21.2699 8.583C20.9799 8.18872 20.6699 7.82015 20.3499 7.47729C19.9799 7.07443 19.2799 7.04015 18.8599 7.40015L15.8599 9.97158C16.0799 10.5373 16.1199 11.1887 15.9199 11.8659C15.5699 13.0744 14.4299 14.0516 13.0199 14.3516C12.2299 14.523 11.4699 14.4887 10.8099 14.3001C10.8099 14.3001 9.37995 15.5259 8.34995 16.4087C7.84995 16.8373 8.00995 17.5916 8.67995 17.8144C9.74995 18.1659 10.8599 18.3459 11.9999 18.3459C13.7799 18.3459 15.5099 17.9001 17.0899 17.0687C18.6999 16.2116 20.1499 14.9516 21.3199 13.3487C22.2699 12.0544 22.2199 9.87729 21.2699 8.583Z" fill="#BEC2C1"/>
<path d="M14.0199 9.26858L9.97989 12.7314C9.46989 12.2857 9.13989 11.6686 9.13989 11C9.13989 9.6543 10.4199 8.54858 11.9999 8.54858C12.7799 8.54858 13.4999 8.83144 14.0199 9.26858Z" fill="#BEC2C1"/>
<path d="M18.25 5.64287L14.86 8.54858C14.13 7.9143 13.12 7.53715 12 7.53715C9.76 7.53715 7.96 9.08858 7.96 11C7.96 11.96 8.41 12.8257 9.14 13.4514L5.76 16.3572H5.75C4.64 15.5857 3.62 14.6 2.75 13.4343C1.75 12.0886 1.75 9.90287 2.75 8.55715C3.91 6.99715 5.33 5.77144 6.91 4.93144C8.49 4.10858 10.22 3.6543 12 3.6543C14.23 3.6543 16.39 4.35715 18.25 5.64287Z" fill="#BEC2C1"/>
<path d="M14.8601 11C14.8601 12.3457 13.5801 13.4514 12.0001 13.4514C11.9401 13.4514 11.8901 13.4514 11.8301 13.4342L14.8401 10.8542C14.8601 10.9057 14.8601 10.9485 14.8601 11Z" fill="#BEC2C1"/>
<path d="M21.7699 2.62572C21.4699 2.36858 20.9799 2.36858 20.6799 2.62572L2.22988 18.4486C1.92988 18.7057 1.92988 19.1257 2.22988 19.3829C2.37988 19.5029 2.56988 19.5714 2.76988 19.5714C2.96988 19.5714 3.15988 19.5029 3.30988 19.3743L21.7699 3.55143C22.0799 3.29429 22.0799 2.88286 21.7699 2.62572Z" fill="#BEC2C1"/>
</svg>
