<svg width="21" height="20" viewBox="0 0 21 20" fill="none" xmlns="http://www.w3.org/2000/svg">
<path d="M20.5 10.2222C20.5 9.39995 20.4319 8.79995 20.2846 8.17773H10.7041V11.8888H16.3276C16.2143 12.8111 15.6021 14.1999 14.2415 15.1332L14.2224 15.2575L17.2516 17.5572L17.4615 17.5777C19.3889 15.8333 20.5 13.2666 20.5 10.2222Z" fill="#4285F4"/>
<path d="M10.7041 20C13.4591 20 15.772 19.1111 17.4614 17.5778L14.2414 15.1333C13.3798 15.7222 12.2233 16.1333 10.7041 16.1333C8.00566 16.1333 5.71542 14.3889 4.89902 11.9778L4.77935 11.9877L1.62957 14.3766L1.58838 14.4889C3.26637 17.7555 6.71309 20 10.7041 20Z" fill="#34A853"/>
<path d="M4.89905 11.9778C4.68363 11.3555 4.55897 10.6888 4.55897 9.99997C4.55897 9.31104 4.68363 8.6444 4.88772 8.02219L4.88201 7.88967L1.69276 5.4624L1.58841 5.51104C0.89683 6.86662 0.5 8.38887 0.5 9.99997C0.5 11.6111 0.89683 13.1333 1.58841 14.4888L4.89905 11.9778Z" fill="#FBBC05"/>
<path d="M10.7041 3.86664C12.6201 3.86664 13.9126 4.67775 14.6496 5.35557L17.5294 2.6C15.7608 0.988893 13.4591 0 10.7041 0C6.71309 0 3.26637 2.24443 1.58838 5.51107L4.88769 8.02221C5.71542 5.61111 8.00566 3.86664 10.7041 3.86664Z" fill="#EB4335"/>
</svg>
