<svg width="190" height="83" viewBox="0 0 190 83" fill="none" xmlns="http://www.w3.org/2000/svg">
<path d="M24.64 63.768C20.1173 63.768 16.2347 62.808 12.992 60.888C9.74933 58.9253 7.25333 56.216 5.504 52.76C3.75467 49.2613 2.88 45.2293 2.88 40.664C2.88 36.0987 3.75467 32.0667 5.504 28.568C7.25333 25.0693 9.74933 22.3387 12.992 20.376C16.2347 18.4133 20.1173 17.432 24.64 17.432C30.016 17.432 34.4107 18.776 37.824 21.464C41.28 24.1093 43.4347 27.8427 44.288 32.664H35.264C34.7093 30.232 33.5147 28.3333 31.68 26.968C29.888 25.56 27.4987 24.856 24.512 24.856C20.3733 24.856 17.1307 26.264 14.784 29.08C12.4373 31.896 11.264 35.7573 11.264 40.664C11.264 45.5707 12.4373 49.432 14.784 52.248C17.1307 55.0213 20.3733 56.408 24.512 56.408C27.4987 56.408 29.888 55.768 31.68 54.488C33.5147 53.1653 34.7093 51.352 35.264 49.048H44.288C43.4347 53.656 41.28 57.2613 37.824 59.864C34.4107 62.4667 30.016 63.768 24.64 63.768Z" fill="#008552"/>
<path d="M44.72 63.768C40.5813 63.768 37.04 62.808 34.096 60.888C31.152 58.9253 28.8693 56.216 27.248 52.76C25.6693 49.2613 24.88 45.208 24.88 40.6C24.88 36.0347 25.6693 32.0027 27.248 28.504C28.8693 25.0053 31.152 22.296 34.096 20.376C37.04 18.4133 40.5813 17.432 44.72 17.432C48.8587 17.432 52.4 18.4133 55.344 20.376C58.288 22.296 60.5493 25.0053 62.128 28.504C63.7493 32.0027 64.56 36.0347 64.56 40.6C64.56 45.208 63.7493 49.2613 62.128 52.76C60.5493 56.216 58.288 58.9253 55.344 60.888C52.4 62.808 48.8587 63.768 44.72 63.768ZM44.72 56.408C48.0907 56.408 50.8427 55 52.976 52.184C55.1093 49.368 56.176 45.5067 56.176 40.6C56.176 35.6933 55.1093 31.832 52.976 29.016C50.8427 26.2 48.0907 24.792 44.72 24.792C41.3067 24.792 38.5333 26.2 36.4 29.016C34.3093 31.832 33.264 35.6933 33.264 40.6C33.264 45.5067 34.3093 49.368 36.4 52.184C38.5333 55 41.3067 56.408 44.72 56.408Z" fill="#008552"/>
<path d="M80.16 48.7C79.12 48.7 78.1467 48.52 77.24 48.16C76.3333 47.7867 75.54 47.2733 74.86 46.62C74.1933 45.9667 73.6667 45.2067 73.28 44.34C72.9067 43.46 72.72 42.5133 72.72 41.5C72.72 40.4733 72.9067 39.5267 73.28 38.66C73.6667 37.78 74.2 37.0133 74.88 36.36C75.56 35.7067 76.3467 35.2 77.24 34.84C78.1467 34.4667 79.12 34.28 80.16 34.28C80.9333 34.28 81.68 34.3867 82.4 34.6C83.12 34.8133 83.7867 35.1133 84.4 35.5C85.0267 35.8867 85.56 36.3533 86 36.9L84.04 38.84C83.5333 38.2133 82.9467 37.74 82.28 37.42C81.6267 37.1 80.92 36.94 80.16 36.94C79.5333 36.94 78.9467 37.06 78.4 37.3C77.8533 37.5267 77.38 37.8467 76.98 38.26C76.58 38.66 76.2667 39.14 76.04 39.7C75.8133 40.2467 75.7 40.8467 75.7 41.5C75.7 42.14 75.8133 42.74 76.04 43.3C76.2667 43.8467 76.5867 44.3267 77 44.74C77.4133 45.14 77.8933 45.4533 78.44 45.68C79 45.9067 79.6067 46.02 80.26 46.02C80.9933 46.02 81.68 45.8667 82.32 45.56C82.96 45.2533 83.5267 44.8133 84.02 44.24L85.92 46.12C85.48 46.6533 84.9533 47.1133 84.34 47.5C83.7267 47.8867 83.06 48.1867 82.34 48.4C81.6333 48.6 80.9067 48.7 80.16 48.7ZM90.7555 48.68C90.0088 48.68 89.3488 48.5467 88.7755 48.28C88.2021 48 87.7555 47.62 87.4355 47.14C87.1155 46.66 86.9555 46.1067 86.9555 45.48C86.9555 44.48 87.3288 43.7067 88.0755 43.16C88.8355 42.6 89.8755 42.32 91.1955 42.32C92.1021 42.32 92.9555 42.46 93.7555 42.74V41.98C93.7555 41.38 93.5688 40.9267 93.1955 40.62C92.8221 40.3133 92.2755 40.16 91.5555 40.16C91.1155 40.16 90.6421 40.2333 90.1355 40.38C89.6288 40.5133 89.0421 40.7267 88.3755 41.02L87.3755 39C88.2021 38.6267 88.9888 38.3467 89.7355 38.16C90.4955 37.9733 91.2555 37.88 92.0155 37.88C93.4155 37.88 94.5021 38.22 95.2755 38.9C96.0621 39.5667 96.4555 40.5133 96.4555 41.74V48.5H93.7555V47.76C93.3288 48.08 92.8688 48.3133 92.3755 48.46C91.8821 48.6067 91.3421 48.68 90.7555 48.68ZM89.5555 45.42C89.5555 45.82 89.7288 46.14 90.0755 46.38C90.4221 46.6067 90.8821 46.72 91.4555 46.72C91.9088 46.72 92.3288 46.6667 92.7155 46.56C93.1021 46.44 93.4488 46.2667 93.7555 46.04V44.52C93.4221 44.3867 93.0755 44.2867 92.7155 44.22C92.3555 44.1533 91.9688 44.12 91.5555 44.12C90.9288 44.12 90.4355 44.24 90.0755 44.48C89.7288 44.7067 89.5555 45.02 89.5555 45.42ZM98.5292 48.5V38.08H101.269V39.24C101.603 38.7867 102.003 38.44 102.469 38.2C102.936 37.96 103.463 37.84 104.049 37.84C104.556 37.8533 104.936 37.9333 105.189 38.08V40.48C104.989 40.3867 104.769 40.32 104.529 40.28C104.289 40.2267 104.043 40.2 103.789 40.2C103.256 40.2 102.769 40.3333 102.329 40.6C101.889 40.8667 101.536 41.2467 101.269 41.74V48.5H98.5292ZM111.383 48.7C110.343 48.7 109.396 48.46 108.543 47.98C107.703 47.5 107.036 46.8533 106.543 46.04C106.05 45.2267 105.803 44.3133 105.803 43.3C105.803 42.2867 106.036 41.3733 106.503 40.56C106.983 39.7467 107.63 39.1 108.443 38.62C109.256 38.14 110.163 37.9 111.163 37.9C112.163 37.9 113.05 38.1467 113.823 38.64C114.596 39.1333 115.203 39.8 115.643 40.64C116.096 41.48 116.323 42.4333 116.323 43.5V44.22H108.603C108.723 44.6333 108.916 45.0067 109.183 45.34C109.463 45.6733 109.803 45.9333 110.203 46.12C110.616 46.3067 111.056 46.4 111.523 46.4C111.99 46.4 112.416 46.3267 112.803 46.18C113.203 46.0333 113.543 45.8267 113.823 45.56L115.623 47.2C114.983 47.72 114.323 48.1 113.643 48.34C112.976 48.58 112.223 48.7 111.383 48.7ZM108.563 42.26H113.623C113.53 41.8467 113.356 41.4867 113.103 41.18C112.863 40.86 112.57 40.6133 112.223 40.44C111.89 40.2533 111.516 40.16 111.103 40.16C110.676 40.16 110.29 40.2467 109.943 40.42C109.596 40.5933 109.303 40.84 109.063 41.16C108.836 41.4667 108.67 41.8333 108.563 42.26ZM123.18 48.7C122.14 48.7 121.193 48.46 120.34 47.98C119.5 47.5 118.833 46.8533 118.34 46.04C117.847 45.2267 117.6 44.3133 117.6 43.3C117.6 42.2867 117.833 41.3733 118.3 40.56C118.78 39.7467 119.427 39.1 120.24 38.62C121.053 38.14 121.96 37.9 122.96 37.9C123.96 37.9 124.847 38.1467 125.62 38.64C126.393 39.1333 127 39.8 127.44 40.64C127.893 41.48 128.12 42.4333 128.12 43.5V44.22H120.4C120.52 44.6333 120.713 45.0067 120.98 45.34C121.26 45.6733 121.6 45.9333 122 46.12C122.413 46.3067 122.853 46.4 123.32 46.4C123.787 46.4 124.213 46.3267 124.6 46.18C125 46.0333 125.34 45.8267 125.62 45.56L127.42 47.2C126.78 47.72 126.12 48.1 125.44 48.34C124.773 48.58 124.02 48.7 123.18 48.7ZM120.36 42.26H125.42C125.327 41.8467 125.153 41.4867 124.9 41.18C124.66 40.86 124.367 40.6133 124.02 40.44C123.687 40.2533 123.313 40.16 122.9 40.16C122.473 40.16 122.087 40.2467 121.74 40.42C121.393 40.5933 121.1 40.84 120.86 41.16C120.633 41.4667 120.467 41.8333 120.36 42.26ZM129.799 48.5V38.08H132.539V39.24C132.872 38.7867 133.272 38.44 133.739 38.2C134.205 37.96 134.732 37.84 135.319 37.84C135.825 37.8533 136.205 37.9333 136.459 38.08V40.48C136.259 40.3867 136.039 40.32 135.799 40.28C135.559 40.2267 135.312 40.2 135.059 40.2C134.525 40.2 134.039 40.3333 133.599 40.6C133.159 40.8667 132.805 41.2467 132.539 41.74V48.5H129.799ZM145.003 48.72C143.963 48.72 142.996 48.54 142.103 48.18C141.209 47.8067 140.423 47.2933 139.743 46.64C139.076 45.9733 138.549 45.2067 138.163 44.34C137.789 43.46 137.603 42.5133 137.603 41.5C137.603 40.4867 137.789 39.5467 138.163 38.68C138.549 37.8 139.076 37.0333 139.743 36.38C140.423 35.7133 141.209 35.2 142.103 34.84C142.996 34.4667 143.963 34.28 145.003 34.28C146.043 34.28 147.009 34.4667 147.903 34.84C148.809 35.2 149.596 35.7133 150.263 36.38C150.943 37.0333 151.469 37.8 151.843 38.68C152.216 39.5467 152.403 40.4867 152.403 41.5C152.403 42.5133 152.216 43.46 151.843 44.34C151.469 45.2067 150.943 45.9733 150.263 46.64C149.596 47.2933 148.809 47.8067 147.903 48.18C147.009 48.54 146.043 48.72 145.003 48.72ZM145.003 46.06C145.643 46.06 146.229 45.9467 146.763 45.72C147.296 45.48 147.763 45.16 148.163 44.76C148.563 44.3467 148.876 43.86 149.103 43.3C149.329 42.74 149.443 42.14 149.443 41.5C149.443 40.8467 149.329 40.2467 149.103 39.7C148.876 39.14 148.563 38.66 148.163 38.26C147.763 37.8467 147.296 37.5267 146.763 37.3C146.229 37.06 145.643 36.94 145.003 36.94C144.376 36.94 143.796 37.06 143.263 37.3C142.729 37.5267 142.263 37.8467 141.863 38.26C141.463 38.66 141.149 39.14 140.923 39.7C140.696 40.2467 140.583 40.84 140.583 41.48C140.583 42.1333 140.696 42.74 140.923 43.3C141.149 43.86 141.463 44.3467 141.863 44.76C142.263 45.16 142.729 45.48 143.263 45.72C143.796 45.9467 144.376 46.06 145.003 46.06ZM154.232 52.58V38.08H156.932V38.94C157.786 38.2733 158.772 37.94 159.892 37.94C160.879 37.94 161.772 38.18 162.572 38.66C163.372 39.14 164.006 39.7867 164.472 40.6C164.952 41.4 165.192 42.3 165.192 43.3C165.192 44.3 164.952 45.2067 164.472 46.02C163.992 46.82 163.346 47.46 162.532 47.94C161.719 48.4067 160.812 48.64 159.812 48.64C159.292 48.64 158.792 48.5733 158.312 48.44C157.832 48.2933 157.386 48.0867 156.972 47.82V52.58H154.232ZM159.452 46.32C160.026 46.32 160.539 46.1867 160.992 45.92C161.459 45.6533 161.826 45.2933 162.092 44.84C162.359 44.3867 162.492 43.8733 162.492 43.3C162.492 42.7267 162.359 42.2133 162.092 41.76C161.826 41.2933 161.459 40.9333 160.992 40.68C160.539 40.4133 160.026 40.28 159.452 40.28C158.946 40.28 158.479 40.3667 158.052 40.54C157.639 40.7 157.279 40.9467 156.972 41.28V45.34C157.266 45.6467 157.626 45.8867 158.052 46.06C158.492 46.2333 158.959 46.32 159.452 46.32ZM171.95 48.7C170.91 48.7 169.963 48.46 169.11 47.98C168.27 47.5 167.603 46.8533 167.11 46.04C166.616 45.2267 166.37 44.3133 166.37 43.3C166.37 42.2867 166.603 41.3733 167.07 40.56C167.55 39.7467 168.196 39.1 169.01 38.62C169.823 38.14 170.73 37.9 171.73 37.9C172.73 37.9 173.616 38.1467 174.39 38.64C175.163 39.1333 175.77 39.8 176.21 40.64C176.663 41.48 176.89 42.4333 176.89 43.5V44.22H169.17C169.29 44.6333 169.483 45.0067 169.75 45.34C170.03 45.6733 170.37 45.9333 170.77 46.12C171.183 46.3067 171.623 46.4 172.09 46.4C172.556 46.4 172.983 46.3267 173.37 46.18C173.77 46.0333 174.11 45.8267 174.39 45.56L176.19 47.2C175.55 47.72 174.89 48.1 174.21 48.34C173.543 48.58 172.79 48.7 171.95 48.7ZM169.13 42.26H174.19C174.096 41.8467 173.923 41.4867 173.67 41.18C173.43 40.86 173.136 40.6133 172.79 40.44C172.456 40.2533 172.083 40.16 171.67 40.16C171.243 40.16 170.856 40.2467 170.51 40.42C170.163 40.5933 169.87 40.84 169.63 41.16C169.403 41.4667 169.236 41.8333 169.13 42.26ZM178.568 48.5V38.08H181.308V38.94C182.095 38.2333 183.068 37.88 184.228 37.88C185.042 37.88 185.755 38.06 186.368 38.42C186.995 38.7667 187.482 39.2533 187.828 39.88C188.175 40.4933 188.348 41.2133 188.348 42.04V48.5H185.608V42.44C185.608 41.76 185.415 41.2267 185.028 40.84C184.642 40.44 184.115 40.24 183.448 40.24C182.982 40.24 182.568 40.3333 182.208 40.52C181.848 40.6933 181.548 40.9467 181.308 41.28V48.5H178.568Z" fill="#2D3936"/>
</svg>
