<svg width="500" height="56" viewBox="0 0 500 56" fill="none" xmlns="http://www.w3.org/2000/svg">
<rect x="0.5" y="0.5" width="499" height="55" rx="7.5" stroke="#BEC2C1"/>
<path d="M182 28.2222C182 27.3999 181.932 26.7999 181.785 26.1777H172.204V29.8888H177.828C177.714 30.8111 177.102 32.1999 175.741 33.1332L175.722 33.2575L178.752 35.5572L178.961 35.5777C180.889 33.8333 182 31.2666 182 28.2222Z" fill="#4285F4"/>
<path d="M172.204 38C174.959 38 177.272 37.1111 178.961 35.5778L175.741 33.1333C174.88 33.7222 173.723 34.1333 172.204 34.1333C169.506 34.1333 167.215 32.3889 166.399 29.9778L166.279 29.9877L163.13 32.3766L163.088 32.4889C164.766 35.7555 168.213 38 172.204 38Z" fill="#34A853"/>
<path d="M166.399 29.9778C166.184 29.3555 166.059 28.6888 166.059 28C166.059 27.311 166.184 26.6444 166.388 26.0222L166.382 25.8897L163.193 23.4624L163.088 23.511C162.397 24.8666 162 26.3889 162 28C162 29.6111 162.397 31.1333 163.088 32.4888L166.399 29.9778Z" fill="#FBBC05"/>
<path d="M172.204 21.8666C174.12 21.8666 175.413 22.6777 176.15 23.3556L179.029 20.6C177.261 18.9889 174.959 18 172.204 18C168.213 18 164.766 20.2444 163.088 23.5111L166.388 26.0222C167.215 23.6111 169.506 21.8666 172.204 21.8666Z" fill="#EB4335"/>
<path d="M199.712 32.64C198.984 32.64 198.303 32.514 197.668 32.262C197.033 32.0007 196.478 31.6413 196.002 31.184C195.535 30.7267 195.167 30.1947 194.896 29.588C194.635 28.972 194.504 28.3093 194.504 27.6C194.504 26.8813 194.635 26.2187 194.896 25.612C195.167 24.996 195.54 24.4593 196.016 24.002C196.492 23.5447 197.043 23.19 197.668 22.938C198.303 22.6767 198.984 22.546 199.712 22.546C200.253 22.546 200.776 22.6207 201.28 22.77C201.784 22.9193 202.251 23.1293 202.68 23.4C203.119 23.6707 203.492 23.9973 203.8 24.38L202.428 25.738C202.073 25.2993 201.663 24.968 201.196 24.744C200.739 24.52 200.244 24.408 199.712 24.408C199.273 24.408 198.863 24.492 198.48 24.66C198.097 24.8187 197.766 25.0427 197.486 25.332C197.206 25.612 196.987 25.948 196.828 26.34C196.669 26.7227 196.59 27.1427 196.59 27.6C196.59 28.048 196.669 28.468 196.828 28.86C196.987 29.2427 197.211 29.5787 197.5 29.868C197.789 30.148 198.125 30.3673 198.508 30.526C198.9 30.6847 199.325 30.764 199.782 30.764C200.295 30.764 200.776 30.6567 201.224 30.442C201.672 30.2273 202.069 29.9193 202.414 29.518L203.744 30.834C203.436 31.2073 203.067 31.5293 202.638 31.8C202.209 32.0707 201.742 32.2807 201.238 32.43C200.743 32.57 200.235 32.64 199.712 32.64ZM208.156 32.64C207.428 32.64 206.77 32.472 206.182 32.136C205.594 31.8 205.127 31.3473 204.782 30.778C204.436 30.2087 204.264 29.5693 204.264 28.86C204.264 28.1507 204.432 27.5113 204.768 26.942C205.113 26.3633 205.58 25.906 206.168 25.57C206.765 25.234 207.428 25.066 208.156 25.066C208.884 25.066 209.542 25.234 210.13 25.57C210.727 25.906 211.194 26.3633 211.53 26.942C211.875 27.5113 212.048 28.1507 212.048 28.86C212.048 29.5693 211.875 30.2087 211.53 30.778C211.194 31.3473 210.732 31.8 210.144 32.136C209.556 32.472 208.893 32.64 208.156 32.64ZM208.156 30.974C208.538 30.974 208.879 30.8807 209.178 30.694C209.486 30.5073 209.728 30.2553 209.906 29.938C210.092 29.6113 210.186 29.252 210.186 28.86C210.186 28.4587 210.092 28.0993 209.906 27.782C209.728 27.4647 209.486 27.2127 209.178 27.026C208.879 26.83 208.538 26.732 208.156 26.732C207.782 26.732 207.442 26.83 207.134 27.026C206.826 27.2127 206.583 27.4647 206.406 27.782C206.228 28.0993 206.14 28.4587 206.14 28.86C206.14 29.252 206.228 29.6113 206.406 29.938C206.583 30.2553 206.826 30.5073 207.134 30.694C207.442 30.8807 207.782 30.974 208.156 30.974ZM213.227 32.5V25.206H215.145V25.808C215.695 25.3133 216.377 25.066 217.189 25.066C217.758 25.066 218.257 25.192 218.687 25.444C219.125 25.6867 219.466 26.0273 219.709 26.466C219.951 26.8953 220.073 27.3993 220.073 27.978V32.5H218.155V28.258C218.155 27.782 218.019 27.4087 217.749 27.138C217.478 26.858 217.109 26.718 216.643 26.718C216.316 26.718 216.027 26.7833 215.775 26.914C215.523 27.0353 215.313 27.2127 215.145 27.446V32.5H213.227ZM224.778 32.612C223.966 32.612 223.35 32.43 222.93 32.066C222.52 31.6927 222.314 31.1513 222.314 30.442V26.802H220.816V25.206H222.314V23.344L224.232 22.91V25.206H226.318V26.802H224.232V30.05C224.232 30.386 224.307 30.6287 224.456 30.778C224.606 30.918 224.867 30.988 225.24 30.988C225.427 30.988 225.595 30.9787 225.744 30.96C225.903 30.932 226.076 30.8853 226.262 30.82V32.402C226.066 32.4673 225.819 32.5187 225.52 32.556C225.231 32.5933 224.984 32.612 224.778 32.612ZM227.254 32.5V25.206H229.172V32.5H227.254ZM228.206 24.338C227.907 24.338 227.651 24.2307 227.436 24.016C227.221 23.8013 227.114 23.5447 227.114 23.246C227.114 22.938 227.221 22.6813 227.436 22.476C227.651 22.2613 227.907 22.154 228.206 22.154C228.514 22.154 228.771 22.2613 228.976 22.476C229.191 22.6813 229.298 22.938 229.298 23.246C229.298 23.5447 229.191 23.8013 228.976 24.016C228.771 24.2307 228.514 24.338 228.206 24.338ZM230.672 32.5V25.206H232.59V25.808C233.141 25.3133 233.822 25.066 234.634 25.066C235.203 25.066 235.703 25.192 236.132 25.444C236.571 25.6867 236.911 26.0273 237.154 26.466C237.397 26.8953 237.518 27.3993 237.518 27.978V32.5H235.6V28.258C235.6 27.782 235.465 27.4087 235.194 27.138C234.923 26.858 234.555 26.718 234.088 26.718C233.761 26.718 233.472 26.7833 233.22 26.914C232.968 27.0353 232.758 27.2127 232.59 27.446V32.5H230.672ZM241.73 32.64C241.17 32.64 240.671 32.5187 240.232 32.276C239.803 32.024 239.462 31.6787 239.21 31.24C238.968 30.8013 238.846 30.2973 238.846 29.728V25.206H240.764V29.448C240.764 29.9147 240.9 30.288 241.17 30.568C241.45 30.848 241.824 30.988 242.29 30.988C242.608 30.988 242.892 30.9273 243.144 30.806C243.406 30.6753 243.62 30.4933 243.788 30.26V25.206H245.706V32.5H243.788V31.912C243.228 32.3973 242.542 32.64 241.73 32.64ZM250.771 32.64C250.043 32.64 249.381 32.472 248.783 32.136C248.195 31.8 247.729 31.3473 247.383 30.778C247.038 30.2087 246.865 29.5693 246.865 28.86C246.865 28.1507 247.029 27.5113 247.355 26.942C247.691 26.3727 248.144 25.92 248.713 25.584C249.283 25.248 249.917 25.08 250.617 25.08C251.317 25.08 251.938 25.2527 252.479 25.598C253.021 25.9433 253.445 26.41 253.753 26.998C254.071 27.586 254.229 28.2533 254.229 29V29.504H248.825C248.909 29.7933 249.045 30.0547 249.231 30.288C249.427 30.5213 249.665 30.7033 249.945 30.834C250.235 30.9647 250.543 31.03 250.869 31.03C251.196 31.03 251.495 30.9787 251.765 30.876C252.045 30.7733 252.283 30.6287 252.479 30.442L253.739 31.59C253.291 31.954 252.829 32.22 252.353 32.388C251.887 32.556 251.359 32.64 250.771 32.64ZM248.797 28.132H252.339C252.274 27.8427 252.153 27.5907 251.975 27.376C251.807 27.152 251.602 26.9793 251.359 26.858C251.126 26.7273 250.865 26.662 250.575 26.662C250.277 26.662 250.006 26.7227 249.763 26.844C249.521 26.9653 249.315 27.138 249.147 27.362C248.989 27.5767 248.872 27.8333 248.797 28.132ZM259.607 32.5L257.605 25.206H259.425L260.629 29.91L262.085 25.206H263.695L265.137 29.924L266.341 25.206H268.133L266.117 32.5H264.283L262.869 27.838L261.455 32.5H259.607ZM269.035 32.5V25.206H270.953V32.5H269.035ZM269.987 24.338C269.689 24.338 269.432 24.2307 269.217 24.016C269.003 23.8013 268.895 23.5447 268.895 23.246C268.895 22.938 269.003 22.6813 269.217 22.476C269.432 22.2613 269.689 22.154 269.987 22.154C270.295 22.154 270.552 22.2613 270.757 22.476C270.972 22.6813 271.079 22.938 271.079 23.246C271.079 23.5447 270.972 23.8013 270.757 24.016C270.552 24.2307 270.295 24.338 269.987 24.338ZM275.911 32.612C275.099 32.612 274.483 32.43 274.063 32.066C273.653 31.6927 273.447 31.1513 273.447 30.442V26.802H271.949V25.206H273.447V23.344L275.365 22.91V25.206H277.451V26.802H275.365V30.05C275.365 30.386 275.44 30.6287 275.589 30.778C275.739 30.918 276 30.988 276.373 30.988C276.56 30.988 276.728 30.9787 276.877 30.96C277.036 30.932 277.209 30.8853 277.395 30.82V32.402C277.199 32.4673 276.952 32.5187 276.653 32.556C276.364 32.5933 276.117 32.612 275.911 32.612ZM278.387 32.5V22.7L280.305 22.28V25.808C280.856 25.3133 281.537 25.066 282.349 25.066C282.918 25.066 283.418 25.192 283.847 25.444C284.286 25.6867 284.626 26.0273 284.869 26.466C285.112 26.8953 285.233 27.3993 285.233 27.978V32.5H283.315V28.258C283.315 27.782 283.18 27.4087 282.909 27.138C282.638 26.858 282.27 26.718 281.803 26.718C281.476 26.718 281.187 26.7833 280.935 26.914C280.683 27.0353 280.473 27.2127 280.305 27.446V32.5H278.387ZM294.444 32.654C293.716 32.654 293.039 32.528 292.414 32.276C291.789 32.0147 291.238 31.6553 290.762 31.198C290.286 30.7313 289.913 30.1947 289.642 29.588C289.381 28.972 289.25 28.3093 289.25 27.6C289.25 26.8907 289.381 26.2327 289.642 25.626C289.913 25.01 290.281 24.4733 290.748 24.016C291.215 23.5493 291.761 23.19 292.386 22.938C293.021 22.6767 293.697 22.546 294.416 22.546C295.228 22.546 295.993 22.7093 296.712 23.036C297.431 23.3533 298.023 23.8013 298.49 24.38L297.076 25.682C296.74 25.262 296.343 24.9447 295.886 24.73C295.429 24.5153 294.939 24.408 294.416 24.408C293.977 24.408 293.571 24.492 293.198 24.66C292.825 24.8187 292.498 25.0427 292.218 25.332C291.938 25.612 291.719 25.948 291.56 26.34C291.411 26.7227 291.336 27.1427 291.336 27.6C291.336 28.0573 291.415 28.482 291.574 28.874C291.733 29.266 291.952 29.6067 292.232 29.896C292.521 30.176 292.853 30.4 293.226 30.568C293.609 30.7267 294.024 30.806 294.472 30.806C294.939 30.806 295.359 30.722 295.732 30.554C296.105 30.3767 296.418 30.134 296.67 29.826C296.931 29.5087 297.104 29.154 297.188 28.762H294.29V26.998H299.358V27.614C299.358 28.342 299.232 29.014 298.98 29.63C298.737 30.2367 298.397 30.7687 297.958 31.226C297.519 31.674 297.001 32.024 296.404 32.276C295.807 32.528 295.153 32.654 294.444 32.654ZM304.173 32.64C303.445 32.64 302.787 32.472 302.199 32.136C301.611 31.8 301.145 31.3473 300.799 30.778C300.454 30.2087 300.281 29.5693 300.281 28.86C300.281 28.1507 300.449 27.5113 300.785 26.942C301.131 26.3633 301.597 25.906 302.185 25.57C302.783 25.234 303.445 25.066 304.173 25.066C304.901 25.066 305.559 25.234 306.147 25.57C306.745 25.906 307.211 26.3633 307.547 26.942C307.893 27.5113 308.065 28.1507 308.065 28.86C308.065 29.5693 307.893 30.2087 307.547 30.778C307.211 31.3473 306.749 31.8 306.161 32.136C305.573 32.472 304.911 32.64 304.173 32.64ZM304.173 30.974C304.556 30.974 304.897 30.8807 305.195 30.694C305.503 30.5073 305.746 30.2553 305.923 29.938C306.11 29.6113 306.203 29.252 306.203 28.86C306.203 28.4587 306.11 28.0993 305.923 27.782C305.746 27.4647 305.503 27.2127 305.195 27.026C304.897 26.83 304.556 26.732 304.173 26.732C303.8 26.732 303.459 26.83 303.151 27.026C302.843 27.2127 302.601 27.4647 302.423 27.782C302.246 28.0993 302.157 28.4587 302.157 28.86C302.157 29.252 302.246 29.6113 302.423 29.938C302.601 30.2553 302.843 30.5073 303.151 30.694C303.459 30.8807 303.8 30.974 304.173 30.974ZM312.8 32.64C312.072 32.64 311.414 32.472 310.826 32.136C310.238 31.8 309.772 31.3473 309.426 30.778C309.081 30.2087 308.908 29.5693 308.908 28.86C308.908 28.1507 309.076 27.5113 309.412 26.942C309.758 26.3633 310.224 25.906 310.812 25.57C311.41 25.234 312.072 25.066 312.8 25.066C313.528 25.066 314.186 25.234 314.774 25.57C315.372 25.906 315.838 26.3633 316.174 26.942C316.52 27.5113 316.692 28.1507 316.692 28.86C316.692 29.5693 316.52 30.2087 316.174 30.778C315.838 31.3473 315.376 31.8 314.788 32.136C314.2 32.472 313.538 32.64 312.8 32.64ZM312.8 30.974C313.183 30.974 313.524 30.8807 313.822 30.694C314.13 30.5073 314.373 30.2553 314.55 29.938C314.737 29.6113 314.83 29.252 314.83 28.86C314.83 28.4587 314.737 28.0993 314.55 27.782C314.373 27.4647 314.13 27.2127 313.822 27.026C313.524 26.83 313.183 26.732 312.8 26.732C312.427 26.732 312.086 26.83 311.778 27.026C311.47 27.2127 311.228 27.4647 311.05 27.782C310.873 28.0993 310.784 28.4587 310.784 28.86C310.784 29.252 310.873 29.6113 311.05 29.938C311.228 30.2553 311.47 30.5073 311.778 30.694C312.086 30.8807 312.427 30.974 312.8 30.974ZM321.539 35.496C320.979 35.496 320.438 35.4353 319.915 35.314C319.393 35.202 318.921 35.0387 318.501 34.824L319.173 33.34C319.575 33.536 319.967 33.6807 320.349 33.774C320.732 33.8673 321.115 33.914 321.497 33.914C322.067 33.914 322.496 33.7927 322.785 33.55C323.084 33.3073 323.233 32.9433 323.233 32.458V31.884C322.636 32.3227 321.969 32.542 321.231 32.542C320.541 32.542 319.915 32.3787 319.355 32.052C318.805 31.716 318.361 31.2633 318.025 30.694C317.699 30.1247 317.535 29.4947 317.535 28.804C317.535 28.1133 317.699 27.488 318.025 26.928C318.361 26.368 318.814 25.9247 319.383 25.598C319.953 25.262 320.587 25.094 321.287 25.094C321.642 25.094 321.987 25.1453 322.323 25.248C322.659 25.3507 322.972 25.4953 323.261 25.682V25.206H325.151V32.486C325.151 33.4473 324.839 34.1893 324.213 34.712C323.597 35.2347 322.706 35.496 321.539 35.496ZM321.525 30.918C321.88 30.918 322.202 30.862 322.491 30.75C322.781 30.6287 323.028 30.4607 323.233 30.246V27.39C323.028 27.1847 322.776 27.026 322.477 26.914C322.188 26.7927 321.875 26.732 321.539 26.732C321.138 26.732 320.779 26.8253 320.461 27.012C320.144 27.1893 319.892 27.4367 319.705 27.754C319.519 28.062 319.425 28.412 319.425 28.804C319.425 29.2053 319.514 29.5647 319.691 29.882C319.878 30.1993 320.13 30.4513 320.447 30.638C320.774 30.8247 321.133 30.918 321.525 30.918ZM326.649 32.5V22.7L328.567 22.378V32.5H326.649ZM333.637 32.64C332.909 32.64 332.246 32.472 331.649 32.136C331.061 31.8 330.594 31.3473 330.249 30.778C329.903 30.2087 329.731 29.5693 329.731 28.86C329.731 28.1507 329.894 27.5113 330.221 26.942C330.557 26.3727 331.009 25.92 331.579 25.584C332.148 25.248 332.783 25.08 333.483 25.08C334.183 25.08 334.803 25.2527 335.345 25.598C335.886 25.9433 336.311 26.41 336.619 26.998C336.936 27.586 337.095 28.2533 337.095 29V29.504H331.691C331.775 29.7933 331.91 30.0547 332.097 30.288C332.293 30.5213 332.531 30.7033 332.811 30.834C333.1 30.9647 333.408 31.03 333.735 31.03C334.061 31.03 334.36 30.9787 334.631 30.876C334.911 30.7733 335.149 30.6287 335.345 30.442L336.605 31.59C336.157 31.954 335.695 32.22 335.219 32.388C334.752 32.556 334.225 32.64 333.637 32.64ZM331.663 28.132H335.205C335.139 27.8427 335.018 27.5907 334.841 27.376C334.673 27.152 334.467 26.9793 334.225 26.858C333.991 26.7273 333.73 26.662 333.441 26.662C333.142 26.662 332.871 26.7227 332.629 26.844C332.386 26.9653 332.181 27.138 332.013 27.362C331.854 27.5767 331.737 27.8333 331.663 28.132Z" fill="#2D3936"/>
</svg>
